<svg width="36" height="36" viewBox="0 0 36 36" fill="none" xmlns="http://www.w3.org/2000/svg">
<path d="M6.61499 24.2881L8.38499 26.7106L15 21.8761V31.5001C15 32.0491 15.3 32.5546 15.7815 32.8171C16.0065 32.9386 16.2525 33.0001 16.5 33.0001C16.782 33.0001 17.0655 32.9206 17.3115 32.7616L27.8115 26.0116C28.227 25.7446 28.4835 25.2886 28.5 24.7936C28.515 24.2986 28.284 23.8291 27.885 23.5381L20.3055 18.0001L27.885 12.4621C28.284 12.1696 28.515 11.7001 28.5 11.2051C28.4835 10.7101 28.227 10.2556 27.8115 9.98708L17.3115 3.23708C16.8495 2.94008 16.263 2.91908 15.78 3.18158C15.3 3.44558 15 3.95108 15 4.50008V14.1241L8.38499 9.28808L6.61499 11.7121L15 17.8396V18.1621L6.61499 24.2881ZM18 7.24808L24.348 11.3296L18 15.9691V7.24808ZM18 20.0311L24.348 24.6706L18 28.7521V20.0311Z" fill="white"/>
</svg>
