<svg width="32" height="32" viewBox="0 0 32 32" fill="none" xmlns="http://www.w3.org/2000/svg">
<path d="M27.9999 4H6.66659C5.92925 4 5.33325 4.596 5.33325 5.33333V8.78667C5.33325 9.484 5.61725 10.1693 6.11059 10.6627L13.3333 17.8853V28C13.3333 28.4627 13.5733 28.8907 13.9666 29.1347C14.1799 29.2667 14.4226 29.3333 14.6666 29.3333C14.8706 29.3333 15.0746 29.2867 15.2626 29.1933L20.5959 26.5267C21.0479 26.3 21.3333 25.8387 21.3333 25.3333V17.8853L28.5559 10.6627C29.0493 10.1693 29.3333 9.484 29.3333 8.78667V5.33333C29.3333 4.596 28.7373 4 27.9999 4ZM19.0573 16.3907C18.8066 16.64 18.6666 16.9787 18.6666 17.3333V24.5093L15.9999 25.8427V17.3333C15.9999 16.9787 15.8599 16.64 15.6093 16.3907L7.99992 8.78667V6.66667H26.6679L26.6706 8.77733L19.0573 16.3907Z" fill="black"/>
</svg>
