<svg width="278" height="146" fill="none" xmlns="http://www.w3.org/2000/svg">
    <g clip-path="url(#a)">
        <path d="M277.409 106.422c-1.456 9.258-5.968 18.243-13.413 23.929-7.328 5.601-16.716 7.59-25.778 9.301a1024.977 1024.977 0 0 1-32.699 5.632c-1.549.247-3.099.486-4.651.716h-63.657a15.23 15.23 0 0 1-.197-.265 15.287 15.287 0 0 1-.479-.716h39.929a4.275 4.275 0 0 0 4.275-4.272V87.442c.258-.808.497-1.62.716-2.444a64.465 64.465 0 0 0 1.978-11.705c.215-2.755.279-5.51.233-8.27-.132-7.582-1.124-15.165-2.201-22.694-.078-.555-.16-1.113-.239-1.668-.759-5.231-1.449-10.925 1.188-15.509 3.016-5.246 9.71-7.432 15.739-6.895 10.844.97 19.978 9.275 24.726 19.076 4.745 9.798 5.807 20.941 6.24 31.82.229 5.768.204 11.794-.601 17.58 2.719-6.219 5.441-12.438 8.165-18.657 1.452-3.317 2.98-6.742 5.671-9.168 5.624-5.078 14.926-4.055 20.934.569 6.003 4.627 9.295 11.938 11.484 19.191 2.713 8.971 4.097 18.497 2.637 27.754z" fill="#F2F2F2"/>
        <path d="M253.419 56.14c3.933 6.968 5.738 14.956 5.694 22.928a55.517 55.517 0 0 1-5.127 22.877 57.482 57.482 0 0 1-12.332 17.283 52.35 52.35 0 0 1-17.722 11.322 46.305 46.305 0 0 1-24.047 2.286 46.522 46.522 0 0 1-3.341-.702c-.671-.165-.957.87-.285 1.036a47.494 47.494 0 0 0 25.489-.734 52.495 52.495 0 0 0 18.67-10.623 58.295 58.295 0 0 0 13.391-17.073 57.083 57.083 0 0 0 6.288-22.853c.469-8.092-.888-16.328-4.386-23.667a41.753 41.753 0 0 0-1.365-2.621.535.535 0 0 0-.725-.177.54.54 0 0 0-.202.719z" fill="#fff"/>
        <path d="M196.456 18.115a116.449 116.449 0 0 1 10.125 25.4 122.7 122.7 0 0 1 2.086 54.235 115.967 115.967 0 0 1-8.153 26.117c-3.728 8.284-9.095 17.011-18.262 19.911a19.11 19.11 0 0 1-3.17.709c-.681.093-.391 1.128.285 1.035 9.483-1.302 16.073-9.181 20.205-17.214 4.276-8.31 7.321-17.336 9.346-26.447a123.674 123.674 0 0 0-.422-55.152 118.296 118.296 0 0 0-9.492-26.05 115.356 115.356 0 0 0-1.621-3.086c-.33-.607-1.257-.066-.927.542z" fill="#fff"/>
        <path d="M151.572 16.553H87.314a4.926 4.926 0 0 0-4.92 4.92v32.203h9.89a4.25 4.25 0 0 1 3.617 2l3.428 5.458 3.277 5.213.615.98 3.75 5.966.043.068h49.478V21.474a4.93 4.93 0 0 0-4.92-4.92z" fill="#CCC"/>
        <path d="M126.102 26.398h-31.84a3.182 3.182 0 0 0 0 6.366h31.84a3.182 3.182 0 0 0 0-6.366zM143.758 42.028H94.552a3.474 3.474 0 1 0 0 6.95h49.206a3.475 3.475 0 1 0 0-6.95zM146.9 56.188a3.477 3.477 0 0 0-3.142-2H94.552c-.075 0-.147.003-.222.007.642.35 1.183.861 1.571 1.481l3.428 5.458h44.429a3.468 3.468 0 0 0 3.142-4.946zM147.197 69.353a3.474 3.474 0 0 0-3.439-3.006h-41.152l.615.98 3.75 5.966h36.787a3.481 3.481 0 0 0 3.086-1.885 3.476 3.476 0 0 0 .353-2.055z" fill="#fff"/>
        <path d="m186.474 44.286-5.009-1.957-24.973-9.748-29.879-11.662a4.927 4.927 0 0 0-6.372 2.798l-1.045 2.68-2.486 6.367-3.614 9.264-2.712 6.95-2.032 5.21-2.712 6.946-2.036 5.213-.057.15-.326.83 3.75 5.966.043.068h69.45a4.262 4.262 0 0 1 3.323 1.589l.294-.744 3.585-9.183 5.603-14.36a4.93 4.93 0 0 0-2.795-6.377z" fill="#2E6EED"/>
        <path d="m159.168 44.193-2.676-1.045-26.984-10.531a3.194 3.194 0 0 0-4.125 1.807 3.195 3.195 0 0 0 1.81 4.126l8.912 3.478 11.024 4.302 9.363 3.657.361.14a3.184 3.184 0 0 0 2.315-5.934zM169.931 65.177l-13.439-5.246-9.592-3.743-5.124-2-13.345-5.21-4.337-1.693a3.472 3.472 0 1 0-2.525 6.47l1.109.433 17.789 6.946 16.025 6.255 10.913 4.262a3.474 3.474 0 1 0 2.525-6.473h.001zM156.492 72.982l-.862-.337-8.433-3.292-7.703-3.006-13.36-5.213-6.462-2.523a3.473 3.473 0 1 0-2.522 6.473l3.234 1.263 16.136 6.299 1.66.647.172.068h19.11l-.97-.38zM123.851 73.293l-1.66-.648-6.937-2.708a3.469 3.469 0 0 0-4.734 3.356.388.388 0 0 0 .004.068h13.502l-.175-.068z" fill="#fff"/>
        <path d="m138.18 73.293-1.66-.648h-25.961a3.343 3.343 0 0 0-.039.648h-3.549l.043.068h31.338l-.172-.068zm0 0h-31.209l.043.068h31.338l-.172-.068zm0 0h-31.209l.043.068h31.338l-.172-.068zm.172.068-.172-.068h-31.209l.043.068h31.338zM75.736 145.02a4.28 4.28 0 0 1-4.272-4.273V57.952a4.28 4.28 0 0 1 4.272-4.276h6.658v-.716h-6.658a4.997 4.997 0 0 0-4.987 4.992v82.795a4.993 4.993 0 0 0 2.923 4.537h63.034c-.057-.086-.114-.175-.171-.264H75.736zm104.345-70.814a4.962 4.962 0 0 0-3.617-1.56h-69.053l-3.864-6.148-.093-.15-3.277-5.214-3.671-5.84a5 5 0 0 0-4.222-2.334H75.736a4.997 4.997 0 0 0-4.987 4.992v82.795a4.993 4.993 0 0 0 4.987 4.988h100.728a4.992 4.992 0 0 0 4.991-4.988v-63.11a4.966 4.966 0 0 0-1.374-3.431zm.658 66.541a4.282 4.282 0 0 1-4.275 4.273H75.736a4.28 4.28 0 0 1-4.272-4.273V57.952a4.28 4.28 0 0 1 4.272-4.276h16.548a4.25 4.25 0 0 1 3.617 2l3.428 5.458 3.277 5.213.615.98 3.75 5.966.043.068h69.45a4.28 4.28 0 0 1 4.275 4.276v63.11zM138.18 73.293h-31.209l.043.068h31.338l-.172-.068zm0 0h-31.209l.043.068h31.338l-.172-.068zm0 0h-31.209l.043.068h31.338l-.172-.068zm0 0-1.66-.648h-29.109l-3.864-6.147-.326.83 3.75 5.965.043.068h31.338l-.172-.068z" fill="#3F3D56"/>
        <path d="m56.147 102.977-2.05 4.285-17.502-5.866 3.025-6.325 16.527 7.906z" fill="#FFB8B8"/>
        <path d="m51.219 110.136 4.142-8.663 5.203 2.489-6.44 13.468-.398-.19a5.33 5.33 0 0 1-2.507-7.104z" fill="#2F2E41"/>
        <path d="m60.272 141.247-4.746-.161-.2-18.48 5.564.328-.618 18.313z" fill="#FFB8B8"/>
        <path d="m51.74 139.6 9.595.324-.194 5.765-14.919-.503.015-.441a5.328 5.328 0 0 1 5.503-5.145zM67.916 63.903s-14.527-3.68-21.113 1.744l-3.68 10.656L28.4 97.226l21.307 12.787 3.874-9.687-9.297-4.65 11.234-9.687-1.937 51.147 7.361 1.162s16.271-63.158 6.974-74.395z" fill="#2F2E41"/>
        <path d="m45.876 67.223.177-.315c1.866-3.319 1.564-8.723.982-12.672-.488-3.308-.474-9.138-.375-13.446a6.402 6.402 0 0 1 5.102-6.162c4.42-.92 9.845-1.115 12.686-1.15l.003.194-.003-.194a2.95 2.95 0 0 1 2.961 2.878c.087 4.64.06 13.1-1.091 17.638-1.709 6.737.963 11.314.99 11.36l.161.27-21.593 1.6z" fill="#2E6EED"/>
        <path d="M38.403 85.802a3.587 3.587 0 0 0 1.363-5.33l8.199-35.361h-6.199L34.53 79.775a3.607 3.607 0 0 0 3.873 6.026zM88.256 50.993 74.573 38.048l-3.698 5.178 9.245 8.137-12.124 9.63c-.088-.006-.175-.013-.264-.013a3.882 3.882 0 0 0-2.928 6.439 3.882 3.882 0 0 0 6.772-2.04l.039.04 16.64-14.425z" fill="#FFB8B8"/>
        <path d="M50.892 35.082s-8.545-1.401-9.32 5.185c-.774 6.588-1.162 6.588-1.162 6.588s6.199-1.163 7.749.387c1.55 1.55 2.733-12.16 2.733-12.16zM63.655 34.068s6.973-1.162 10.073 1.937c3.099 3.1 4.649 3.875 4.649 3.875s-6.974 3.875-4.262 7.362c0 0-7.36-3.487-8.523-2.325-1.162 1.163-1.937-10.85-1.937-10.85z" fill="#2E6EED"/>
        <path d="M57.539 11.572c-2.2-1.757-2.778-5.148-1.502-7.658C57.313 1.404 60.2-.107 63.012.006c2.813.113 5.463 1.728 7.093 4.024 2.289 3.225 2.769 7.707 5.813 10.232 2.749 2.28 6.687 2.215 10.254 2.034 1.203-.061 2.444-.132 3.523-.667 1.08-.534 1.96-1.66 1.822-2.857.896 1.419.376 3.408-.826 4.579-1.203 1.17-2.915 1.66-4.581 1.856a17.018 17.018 0 0 1-15.44-6.775c-1.24-1.712-2.198-3.706-3.901-4.96-1.703-1.254-4.543-1.341-5.588.497-.517.91-.467 2.05-.942 2.982-.476.931-2.02 1.434-2.478.493" fill="#2F2E41"/>
        <path d="M57.203 30.258c5.927 0 10.733-4.807 10.733-10.736 0-5.928-4.806-10.735-10.734-10.735-5.927 0-10.733 4.806-10.733 10.735 0 5.93 4.806 10.736 10.733 10.736z" fill="#2F2E41"/>
        <path d="M57.138 31.098a8.788 8.788 0 0 0 8.787-8.789 8.788 8.788 0 1 0-17.575 0 8.788 8.788 0 0 0 8.788 8.79z" fill="#FFB8B8"/>
        <path d="M49.125 15.854c1.194.261.803 2.265 1.747 3.042.852.701 2.078-.02 3.149-.28 1.353-.33 2.769.153 4.017.768 1.25.616 2.454 1.38 3.816 1.666 1.363.287 2.978-.036 3.742-1.2.73-1.114.46-2.615-.11-3.818a8.863 8.863 0 0 0-15.901-.22" fill="#2F2E41"/>
        <path d="M256.175 145.642a.358.358 0 0 1-.358.358H.357a.358.358 0 0 1 0-.716h255.46a.362.362 0 0 1 .253.105.362.362 0 0 1 .105.253z" fill="#3F3D56"/>
    </g>
    <defs>
        <clipPath id="a">
            <path fill="#fff" d="M0 0h278v146H0z"/>
        </clipPath>
    </defs>
</svg>
