<svg width="203" height="146" fill="none" xmlns="http://www.w3.org/2000/svg">
    <g clip-path="url(#a)">
        <path d="M203 146a979.849 979.849 0 0 0-30.178-3.961l3.819-6.178c-1.288-.38-6.945 3.142-6.945 3.142l5.014-17.963c-6.476.624-9.771 18.973-9.771 18.973l-7.235-6.242 3.502 6.996c-29.562-3.05-55.093-4.248-76.568-4.387l3.27-5.288c-1.288-.38-6.946 3.142-6.946 3.142l5.014-17.963c-6.476.624-9.771 18.974-9.771 18.974l-7.234-6.243 3.709 7.411c-18.004.218-32.685 1.179-44.017 2.299 3.307-8.247 14.538-16.052 14.538-16.052-8.577 2.095-13.076 5.651-15.427 8.975-.18-10.201 1.03-29.108 10.012-50.005 0 0-17.731 32.202-15.472 53.882l.27 3.85C7.556 141.093 0 142.932 0 142.932L203 146z" fill="#3F3D56"/>
        <path d="M107.942 5.848v130.124a5.846 5.846 0 0 1-5.85 5.844H49.249a5.85 5.85 0 0 1-4.138-1.709 5.835 5.835 0 0 1-1.712-4.135V5.848A5.846 5.846 0 0 1 49.249 0h7.908v1.014a4.815 4.815 0 0 0 4.815 4.816H88.85a4.778 4.778 0 0 0 2.855-.94 4.801 4.801 0 0 0 1.96-3.876V0h8.428a5.844 5.844 0 0 1 5.405 3.61c.294.71.445 1.47.445 2.238z" fill="#3F3D56"/>
        <path d="M58.12 23.086a1.405 1.405 0 1 0 .001-2.811 1.405 1.405 0 0 0 0 2.81z" fill="#F2F2F2"/>
        <path d="M92.178 4.493a4.48 4.48 0 0 1-.474.397 25.146 25.146 0 0 0 16.238 12.083v-.626A24.567 24.567 0 0 1 92.178 4.493zM80.168 5.83h-.659a36.47 36.47 0 0 0 28.433 22.694v-.622A35.845 35.845 0 0 1 80.168 5.83zM68.035 5.83H67.4c5.308 18.416 21.322 32.125 40.542 34.351v-.612C89.056 37.353 73.316 23.905 68.035 5.83z" fill="#2E6EED"/>
        <path d="M53.502 32.084h-.366v-.366h-.071v.366h-.366v.071h.366v.366h.07v-.366h.367v-.071zM78.202 13.816h-.366v-.366h-.071v.366h-.367v.071h.367v.366h.07v-.366h.367v-.071zM57.116 46.538h-.365v-.366h-.072v.366h-.366v.071h.366v.366h.072v-.366h.365v-.072zM73.985 35.898h-.366v-.366h-.072v.366h-.366v.071h.367v.366h.07v-.366h.367v-.071zM98.082 42.523h-.366v-.366h-.071v.366h-.366v.071h.366v.366h.071v-.366h.366v-.071z" fill="#F2F2F2"/>
        <path d="M93.865 25.896a.803.803 0 1 0 0-1.606.803.803 0 0 0 0 1.606z" fill="#FF6584"/>
        <path d="m65.089 43.923-.456.07c.142.912.255 1.843.337 2.765l.46-.04a41.806 41.806 0 0 0-.341-2.795zM63.842 38.435l-.442.134c.267.884.506 1.79.709 2.69l.452-.102a41.075 41.075 0 0 0-.72-2.722zM61.852 33.171l-.42.193c.386.841.747 1.704 1.074 2.568l.432-.163a40.712 40.712 0 0 0-1.086-2.598zM59.16 28.237l-.389.247c.496.779.972 1.586 1.414 2.395l.405-.22a40.646 40.646 0 0 0-1.43-2.422zM55.815 23.714l-.351.3c.598.702 1.18 1.437 1.73 2.18l.37-.276a40.16 40.16 0 0 0-1.749-2.204zM51.883 19.687l-.307.343a40.48 40.48 0 0 1 2.012 1.926l.332-.323a40.524 40.524 0 0 0-2.037-1.946zM47.441 16.23l-.259.382a39.98 39.98 0 0 1 2.255 1.634l.286-.363a41.741 41.741 0 0 0-2.282-1.653zM43.399 13.83v.521c.48.251.956.514 1.422.783l.23-.4a41.945 41.945 0 0 0-1.652-.905zM64.984 87.285c.075-.448.144-.907.204-1.362l.458.06c-.061.46-.13.924-.206 1.378l-.456-.076zM63.697 92.701l.442.138c.276-.892.527-1.806.744-2.717l-.45-.106c-.215.9-.46 1.803-.736 2.685zM61.681 97.887l.419.196c.398-.844.771-1.715 1.11-2.586l-.432-.168a39.314 39.314 0 0 1-1.097 2.558zM58.968 102.752l.387.251c.51-.783 1-1.594 1.457-2.411l-.403-.226c-.45.808-.936 1.61-1.441 2.386zM55.61 107.196l.35.303a42.683 42.683 0 0 0 1.775-2.19l-.37-.277a40.33 40.33 0 0 1-1.754 2.164zM51.68 111.14l.304.347a41.51 41.51 0 0 0 2.056-1.926l-.326-.327a42.274 42.274 0 0 1-2.034 1.906zM47.251 114.51l.255.386a42.023 42.023 0 0 0 2.297-1.628l-.279-.369c-.736.561-1.5 1.103-2.273 1.611zM45.104 116.363a39.62 39.62 0 0 1-1.705.909v-.518c.498-.252.992-.519 1.476-.79l.229.399zM65.12 49.606l.461-.009c.009.466.01.935.002 1.393l-.461-.008c.007-.452.006-.916-.002-1.376z" fill="#E6E6E6"/>
        <path d="M45.427 60.552H92.66A13.255 13.255 0 0 1 105.914 73.8v1.754H58.681a13.256 13.256 0 0 1-9.372-3.88 13.247 13.247 0 0 1-3.882-9.37v-1.753z" fill="#fff"/>
        <path d="M76.774 141.631c-.046-.075-1.133-1.889-1.51-5.655-.345-3.456-.123-9.28 2.899-17.405 5.724-15.391-1.32-27.81-1.391-27.933l.347-.202c.018.031 1.836 3.198 2.91 8.24a35.933 35.933 0 0 1-1.49 20.035c-5.714 15.366-1.466 22.639-1.422 22.711l-.343.209z" fill="#F2F2F2"/>
        <path d="M74.536 89.734a2.61 2.61 0 1 0 0-5.22 2.61 2.61 0 0 0 0 5.22z" fill="#2E6EED"/>
        <path d="M82.769 99.37a2.61 2.61 0 1 0 0-5.22 2.61 2.61 0 0 0 0 5.22z" fill="#F2F2F2"/>
        <path d="M77.146 105.794a2.61 2.61 0 1 0 0-5.221 2.61 2.61 0 0 0 0 5.221zM83.974 111.214a2.61 2.61 0 1 0 0-5.221 2.61 2.61 0 0 0 0 5.221z" fill="#2E6EED"/>
        <path d="M75.138 119.645a2.61 2.61 0 1 0 .001-5.22 2.61 2.61 0 0 0 0 5.22zM78.351 141.727s-2.61-6.424 5.221-11.242l-5.221 11.242zM75.14 141.611s-1.188-6.832-10.383-6.773l10.383 6.773z" fill="#F2F2F2"/>
        <path opacity=".2" d="M64.747 84.113c8.873 0 16.065-7.19 16.065-16.06 0-8.87-7.192-16.06-16.065-16.06-8.872 0-16.065 7.19-16.065 16.06 0 8.87 7.193 16.06 16.065 16.06z" fill="#2E6EED"/>
        <path opacity=".2" d="M64.747 79.363c6.249 0 11.314-5.064 11.314-11.31s-5.065-11.31-11.314-11.31c-6.248 0-11.313 5.064-11.313 11.31s5.065 11.31 11.313 11.31z" fill="#2E6EED"/>
        <path d="M64.747 75.518a7.466 7.466 0 1 0 0-14.93 7.466 7.466 0 1 0 0 14.93z" fill="#2E6EED"/>
        <path d="M66.105 66.443a1.358 1.358 0 1 0-2.215 1.052l-.5 3.499h2.715l-.5-3.5a1.355 1.355 0 0 0 .5-1.05z" fill="#fff"/>
        <path d="M139.787 10.7s-4.478-4.014-10.501 3.55c-6.023 7.565-15.443 11.27-17.605 14.204 0 0 8.957-3.706 12.045-5.25 3.089-1.543 2.935-1.234 2.935-1.234s-4.17 2.933-4.942 5.866c-.772 2.933-.155 5.403-1.545 8.337-1.389 2.933 26.563 2.007 26.563 2.007s2.779-4.786 2.007-9.726c-.772-4.94-.309-17.137-8.957-17.754z" fill="#2F2E41"/>
        <path d="M131.316 23.327s.974 6.815-3.199 8.345c-4.174 1.53-2.644 3.616-2.644 3.616l6.261 3.06 6.678-2.087 2.226-3.338s-3.618-.834-2.644-3.337c.974-2.504 1.252-3.338 1.252-3.338l-7.93-2.92z" fill="#FFB9B9"/>
        <path opacity=".1" d="M131.316 23.327s.974 6.815-3.199 8.345c-4.174 1.53-2.644 3.616-2.644 3.616l6.261 3.06 6.678-2.087 2.226-3.338s-3.618-.834-2.644-3.337c.974-2.504 1.252-3.338 1.252-3.338l-7.93-2.92z" fill="#000"/>
        <path d="M148.846 42.798s-.974 12.795-.696 13.351c.278.556 0 19.888 0 19.888s1.948 10.43-.556 10.987c-2.505.556-1.948-11.683-1.948-11.683l-2.504-16.132.278-15.994 5.426-.417z" fill="#FFB9B9"/>
        <path opacity=".1" d="M148.846 42.798s-.974 12.795-.696 13.351c.278.556 0 19.888 0 19.888s1.948 10.43-.556 10.987c-2.505.556-1.948-11.683-1.948-11.683l-2.504-16.132.278-15.994 5.426-.417z" fill="#000"/>
        <path d="M121.717 81.322s-4.591 17.384-4.452 25.868c.139 8.483 1.948 20.305 1.948 20.305s.278 5.146-.139 5.702c-.418.556 2.087 2.92 2.087 2.92l2.643-1.529.974-1.113v-.973s-1.531-4.729-.278-8.484c1.252-3.755 1.947-13.212.695-16.133l8.626-25.59-12.104-.973z" fill="#FFB9B9"/>
        <path d="M121.439 133.892s-1.67-2.086-2.783-1.39c-1.113.695-2.921 5.423-2.921 5.423s-6.261 5.981-1.809 6.259c4.452.278 6.4-1.252 6.956-2.364.557-1.113 5.704-4.034 5.704-4.034s-.556-5.284-1.391-5.424c-.835-.139-2.087 2.087-2.087 2.087l-1.669-.557z" fill="#2F2E41"/>
        <path d="M136.881 82.434V99.68c.016 2.092.156 4.182.418 6.258.417 3.06-2.365 25.868-2.365 25.868l.278 4.033 3.478-.278.417-3.477 5.009-15.298s1.669-9.318.834-12.795c-.834-3.477 4.313-25.729 4.313-25.729l-12.382 4.172z" fill="#FFB9B9"/>
        <path d="m134.099 134.866 1.03-.224s.778-1.723 1.752-1.306c.686.316 1.335.705 1.937 1.16l.428.787s.974 2.086 2.226 3.477 2.644 4.45.557 4.729c-2.087.278-4.869.417-5.704-.279-.835-.695-.278-1.808-1.113-2.086-.835-.278-1.53-1.112-1.391-1.391.139-.278.278-4.867.278-4.867z" fill="#2F2E41"/>
        <path d="M136.881 28.117a6.182 6.182 0 1 0 0-12.362 6.182 6.182 0 1 0 0 12.362z" fill="#FFB9B9"/>
        <path d="m125.195 32.784 1.838-.641s-.725 1.198 3.17 1.893c3.896.695 7.93.942 9.739-1.337 0 0 .696-.332 1.669.642.974.973 1.531.695 1.531.695l-.696 3.616-1.391 6.676-1.809 5.006-5.147-1.112-5.565-4.034-2.087-5.423v-5.007l-1.252-.974z" fill="#2E6EED"/>
        <path d="m142.168 34.731 1.391-.973s4.73.834 5.009 3.06l-3.618 6.953a7.913 7.913 0 0 1-.139 5.98c-1.391 3.2-1.252 3.895-1.252 3.895l-.974 4.172-17.668 1.39s-.696-1.668-.974-1.946c-.278-.279-.278-1.252 0-1.252s0-.417-.278-.834c-.278-.418-.418-.557 0-1.113.417-.556-.696-5.563-.696-5.563v-5.424l-4.73-6.258s1.67-2.504 2.504-2.782c.835-.278 4.806-1.375 4.806-1.375l.898 1.322 1.252 10.067 1.809 6.119 7.615-1.294 2.958-4.965 1.948-5.84.139-3.339z" fill="#2E6EED"/>
        <path d="m147.455 35.983 1.113.835s.973 7.788.695 8.344c-.278.556-5.147 1.113-5.286.834-.14-.278 3.478-10.013 3.478-10.013z" fill="#2E6EED"/>
        <path d="m124.499 32.089 1.392 9.179s-1.252 13.63-.974 16.41l.278.835s-.556-.278-.696.279c-.139.556 0 2.364 0 2.364s-.834.834-1.113 5.424c-.278 4.59-3.617 15.576-2.365 15.993 1.253.418 8.765 2.504 12.8 2.087 4.034-.418 18.503-5.285 18.364-6.537-.14-1.252-7.096-18.914-7.096-18.914s-1.252-2.086-1.252-2.365c0-.278 1.67-1.39 1.252-2.503-.417-1.113-2.643-12.795-2.643-12.795l1.53-8.344-2.086-.557-1.531 8.067s-5.982 2.92-12.242.278l-1.392-9.457-2.226.556zM131.193 17.5s10.295 7.093 13.077 3.895c2.783-3.2-4.869-5.98-4.869-5.98l-6.399-.696-1.809 2.781z" fill="#2F2E41"/>
        <path d="M115.197 92.954a5.43 5.43 0 0 0 7.152-.59 5.424 5.424 0 0 0-2.991-9.11 5.428 5.428 0 0 0-5.863 7.588l-14.2 11.818-1.89-2.243-.85.568-.944-1.122.776-.654-.945-1.121-1.208 1.017.582.69-1.295 1.091-.582-.69-1.898 1.599.872 1.035.69-.581.946 1.121-.863.727 1.745 2.07-2.071 1.745 2.109 2.502 20.728-17.46zm3.545-7.928a3.594 3.594 0 0 1 3.117 2.49 3.587 3.587 0 0 1-3.024 4.654 3.593 3.593 0 0 1-3.976-3.873 3.59 3.59 0 0 1 3.883-3.27z" fill="#2E6EED"/>
        <path d="M117.265 44.467s.974 12.795.696 13.35c-.278.557 0 19.889 0 19.889s-1.948 10.43.556 10.987c2.504.556 1.948-11.683 1.948-11.683l2.504-16.132-.278-15.994-5.426-.417z" fill="#FFB9B9"/>
        <path d="m119.352 36.4-1.113.418s-2.087 8.761-1.53 8.761c.556 0 7.234.835 7.234.557 0-.279-1.252-7.093-1.252-7.093l-3.339-2.643z" fill="#2E6EED"/>
    </g>
    <defs>
        <clipPath id="a">
            <path fill="#fff" d="M0 0h203v146H0z"/>
        </clipPath>
    </defs>
</svg>
