<svg xmlns="http://www.w3.org/2000/svg" width="202" height="146" fill="none" viewBox="0 0 202 146">
    <g clip-path="url(#clip0)">
        <path fill="#2E6EED" d="M92.452 144.158c47.961-2.63 86.709-7.11 86.547-10.007-.163-2.897-39.173-3.114-87.134-.484-47.96 2.629-86.708 7.109-86.546 10.006.162 2.897 39.173 3.114 87.133.485zM2.18 75.333c3.198 13 9.964 24.237 20.658 29.681 22.224 11.321 72.343 5.483 109.749-1.22 19.344-3.461 36.353-13.024 48.708-26.493L2.181 75.333zM198.337 14.142h-20.526c-.229.007-.457-.03-.67-.112-.214-.082-.408-.205-.573-.362-.164-.158-.295-.346-.384-.555-.089-.208-.135-.432-.135-.659 0-.226.046-.45.135-.659.089-.208.22-.397.384-.554.165-.158.359-.281.573-.362.213-.082.441-.12.67-.113h3.546c-.228.008-.456-.03-.67-.112-.213-.082-.408-.205-.572-.362-.164-.158-.295-.346-.384-.555-.09-.208-.136-.432-.136-.659 0-.226.046-.45.136-.659.089-.208.22-.397.384-.554.164-.158.359-.28.572-.362.214-.082.442-.12.67-.112h-2.533c-.229.007-.457-.031-.67-.113-.214-.081-.408-.204-.573-.362-.164-.157-.295-.346-.384-.554-.089-.209-.135-.433-.135-.66 0-.226.046-.45.135-.658.089-.209.22-.397.384-.555.165-.157.359-.28.573-.362.213-.081.441-.12.67-.112h10.712c-2.379-1.052-5.149-1.8-8.366-2.191-29.197-3.572-39.625-1.21-43.305 1.22-4.547 2.996-9.603 5.2-15.012 6.262-18.024 3.538-51.727 7.794-82.273-1.363C25.4 3.392 14.112 11.083 7.348 23.936h194.554c-.255-3.736-1.015-7.187-2.412-10.204-.325.264-.732.41-1.153.41zM125.181 55.144l-.267-.016-2.794-.157-26.764-1.489-2.892-.162-42.621-2.37-11.946-.667-1.89-.105-1.678-.093L.44 48.2c-.79 7.562-.522 15.195.797 22.684l28.516.993 2.26.08.4.013 13.538.466.727.024 1.56.054 13.642.475 1.87.067 6.514.227h.124l.958.034 3.265.113 2.864.1 5.457.188h.114l.486.018.516.018h.113l8.697.303 2.438.086h.101l1.173.04.219.009h.087l1.031.036 3.148.11 1.183.041 1.518.052h.057l2.084.074 6.027.21 1.659.057h.182l8.035.279 4.667.162 5.807.203.932.032 1.504.053 5.467.189 41.24 1.44c4.994-5.46 9.206-11.574 12.519-18.17l-68.755-3.816zm-77.54 12.602c-.434.002-.854-.152-1.183-.432-.15-.127-.276-.278-.374-.448-.142-.246-.216-.524-.217-.806 0-.33.102-.652.293-.922.059-.083.125-.16.196-.233.169-.167.369-.3.59-.39.22-.09.456-.136.695-.135h3.546c-.23.01-.461-.025-.677-.106-.217-.08-.414-.203-.581-.36-.167-.158-.3-.348-.39-.558-.092-.21-.139-.436-.139-.665 0-.229.047-.455.138-.665.09-.21.224-.4.39-.558.168-.158.365-.28.582-.36.216-.08.446-.116.677-.106h-2.533c-.056.003-.11.003-.166 0-.451-.022-.875-.22-1.178-.55-.304-.332-.462-.769-.44-1.215.022-.447.222-.866.557-1.166.334-.3.776-.457 1.227-.435h20.522c.23-.011.46.025.677.105.216.08.413.202.58.36.167.158.3.347.39.557.091.21.138.436.138.664 0 .229-.047.455-.137.665-.091.21-.224.4-.39.557-.168.158-.365.28-.581.36-.216.08-.446.116-.677.105h2.534c.23-.01.461.026.677.106.216.08.414.203.581.36.167.158.3.348.39.558.092.21.138.437.138.665 0 .229-.046.455-.137.665-.091.21-.224.4-.39.558-.168.158-.365.28-.582.36-.216.08-.447.116-.677.106h-3.547c.23-.01.46.025.677.105.216.08.413.203.58.36.167.158.3.348.39.558.091.21.138.436.138.664 0 .228-.047.454-.137.664-.091.21-.224.4-.39.557-.168.158-.365.28-.581.36-.216.08-.446.116-.677.106l-20.522-.014zM201.909 24.055L60.344 27.33l-15.559.36-39.607.916C2.783 34.461 1.197 41.08.468 47.942h197.994c1.29-4.024 2.246-8.145 2.858-12.323.589-4.035.827-7.933.589-11.564zM40.404 38.975h-3.547c.46-.008.906.165 1.238.481.332.316.525.75.535 1.206v.102c-.018.263-.1.518-.236.744-.137.226-.326.417-.551.558-.293.186-.634.284-.982.284H16.338c-.229.008-.457-.03-.67-.112-.213-.081-.408-.205-.572-.362-.165-.157-.295-.346-.385-.555-.089-.208-.135-.432-.135-.658 0-.227.046-.451.135-.66.09-.208.22-.397.385-.554.164-.157.359-.28.572-.362.214-.082.441-.12.67-.112h3.548c-.228.007-.456-.031-.67-.113-.213-.081-.408-.204-.572-.362-.164-.157-.295-.346-.384-.554-.09-.209-.135-.433-.135-.66 0-.226.046-.45.135-.658.09-.209.22-.397.384-.555.164-.157.36-.28.573-.362.213-.081.44-.12.67-.112h-2.534c-.229.007-.457-.03-.67-.112-.213-.082-.408-.205-.572-.363-.165-.157-.296-.346-.385-.554-.089-.208-.135-.432-.135-.659 0-.226.046-.45.135-.659.09-.208.22-.397.385-.554.164-.158.359-.281.572-.362.213-.082.441-.12.67-.113h20.523c.228-.007.456.031.67.113.213.081.407.204.572.362.164.157.295.346.384.554.09.209.135.433.135.659 0 .227-.046.45-.135.659-.09.209-.22.397-.384.554-.165.158-.36.281-.573.363-.213.081-.44.12-.67.112h2.534c.294 0 .583.07.842.205.278.139.511.35.675.612.165.261.253.562.256.87-.01.456-.203.89-.535 1.206-.332.316-.777.49-1.238.483h-.005z" opacity=".1"/>
        <g opacity=".1">
            <path stroke="#535461" stroke-miterlimit="10" stroke-width="2" d="M107.399 104.004s5.193-12.176 14.889-16.693c4.07-1.896 7.435-4.935 9.497-8.773.97-1.82 1.766-3.725 2.375-5.691" opacity=".1"/>
            <path fill="#2E6EED" d="M140.257 69.966c-1.01 1.21-6.242 2.975-6.242 2.975s.631-5.249 1.637-6.457c.5-.583 1.207-.955 1.976-1.038.768-.084 1.54.127 2.156.59.3.221.552.5.74.821.187.32.307.676.351 1.043.045.368.013.741-.094 1.096-.106.356-.285.686-.524.97zM138.462 79.543c-1.539.491-6.939-.733-6.939-.733s3.527-4.078 5.065-4.571c1.539-.494 3.207.297 3.723 1.76.121.353.168.726.14 1.097-.029.371-.132.733-.305 1.063-.172.331-.411.624-.7.862-.289.237-.624.415-.984.522zM128.73 90.862c-1.59-.314-5.602-3.961-5.602-3.961s5.212-1.831 6.798-1.51c.371.064.725.202 1.042.405.316.202.589.465.801.773.212.308.36.655.435 1.02.075.366.075.743.001 1.109-.329 1.506-1.886 2.479-3.475 2.164zM119.339 97.849c-1.622-.054-6.225-3.007-6.225-3.007s4.809-2.64 6.431-2.585c1.622.054 2.892 1.35 2.835 2.893-.056 1.543-1.418 2.753-3.041 2.699zM126.498 75.39c.207 1.531 3.723 5.618 3.723 5.618s2.315-4.801 2.108-6.334c-.207-1.532-1.681-2.614-3.292-2.418-1.611.197-2.746 1.601-2.539 3.133zM115.624 83.692c.68 1.403 5.32 4.302 5.32 4.302s.7-5.241.02-6.644c-.349-.68-.948-1.2-1.674-1.454-.727-.254-1.524-.22-2.226.093-.345.144-.657.355-.917.621-.261.266-.464.582-.599.927-.134.346-.197.715-.184 1.086.013.37.101.734.26 1.07zM106.219 93.143c.42 1.492 4.48 5.095 4.48 5.095s1.62-5.052 1.198-6.545c-.422-1.492-2.031-2.378-3.601-1.98-.367.085-.712.242-1.017.462-.304.22-.56.498-.754.818-.194.32-.321.675-.373 1.044-.053.37-.03.745.067 1.106z" opacity=".1"/>
            <path fill="#000" d="M140.257 69.966c-1.01 1.21-6.242 2.975-6.242 2.975s.631-5.249 1.637-6.457c.5-.583 1.207-.955 1.976-1.038.768-.084 1.54.127 2.156.59.3.221.552.5.74.821.187.32.307.676.351 1.043.045.368.013.741-.094 1.096-.106.356-.285.686-.524.97zM138.462 79.543c-1.539.491-6.939-.733-6.939-.733s3.527-4.078 5.065-4.571c1.539-.494 3.207.297 3.723 1.76.121.353.168.726.14 1.097-.029.371-.132.733-.305 1.063-.172.331-.411.624-.7.862-.289.237-.624.415-.984.522zM128.73 90.862c-1.59-.314-5.602-3.961-5.602-3.961s5.212-1.831 6.798-1.51c.371.064.725.202 1.042.405.316.202.589.465.801.773.212.308.36.655.435 1.02.075.366.075.743.001 1.109-.329 1.506-1.886 2.479-3.475 2.164zM119.339 97.849c-1.622-.054-6.225-3.007-6.225-3.007s4.809-2.64 6.431-2.585c1.622.054 2.892 1.35 2.835 2.893-.056 1.543-1.418 2.753-3.041 2.699zM126.498 75.39c.207 1.531 3.723 5.618 3.723 5.618s2.315-4.801 2.108-6.334c-.207-1.532-1.681-2.614-3.292-2.418-1.611.197-2.746 1.601-2.539 3.133zM115.624 83.692c.68 1.403 5.32 4.302 5.32 4.302s.7-5.241.02-6.644c-.349-.68-.948-1.2-1.674-1.454-.727-.254-1.524-.22-2.226.093-.345.144-.657.355-.917.621-.261.266-.464.582-.599.927-.134.346-.197.715-.184 1.086.013.37.101.734.26 1.07zM106.219 93.143c.42 1.492 4.48 5.095 4.48 5.095s1.62-5.052 1.198-6.545c-.422-1.492-2.031-2.378-3.601-1.98-.367.085-.712.242-1.017.462-.304.22-.56.498-.754.818-.194.32-.321.675-.373 1.044-.053.37-.03.745.067 1.106z" opacity=".25"/>
        </g>
        <g opacity=".1">
            <path stroke="#535461" stroke-miterlimit="10" stroke-width="2" d="M111.286 85.57s.655-13.126 8.228-20.447c3.179-3.073 5.294-7.001 5.902-11.274.283-2.027.371-4.077.262-6.121" opacity=".1"/>
            <path fill="#2E6EED" d="M130.423 43.081c-.533 1.459-4.854 4.775-4.854 4.775s-1.23-5.135-.702-6.602c.527-1.467 2.208-2.233 3.741-1.725.358.11.69.29.976.53.287.24.521.535.691.866.169.331.269.693.295 1.063.025.37-.025.742-.147 1.093zM132.065 52.688c-1.273.95-6.8 1.5-6.8 1.5s1.904-4.962 3.185-5.91c.619-.458 1.393-.663 2.161-.572.768.09 1.471.469 1.965 1.057.237.287.412.619.515.975.103.356.131.73.083 1.097s-.171.72-.361 1.04c-.191.318-.445.595-.748.813zM126.829 66.44c-1.61.205-6.668-1.981-6.668-1.981s4.278-3.369 5.886-3.572c1.608-.203 3.092.87 3.305 2.4.212 1.53-.915 2.947-2.523 3.152zM120.403 75.994c-1.549.46-6.92-.873-6.92-.873s3.618-4.006 5.167-4.467c1.55-.46 3.197.36 3.683 1.835.112.355.151.73.114 1.1-.037.37-.149.73-.329 1.057-.18.327-.425.614-.719.846-.295.232-.633.402-.996.502zM119.33 52.546c.728 1.379 5.471 4.125 5.471 4.125s.511-5.26-.218-6.64c-.37-.67-.987-1.173-1.722-1.404-.735-.231-1.532-.173-2.225.163-.341.155-.646.377-.898.652-.252.276-.444.599-.566.95-.122.35-.171.722-.144 1.093.027.37.13.731.302 1.06zM111.972 63.81c1.129 1.11 6.516 2.38 6.516 2.38s-1.166-5.164-2.295-6.273c-.554-.535-1.293-.839-2.067-.85-.773-.012-1.521.27-2.091.788-.276.25-.497.553-.651.891-.154.338-.236.703-.242 1.074-.006.37.065.737.207 1.08.143.342.355.652.623.91zM106.386 75.693c.91 1.275 6.002 3.394 6.002 3.394s-.234-5.277-1.144-6.553c-.459-.615-1.138-1.033-1.898-1.167-.761-.134-1.544.026-2.189.447-.315.198-.586.458-.796.763-.211.306-.357.65-.429 1.013-.072.363-.069.736.009 1.098.078.361.23.703.445 1.005z" opacity=".1"/>
        </g>
        <path fill="#2E6EED" d="M72.852 124.242c1.813 0 3.283-.2 3.283-.446 0-.247-1.47-.447-3.283-.447s-3.283.2-3.283.447c0 .246 1.47.446 3.283.446zM60.277 125.504c1.813 0 3.283-.199 3.283-.446s-1.47-.447-3.283-.447-3.283.2-3.283.447 1.47.446 3.283.446zM45.465 123.796c1.813 0 3.283-.2 3.283-.447 0-.246-1.47-.446-3.283-.446s-3.283.2-3.283.446c0 .247 1.47.447 3.283.447zM65.31 128.968c1.288 0 2.333-.142 2.333-.317 0-.175-1.045-.316-2.333-.316-1.29 0-2.334.141-2.334.316 0 .175 1.045.317 2.334.317zM52.258 128.652c1.289 0 2.334-.142 2.334-.317 0-.175-1.045-.317-2.334-.317-1.289 0-2.333.142-2.333.317 0 .175 1.044.317 2.333.317z" opacity=".1"/>
        <path fill="#2E6EED" d="M60.206 124.957s4.603-14.943-.727-20.924c-3.983-4.476-8.505-3.941-10.529-3.386-.524.137-1.01.385-1.428.727-.417.342-.754.769-.987 1.253-.708 1.512-.58 3.961 4.416 6.831 8.366 4.794 8.888 11.373 8.888 11.373l.367 4.126z"/>
        <path stroke="#565987" stroke-miterlimit="10" d="M49.678 102.766s13.571 4.2 10.528 22.191M57.604 104.271s-1.868 1.248-1.273 3.12M51.043 105.374s1.142-1.15 2.532-.514M56.403 111.166s2-1.008 2.525.254M61.367 113.267s-1.506-.119-1.534.594"/>
        <path fill="#2E6EED" d="M60.392 125.076S55 114.218 53.519 114.454c-.702.113-1.028.797-1.173 1.487-.182.89-.08 1.813.292 2.643.77 1.734 2.821 5.039 7.754 6.492z"/>
        <path stroke="#565987" stroke-miterlimit="10" d="M53.559 116.517s5.669 8.121 6.76 8.482M53.038 117.784h1.32M54.62 120.757l2.072.089M55.881 118.379l-.225 1.067M58.084 121.628l-.04.971"/>
        <path fill="#2E6EED" d="M60.232 125.076s5.392-10.858 6.875-10.622c.702.113 1.027.797 1.173 1.487.182.89.08 1.813-.293 2.643-.757 1.734-2.821 5.039-7.755 6.492z"/>
        <path stroke="#565987" stroke-miterlimit="10" d="M67.065 116.517s-5.655 8.121-6.746 8.482M67.585 117.784h-1.32M66.003 120.757l-2.07.089M64.744 118.379l.224 1.067M62.541 121.628l.04.971"/>
        <path fill="#2E6EED" d="M50.974 127.613c-.147-.119-.254-.279-.307-.459-.024-.091-.016-.186.023-.271.04-.085.107-.154.192-.196.196-.075.407.06.567.197.16.136.342.291.546.262-.108-.096-.188-.218-.234-.355-.045-.136-.055-.282-.027-.422.01-.058.035-.112.073-.157.11-.117.308-.067.438.025.417.29.533.85.535 1.352.021-.185.021-.371 0-.556-.008-.093.007-.187.044-.273.038-.086.096-.162.17-.22.098-.054.209-.08.321-.076.093-.013.188-.007.278.019.09.025.174.069.246.129.069.093.104.206.1.321-.003.115-.046.226-.12.314-.156.174-.34.319-.546.431-.155.089-.287.212-.387.36-.013.02-.023.042-.03.064h-1.172c-.257-.132-.496-.296-.71-.489zM71.52 123.24c-.146-.119-.253-.279-.307-.459-.024-.091-.015-.186.024-.271.039-.085.106-.154.191-.196.196-.075.407.06.567.196.16.137.342.292.546.263-.108-.096-.188-.218-.234-.355-.045-.136-.054-.282-.026-.422.01-.058.035-.112.073-.157.109-.117.307-.067.438.025.416.29.533.85.535 1.352.02-.185.02-.371 0-.556-.008-.093.007-.187.043-.273.037-.086.095-.161.168-.22.099-.054.21-.08.324-.076.092-.013.187-.007.277.019.09.025.174.069.246.129.069.093.104.206.1.321-.004.115-.047.226-.122.314-.155.174-.34.32-.545.43-.155.09-.287.213-.386.361-.012.02-.022.042-.029.064H72.23c-.257-.131-.496-.296-.71-.489zM64.673 127.613c-.147-.119-.254-.279-.307-.459-.024-.091-.016-.186.023-.271.04-.085.107-.154.191-.196.197-.075.408.06.568.197.16.136.342.291.545.262-.107-.096-.188-.218-.233-.355-.046-.136-.055-.282-.027-.422.01-.058.035-.112.073-.157.11-.117.308-.067.438.025.417.29.533.85.535 1.352.021-.185.021-.371 0-.556-.008-.093.007-.187.044-.273.037-.086.094-.161.167-.22.1-.054.211-.08.324-.076.093-.013.187-.007.278.019.09.025.174.069.246.129.068.093.104.206.1.321-.004.115-.047.226-.122.314-.155.174-.34.32-.546.431-.154.089-.286.212-.385.36-.013.02-.023.042-.03.064h-1.173c-.257-.131-.495-.296-.709-.489zM45.252 118.773s-.44.569.204 1.428c.644.858 1.173 1.586.959 2.12 0 0-.97-1.595-1.76-1.62-.792-.025-.27-.969.597-1.928z"/>
        <path fill="#000" d="M45.252 118.773c-.038.055-.068.116-.089.18-.77.9-1.18 1.732-.44 1.752.69.019 1.517 1.24 1.715 1.55 0 .023-.014.047-.023.068-.01.022-.97-1.595-1.76-1.62-.792-.025-.27-.971.597-1.93z" opacity=".1"/>
        <path fill="#FFD037" d="M44.436 119.498c0 .2.022.36.049.36.027 0 .05-.162.05-.36 0-.198-.026-.106-.055-.106-.03 0-.044-.095-.044.106z"/>
        <path fill="#FFD037" d="M44.154 119.738c.182.095.333.153.347.128.015-.026-.12-.121-.298-.216-.178-.096-.107-.027-.122 0-.014.027-.104-.009.073.088z"/>
        <path fill="#2E6EED" d="M47.577 118.773s.438.569-.204 1.428c-.642.858-1.173 1.586-.958 2.12 0 0 .969-1.595 1.758-1.62.79-.025.271-.969-.596-1.928z"/>
        <path fill="#000" d="M47.577 118.773c.038.056.068.116.089.18.77.9 1.18 1.732.44 1.752-.69.019-1.517 1.24-1.715 1.55 0 .023.015.047.024.068.009.022.969-1.595 1.758-1.62.79-.025.271-.971-.596-1.93z" opacity=".1"/>
        <path fill="#FFD037" d="M48.393 119.498c0 .2-.021.36-.05.36-.03 0-.051-.162-.051-.36 0-.198.029-.106.056-.106s.045-.095.045.106z"/>
        <path fill="#FFD037" d="M48.679 119.738c-.182.095-.333.153-.346.128-.012-.026.12-.121.299-.216.178-.096.107-.027.12 0 .012.027.109-.009-.073.088z"/>
        <path fill="#A8A8A8" d="M48.253 122.248s-1.23-.038-1.6-.299c-.371-.261-1.892-.573-1.983-.153-.09.419-1.85 2.083-.46 2.094 1.39.01 3.227-.215 3.596-.438.37-.223.447-1.204.447-1.204z"/>
        <path fill="#000" d="M44.185 123.738c1.39.011 3.226-.214 3.596-.437.281-.169.394-.78.432-1.061h.04s-.078.982-.447 1.205c-.37.223-2.208.448-3.596.437-.402 0-.545-.144-.533-.36.057.141.21.216.508.216z" opacity=".2"/>
        <path fill="#2E6EED" d="M36.893 101.465l-.001-.001c-.266-.838-1.167-1.304-2.013-1.041L31.09 101.6c-.847.263-1.317 1.156-1.052 1.993l.001.002c.266.838 1.167 1.304 2.013 1.041l3.788-1.178c.847-.263 1.317-1.155 1.052-1.993z"/>
        <path fill="url(#paint0_linear)" d="M122.884 53.33s-.564-4.268-3.592-4.358c-3.028-.09.475 5.295.831 5.781.209.283.042 1.07-.131 1.676-.128.437-.232.88-.311 1.327-.081.565-.317 1.096-.684 1.536-.508.607-.919 1.289-1.218 2.02 0 0-.891.038-1.217-.18-.325-.218-2.404-.969-2.493-.848-.02.025-.077.036-.155.034-.122-.006-.244-.021-.364-.045-.016-.1-.034-.202-.06-.306 0 0-.256-.11-.545-.265v-.018c.067-.169.111-.35.182-.516v-.015c.048-.125.127-.237.231-.324.278-.221.68-.146 1.016-.255.038-.013.075-.027.111-.044l.04-.023.062-.034.044-.03.049-.037.043-.038c.013-.014.027-.027.042-.04l.038-.044.039-.044.034-.048c.011-.016.024-.03.033-.047.009-.016.022-.034.031-.052l.029-.052.027-.054.024-.056c.009-.019.017-.038.024-.058 0-.018.012-.038.02-.057.007-.02.01-.04.018-.06.007-.02 0-.038.014-.06l.015-.06.011-.06c0-.021 0-.043.009-.065.009-.021 0-.037 0-.055v-.121V57.132v-.017c-.007-.074-.019-.147-.035-.22-.083-.36-.249-.747-.134-1.069l.014-.036c.015-.036.033-.07.055-.102.076-.108.181-.193.302-.247.105-.054.222-.096.331-.14.406-.148.768-.396 1.051-.72.194-.234.319-.516.364-.814.021-.136.021-.274 0-.41v-.037c-.078-.234-.133-.475-.164-.72-.001-.096.013-.191.042-.283.014-.043.031-.086.049-.13l.014-.03c.02-.041.042-.083.064-.122l.013-.022.071-.112.016-.023c.026-.04.055-.08.082-.119.067-.095.138-.189.204-.286.031-.045.06-.092.087-.139.027-.048.053-.095.076-.144v-.023c.023-.05.043-.102.06-.155l.017-.052c.016-.06.031-.117.042-.18v-.044c0-.053.014-.107.018-.161v-.04-.19-.048c0-.063 0-.128-.013-.19-.024-.227-.064-.451-.12-.672-.078-.322-.216-.692-.533-.778-.165-.024-.333-.017-.495.022-.517.039-1.033-.09-1.469-.37-.435-.28-.852-.587-1.246-.921-.276-.214-.618-.427-.949-.32-.117.047-.229.104-.337.169-.023.01-.048.016-.073.021-.115.021-.232.031-.349.029h-.033c-.1-.317-.207-.63-.327-.94-.304-.787-.691-1.577-1.348-2.095-.383-.277-.801-.503-1.244-.672-1.333-.576-2.799-1.161-4.183-.749-.613.18-1.156.54-1.689.9l-2.236 1.51-.167-.05c-.327-.093-.666-.15-.862-.214l-.035-.01c-.629-.233-1.258-.742-1.273-1.427 0-.105.01-.211.031-.315.054-.217.123-.43.206-.639.045-.122.083-.246.122-.37l.036-.134c.022-.08.042-.158.062-.238l.038-.18c.014-.064.025-.127.038-.192.013-.065.026-.137.035-.206 0-.03 0-.063.014-.095.028-.196.048-.392.059-.589 0-.104 0-.209.01-.315v-.045-.318c-.037-1.394-.472-2.748-1.254-3.907-.15.299-.234.626-.246.96.004.062-.009.124-.036.18-.022.023-.047.042-.076.056-.029.013-.06.02-.091.022-.032.002-.064-.004-.094-.015-.03-.01-.056-.027-.08-.05-.09-.091-.175-.189-.254-.29-.099-.097-.227-.157-.364-.174-.137-.016-.276.013-.395.083-.116.079-.205.191-.255.321-.05.13-.058.273-.023.408-.45-.22-.951-.32-1.453-.289-.502.032-.986.194-1.404.47-.24.134-.416.357-.493.619-.034.172-.004.35.085.502.155.299.455.569.652.875-.826 1.028-1.19 2.542-1.19 2.542l-.16.198c-.372.228-.717.498-1.026.805-.223.241-.41.572-.342.9l-2.775 3.448s-2.97 4.01-3.274 4.917c-.062.18-1.273 1.573.562 3.267 1.835 1.695 2.197 1.876 2.465 2.453.156.336 1.353.95 2.322 1.402l.338.157c-.078.997.392 2.16 1.808 3.5.03.158.044.32.042.48 0 1.18.535 3.133.535 3.133s.756 1.18-.222 1.952c-.979.772-1.199 1.217-.597 1.843l.019.018-.09 1.772h-.261s-2.365 1.633-2.856 2.587c-.491.954-1.378 3.5-1.378 3.5s-.182 2.45-.446 2.814c-.264.364 0 1.861 0 1.861s-.046 2.316.533 2.861c.578.546.402 1.907.402 1.907.013.295.047.59.102.88-.62-.18-1.717-.299-1.907 1.118-.161 1.073-.206 2.16-.132 3.24 0 0-.535 2.383-.935 3.061-.4.68-1.248 6.705 2.515 5.675 0 0 .566-.16.91-.925.142-.151.273-.312.39-.483-.014 1.176.314 2.17 1.472 1.927 0 0 .666-.146.966-1.532.6-.583 1.148-1.216 1.637-1.892l1.075-2.654.081-.204 1-1.062c1.66.514 3.365.869 5.093 1.059.508.053 1.018.076 1.528.068.886.016 1.77-.066 2.637-.246 1.623.223 4.452.406 6.831-.503 3.562-1.36 1.113-4.359.49-4.994-.624-.636-2.592-2.52-2.75-2.668v-.011s.363-10.896-.402-11.213c-.766-.317-3.294-2.997-3.294-2.997l.267-1.725s1.246.137 1.292-.954c.045-1.091 0-2.724 0-2.724l1.637-2.906s1.982-1.165 2.882-1.56c.048.031.098.064.155.094.978.555 3.074 1.163 3.805 1.027.98-.18 2.939.243 4.183.36 1.244.117 1.819-1.118 1.691-1.26-.127-.143.506-1.533.506-1.533s1.188-5.69.92-6.598c-.267-.908.171-2.526.171-2.526zm-31.98 36.516c.103.05.21.1.321.148.584.24 1.18.45 1.786.626l1.113.409s-1.677.04-2.513.081c-.396-.075-.767-.245-1.08-.495.06-.282.189-.545.372-.769zm16.817-31.795c-.02-.053-.038-.111-.054-.169.152-.038.302-.08.451-.13-.1.114-.222.25-.364.395-.011-.032-.024-.063-.033-.096zm-18.733-4.5s.795-1.94 1.406-3.268c.024.107.051.213.082.319-.026 0-.022-.03.083.243v.014c.32.826.91 1.522 1.674 1.98.249.15.515.272.793.36v-.027-.052-.032c.002-.017.002-.034 0-.05l-.011-.026c-.008-.017-.017-.034-.028-.05l-.016-.018c-.007-.011-.015-.02-.025-.029.123.077.249.151.374.227.028.014.053.032.08.048.13.074.259.145.39.215l.094.054c.155.08.313.16.471.236l.024.01.196.09.31.139c.098.054.211.076.323.063.073-.02.14-.056.197-.104l.06-.045c.376-.278.856-.35 1.285-.528.43-.178.857-.553.83-1.026-.02-.154-.073-.301-.155-.433-.082-.131-.192-.244-.322-.33-.245-.18-.529-.314-.778-.494-.46-.335-.78-.963-.635-1.485.011-.039.024-.077.04-.114l.011-.027c.015-.03.031-.06.05-.091 0-.01.01-.02.017-.031.06-.085.129-.162.208-.229.103-.085.21-.164.323-.237l2.194-1.464c.165-.112.33-.221.502-.324.146-.09.298-.171.453-.245.045-.02.09-.041.138-.06l.09-.037c.083-.03.165-.06.25-.085.045-.01.107-.021.182-.032-.243.724-.557 1.423-.937 2.087-.072.116-.13.241-.17.372-.012.036-.019.074-.02.112-.002.161.033.321.101.468.127.338.182.59.471.792.077.054.147.105.21.157 0 .054-.017.108-.024.162-.032.267-.047.536-.048.805-.002 1.402.443 2.769 1.274 3.904l-.073.081c-.391.452-.842.848-1.34 1.18-.059.036-.117.07-.183.102-.09-.143-.16-.297-.212-.459-.14.051-.293.047-.429-.012-.136-.06-.243-.169-.299-.304-.258-.501-1.06 0-1.06 0s-1.819-1.045-1.913-.591c-.019.07-.054.136-.104.19l-.108-.1s-.418.137-1.005.403c-.26-.054-.491-.197-.655-.403-.182-.234-.135.112-.02.735l-.014.009-.213-.078c-1.257-.457-4.247-1.646-4.387-2.647l-.002.01zm20.537 4.53c-.081-.255-.478-.453-.774-.57 1.502-.693 2.683-1.925 3.304-3.447.028-.067.053-.135.078-.204.053-.012.106-.021.157-.038.109-.022.212-.067.302-.132s.164-.15.218-.246c.034-.091.052-.188.053-.286.014-.218.023-.436.029-.654v-.03c.032-1.336-.103-2.67-.402-3.973l.196.16c.077.063.153.126.228.19.074.065.129.118.182.18l.029.03c.058.057.114.116.167.18.007.007.013.015.018.023.048.057.092.118.133.18l.045.07c.036.055.068.115.099.18l.018.036c.028.064.052.128.073.195l.016.045c.016.057.029.115.042.18 0 .027.013.052.018.079.011.061.018.124.025.189v.068c0 .06.01.12.013.18.004.06 0 .078 0 .116.021 1.212-.234 2.414-.745 3.516-.508 1.09-1.158 2.11-1.934 3.033-.255.279-.47.592-.638.93-.028.065-.051.131-.071.2-.313-.042-.797-.13-.877-.39l-.002.01z"/>
        <path fill="#FBBEBE" d="M123.552 56.255c.272.9-.941 6.54-.941 6.54s-.636 1.388-.514 1.52c.121.131-.455 1.361-1.728 1.24-1.273-.12-3.274-.54-4.274-.36-.748.135-2.887-.468-3.887-1.017-.34-.18-.546-.369-.527-.513.078-.569 1.988-3.15 1.988-3.15.286.075.578.127.873.154.08 0 .138-.009.158-.034.091-.12 2.213.63 2.546.84.333.211 1.242.172 1.242.172.307-.727.727-1.403 1.244-2.002.373-.433.616-.96.7-1.523.081-.445.186-.884.317-1.316.182-.602.347-1.381.135-1.662-.364-.48-3.942-5.82-.85-5.73 3.092.09 3.669 4.32 3.669 4.32s-.424 1.62-.151 2.52zM109.607 61.31l-2.546 1.08-2.955.9s-6.775-5.446-5.047-5.85c.3-.076.588-.197.85-.36.508-.327.969-.72 1.37-1.17.438-.475.835-.985 1.19-1.524 0 0 6.684-.315 5.638 1.26-.408.614-.269 1.611.051 2.6.018.06.038.119.058.18.369 1.003.835 1.97 1.391 2.884z"/>
        <path fill="#3F3D56" d="M92.86 91.621s-1.173-1.08-1.6.584c-.243.894-.412 1.806-.506 2.727 0 0-.647 1.96-.99 2.5-.341.537-1.656 5.544.855 5.04 0 0 .924-.194 1.104-2.306.18-2.112 1.734-8.412 1.734-8.412l-.597-.133z"/>
        <path fill="#FBBEBE" d="M111.926 95.562c-2.546.944-5.591.7-7.2.469-.695-.1-1.121-.199-1.121-.199l-7.957-.81-.16.166-1.022 1.053-1.182 2.832s-3.183 4.321-3.547 1.755c-.068-.561-.09-1.127-.067-1.692.073-2.735.795-6.364.795-6.364l7.23-.945 4.546-2.34.049-2.442.011-.6.031-1.505 6.184.585 1.091 2.43.011.012c.16.147 2.197 2.04 2.808 2.644.611.605 3.138 3.601-.5 4.951z"/>
        <path fill="#2E6EED" d="M94.382 96.443s-3.246.135-3.455-.441l-1.006 2.374s2.955 1.126 3.365.697l1.096-2.63z"/>
        <path fill="#3F3D56" d="M88.692 89.126s-2.114-1.035-2.387.945c-.165 1.065-.21 2.145-.136 3.22 0 0-.546 2.361-.955 3.037-.41.675-1.273 6.647 2.568 5.626 0 0 1.41-.382 1.182-2.836-.227-2.454.699-9.947.699-9.947l-.971-.045z"/>
        <path fill="#000" d="M100.377 84.445l6.593 5.761s3.819 2.026-.727 5.491c0 0-2.047.856-5.184.54-1.947-.204-3.868-.611-5.729-1.215 0 0-2.364-.36-3.183.9-.818 1.26-2.637 4.006-2.637 4.006s-2.228 4.366-3.683-1.035l1.864-5.266s.091-1.755 0-2.16c-.09-.406 1.228-2.206 1.91-1.62.682.584 1.591 1.394 2.364 1.35.773-.046 2.728-.09 2.728-.09l-1.136-.406s-3.274-.9-3.047-1.575c.228-.675 1.82-3.96 1.82-3.96l8.047-.721z" opacity=".1"/>
        <path fill="#FBBEBE" d="M105.879 95.697c-.375.143-.76.254-1.153.334-1.324.28-2.685.35-4.031.206-1.765-.187-3.508-.539-5.207-1.05-.334-.1-.522-.165-.522-.165s-2.364-.36-3.182.9c-.546.83-1.512 2.303-2.114 3.214l-.524.792s-2.228 4.366-3.683-1.035l1.865-5.266s.09-1.755 0-2.16c-.062-.276.525-1.192 1.122-1.569.282-.18.567-.24.787-.052.446.414.934.781 1.455 1.097.274.166.589.253.91.253.772-.045 2.728-.09 2.728-.09l-1.137-.405c-.617-.174-1.224-.381-1.819-.62-.707-.296-1.326-.649-1.222-.955.227-.675 1.819-3.96 1.819-3.96l8.048-.721 2.288 2 .98.855 3.325 2.906s3.814 2.026-.733 5.491z"/>
        <path stroke="#000" stroke-miterlimit="10" d="M100.15 92.772s-1.728-2.296-5.82-1.666" opacity=".1"/>
        <path fill="#000" d="M87.146 93.245l-1.319 2.992s1.455 3.31 4.274 2.815l1.733-3.11s-3.914-.403-4.688-2.697z" opacity=".1"/>
        <path fill="#2E6EED" d="M86.964 93.425l-1.319 2.993s1.455 3.309 4.274 2.813l1.734-3.109s-3.915-.403-4.69-2.697z"/>
        <path fill="#000" d="M112.745 63.966c-.188.054-.371.125-.546.212-.34-.18-.546-.369-.527-.513.078-.569 1.987-3.15 1.987-3.15.287.075.579.127.873.154.308 1.993-1.229 3.169-1.787 3.297zM109.607 61.49l-2.546 1.08-2.955.9s-6.775-5.446-5.047-5.85c.3-.076.588-.197.85-.36 1.019 1.324 3.424 2.7 3.424 2.7 2.011.72 3.839-.594 4.825-1.541.374 1.07.859 2.1 1.449 3.071z" opacity=".1"/>
        <path fill="#fff" d="M112.381 63.966c-.591.135-3.274 1.665-3.274 1.665l-1.682 2.88s.045 1.621 0 2.701c-.046 1.08-1.319.945-1.319.945l-.062.026c-.325.135-1.853.77-1.853.785 0 .014-3.132-.315-3.132-.315l-6.138-.99s-1.955-.09-2.592-.72l-.018-.019c-.615-.62-.382-1.07.61-1.827.99-.758.226-1.936.226-1.936s-.545-1.935-.545-3.105-.591-1.125-.591-1.125-.41 0 1.41-1.17c1.818-1.171-.228-6.617.409-5.852.636.765 1.818.36 1.91-.09.09-.45 1.954.585 1.954.585s.819-.495 1.092 0c.06.132.168.238.302.296.135.058.286.065.425.02.455 1.485 3.82 3.42 3.82 3.42 3 1.08 5.592-2.386 5.592-2.386s1.001.27 1.137.68c.136.408 1.273.388 1.273.388s1.364.148 1.41.553c.045.405 1.364.945 1.364.945.545 2.205-1.137 3.51-1.728 3.646z"/>
        <path fill="#000" d="M106.106 71.797l-.062.386c-.325.135-1.853.77-1.853.785 0 .014-3.132-.316-3.132-.316l-6.138-.99s-1.955-.09-2.592-.72l-.018-.018.018-.342 1-.18s9.822.54 11.186 1.17l1.591.225zM109.618 87.967c0 .223-.011.349-.011.349s-1.909-2.926-4.41-1.486c-.573.353-1.243.517-1.915.47-.343-.028-.678-.115-.992-.255-.526-.237-.994-.587-1.367-1.025 0 0-4.365.9-5.866 2.116-1.5 1.215-2.728-.36-2.728-.36s-.427 1.849-.96 2.304c-.708-.295-1.326-.648-1.222-.954.227-.675 1.818-3.96 1.818-3.96l8.048-.721 2.288 2 .031-1.505 6.184.585 1.091 2.43.011.012z" opacity=".1"/>
        <path fill="#2E6EED" d="M93.33 70.762s9.821.54 11.185 1.17l1.591.225-.273 1.71s2.592 2.656 3.365 2.971c.773.315.409 11.118.409 11.118s-1.909-2.926-4.41-1.486c-2.501 1.44-4.274-.81-4.274-.81s-4.365.9-5.866 2.116c-1.5 1.215-2.728-.36-2.728-.36s-.5 2.16-1.091 2.385c-.591.225-.728 1.665-.728 1.665s-1.636-.315-1.636-.81c0-.495-.046-.675-.364-1.035-.319-.36-.364-1.53-.364-1.53s.182-1.35-.41-1.89c-.59-.54-.545-2.836-.545-2.836s-.275-1.486 0-1.846c.275-.36.455-2.79.455-2.79s.91-2.52 1.41-3.466c.5-.945 2.91-2.566 2.91-2.566h.267l.09-1.755 1.006-.18z"/>
        <path fill="#3F3D56" d="M104.211 74.557c.159 0 .287-.127.287-.284 0-.157-.128-.285-.287-.285-.159 0-.287.128-.287.285 0 .157.128.284.287.284zM102.68 81.01c.158 0 .287-.128.287-.285 0-.157-.129-.284-.287-.284-.159 0-.288.127-.288.284 0 .157.129.285.288.285zM104.697 78.819c.158 0 .287-.128.287-.285 0-.157-.129-.284-.287-.284-.159 0-.288.127-.288.284 0 .157.129.285.288.285z"/>
        <path fill="#000" d="M92.753 72.968h.364s-2.183 4.95-2.303 3.57c-.12-1.381 1.939-3.57 1.939-3.57zM95.36 73.328s-2.485 3.78-1.272 4.32c1.213.54 2.302-4.14 2.302-4.14l-1.03-.18zM98.664 75.51s.94 5.74 2 6.85c1.061 1.111-.181 1.89-.181 1.89s3.728.33 4.91.57c1.182.239 3.001-.27 2.274-.75-.728-.478-.12-5.58-.06-5.822.06-.241-2.334 4.425-8.943-2.738zM94.633 68.767c.211-.09 3.607-4.81 4.425-4.43.819.38-4.425 4.43-4.425 4.43zM95.057 64.596s-1.364 2.07-.97 2.43c.395.36.97-2.43.97-2.43zM96.889 56.764s1.382 2.731.987 3.24c-.394.51-.987-3.24-.987-3.24zM112.395 60.514s-.272 1.592-.636 1.651c-.364.06.636-1.65.636-1.65zM105.848 61.026s3.85.932 4.154 1.141c.304.209-3.336.209-4.154-1.141zM120.034 63.726s-.484-1.861-1.12-1.83c-.637.03 1.12 1.83 1.12 1.83z" opacity=".1"/>
        <path fill="#3F3D56" d="M118.355 51.61c-.236.484-.751.871-.743 1.41 0 .255.129.49.181.743.032.216.016.436-.047.645-.063.209-.171.401-.316.565-.292.326-.664.574-1.079.72-.238.092-.502.18-.647.383-.239.34-.031.794.067 1.198.156.65-.102 1.462-.744 1.663-.344.108-.755.035-1.038.252-.284.218-.313.654-.49.978-.144.245-.377.427-.652.509-.275.081-.571.056-.828-.07-.016-.166.006-.333.064-.49-.196.052-.403.039-.591-.037-.187-.076-.344-.21-.448-.382-.082-.169-.123-.354-.122-.541.002-.187.047-.372.131-.54.173-.335.392-.645.651-.921.79-.911 1.454-1.922 1.975-3.007.522-1.088.783-2.28.763-3.485.002-.357-.068-.711-.206-1.04-.173-.336-.417-.63-.717-.861-.151-.13-.311-.252-.467-.377-.109-.086-.218-.18-.322-.262-.142-.125-.706-.58-.66-.8.025-.126.407-.108.74-.111.122.002.244-.008.364-.03.025-.004.05-.011.074-.02.111-.064.226-.12.344-.168.338-.105.688.106.97.318.403.332.829.637 1.273.913.449.275.974.4 1.5.36.166-.038.337-.046.506-.021.322.084.464.45.545.77.133.573.228 1.203-.031 1.736zM100.513 47.024c-.069.008-.138.02-.207.036-.193.054-.38.124-.56.21-.315.161-.618.342-.91.54l-2.24 1.452c-.211.118-.396.276-.546.465-.38.552-.023 1.343.528 1.731.254.18.545.306.794.49.132.084.243.195.327.326.084.13.14.277.16.43.028.47-.408.84-.847 1.017-.438.179-.929.249-1.313.524-.076.067-.165.117-.262.148-.114.012-.23-.01-.33-.063-.687-.283-1.349-.62-1.98-1.01.04.034.07.079.085.13.014.05.013.103-.003.153-.568-.173-1.089-.47-1.525-.87-.435-.4-.775-.893-.991-1.44-.217-.548-.307-1.137-.262-1.724.045-.587.223-1.156.521-1.665.235-.397.546-.756.728-1.175.182-.42.25-.94 0-1.323-.182-.269-.5-.449-.595-.757-.094-.307.102-.677.34-.927.526-.54 1.252-.864 1.832-1.357.58-.494 1.018-1.311.689-1.993-.262-.54-.966-.942-.848-1.53.079-.265.26-.489.504-.622.43-.273.922-.432 1.432-.464.509-.031 1.018.066 1.478.284-.034-.134-.025-.276.026-.405.051-.13.142-.24.26-.315.121-.07.262-.099.402-.083s.27.076.373.171c.08.102.166.199.258.29.048.043.112.066.176.063.065-.003.127-.03.171-.077.03-.056.043-.118.038-.18.012-.332.098-.657.251-.953.656.945 1.076 2.03 1.226 3.166.15 1.137.024 2.292-.365 3.372-.14.296-.223.617-.242.945.02.678.662 1.183 1.306 1.413l.034.01c.202.066.546.121.88.213.441.12.864.304.91.648.098.56-1.128.629-1.703.706z"/>
        <path fill="#FBBEBE" d="M91.147 49.532c-.333.36-2.06 4.411-2.06 4.411.143.992 3.197 2.171 4.49 2.627.349.124.57.194.57.194l1.243 1.08s-1.273 6.962-1.375 5.252c-.102-1.71-2.353-2.582-2.353-2.582s-.59-.237-1.295-.56c-.99-.448-2.212-1.056-2.365-1.39-.272-.57-.636-.75-2.517-2.43-1.88-1.68-.636-3.06-.575-3.24.302-.9 3.334-4.874 3.334-4.874l4.389-5.299s1.211-4.92 4.256-3.001c3.044 1.92-3.469 6.512-3.469 6.512s-1.94 2.94-2.273 3.3z"/>
        <path fill="#000" d="M95.39 57.844s-1.273 6.962-1.375 5.252c-.102-1.71-2.353-2.582-2.353-2.582s-.59-.237-1.295-.56c.227-1.595 1.904-2.73 3.21-3.384.349.124.57.194.57.194l1.243 1.08z" opacity=".1"/>
        <path fill="#fff" d="M96.858 57.112l-1.333-1.203s-8.625 2.7-2.805 7.817h2.454l2.248-2.956-.564-3.658z"/>
        <path fill="#000" d="M108.152 58.239c.018.06.038.119.058.18-1.277.32-2.622.25-3.859-.197-1.238-.448-2.31-1.255-3.077-2.315.437-.475.835-.985 1.189-1.525 0 0 6.684-.315 5.638 1.26-.402.61-.263 1.608.051 2.597z" opacity=".1"/>
        <path fill="#FBBEBE" d="M113.152 51.952c0 1.282-.384 2.535-1.103 3.6-.72 1.066-1.742 1.897-2.939 2.388-1.196.49-2.513.619-3.783.369s-2.437-.868-3.352-1.774c-.916-.907-1.54-2.061-1.792-3.319-.253-1.257-.123-2.56.372-3.745.496-1.184 1.335-2.196 2.412-2.908 1.077-.713 2.343-1.093 3.638-1.093.86-.003 1.713.162 2.509.487.796.325 1.519.802 2.128 1.404.608.603 1.091 1.319 1.418 2.107.328.787.495 1.632.492 2.484z"/>
        <path fill="#000" d="M113.152 51.952c.001.861-.172 1.714-.509 2.508-.367.076-.746.082-1.115.018-.148-.014-.288-.078-.395-.18-.076-.106-.122-.23-.133-.36-.069-.4-.137-.799-.203-1.196-.59.229-1.273.06-1.819-.246-.546-.307-1.026-.733-1.557-1.08-.531-.348-1.166-.595-1.79-.483-.339.077-.663.212-.956.398-.605.318-1.157.727-1.637 1.211-.331.36-.62.792-1.079.956-.285.089-.594.063-.86-.072s-.469-.367-.564-.648c-.096-.333-.031-.69-.071-1.033-.009-.12-.045-.234-.105-.338-.06-.103-.143-.192-.242-.26.204-1.638 1.031-3.138 2.314-4.193 1.283-1.055 2.924-1.586 4.588-1.484 1.664.102 3.227.829 4.369 2.032 1.141 1.203 1.776 2.792 1.775 4.443l-.011.007z" opacity=".1"/>
        <path fill="#3F3D56" d="M100.453 51.572c.04.344-.025.7.071 1.033.095.281.298.514.564.648.266.135.575.16.86.072.459-.163.748-.6 1.079-.956.48-.484 1.032-.893 1.637-1.211.293-.186.617-.321.957-.398.623-.112 1.256.142 1.789.482.533.34 1.004.77 1.557 1.08.553.312 1.231.476 1.819.247l.203 1.196c.011.13.057.254.133.36.108.102.247.166.395.18.452.079.916.052 1.355-.078.111-.02.215-.064.307-.13.092-.064.168-.147.224-.244.035-.091.053-.187.055-.285.156-2.298-.203-4.602-1.052-6.747-.311-.782-.707-1.565-1.376-2.078-.394-.276-.822-.5-1.274-.666-1.36-.57-2.859-1.152-4.279-.744-.626.18-1.181.54-1.726.9l-2.546 1.673c-.136.08-.258.18-.364.297-.129.179-.222.38-.275.594-.26.809-.61 1.587-1.044 2.32-.101.143-.169.307-.196.48 0 .16.037.318.105.463.131.336.182.587.48.784.299.199.495.339.542.728z"/>
        <g opacity=".1">
            <path fill="#000" d="M97.014 53.176c-.438.18-.93.248-1.313.524-.076.066-.165.116-.262.148-.114.012-.23-.01-.33-.063-.695-.288-1.364-.632-2.001-1.028.049.03.086.077.106.131.02.055.02.114.003.17-.568-.177-1.089-.475-1.525-.874-.437-.4-.778-.89-1-1.437-.145-.369.028.395 0 0-.04.575-.21 0 0 .54.221.546.561 1.036.997 1.435.435.4.954.699 1.52.875.018-.055.017-.114-.002-.169-.02-.054-.057-.1-.107-.131.637.397 1.306.74 2 1.028.102.053.218.075.332.063.096-.032.185-.082.262-.148.383-.275.875-.347 1.313-.524.438-.176.875-.54.847-1.017-.005-.078-.023-.156-.052-.229-.16.328-.443.581-.788.706zM99.09 43.495c.002.078.013.154.032.229.054-.216.124-.428.21-.634.312-.853.455-1.758.42-2.664-.028.725-.17 1.442-.42 2.124-.141.297-.223.618-.243.945zM114.238 49.615c-.244-.517-.706-.86-1.151-1.21.05.214.096.43.138.648.4.313.795.64 1.013 1.102.132.313.201.649.204.988v-.487c.003-.357-.067-.711-.204-1.041zM93.862 40.226c.055-.265.2-.15.08-.4-.198-.407-.645-.734-.804-1.123-.019.043-.033.087-.043.133-.118.589.505.848.767 1.39-.162-.385.038.077 0 0zM100.486 46.488c-.061.006-.122.017-.182.032-.526.17-1.022.422-1.47.745l-2.24 1.452c-.21.117-.396.275-.545.464-.078.118-.129.25-.15.39-.02.138-.011.28.028.415.025-.095.066-.184.121-.265.15-.189.335-.346.546-.464l2.24-1.451c.437-.314.92-.561 1.43-.733.079-.195.153-.39.222-.585zM117.781 53.723c-.057.261-.177.505-.349.71-.293.326-.664.574-1.079.72-.238.092-.502.18-.647.383-.06.102-.097.215-.109.332-.013.117 0 .235.038.347.017-.05.041-.096.071-.139.145-.208.409-.291.647-.383.415-.146.786-.394 1.079-.72.145-.164.253-.356.316-.566.063-.208.079-.428.047-.644-.003-.014-.003-.027-.014-.04zM118.355 51.07c-.236.484-.751.87-.743 1.41.002.09.016.179.041.266.126-.405.508-.739.702-1.136.151-.34.202-.714.148-1.08-.019.186-.068.369-.148.54zM111.133 54.118c.107.102.247.165.395.18.451.079.915.052 1.355-.078.11-.02.215-.065.307-.13.092-.064.168-.148.224-.244.035-.091.053-.188.054-.285.031-.443.041-.886.031-1.328 0 .263-.012.525-.031.788-.001.097-.019.194-.054.285-.056.096-.132.18-.224.245-.092.064-.197.108-.307.13-.44.129-.904.156-1.355.077-.148-.015-.288-.078-.395-.18-.076-.107-.122-.23-.133-.36-.069-.4-.137-.799-.203-1.196-.59.229-1.273.06-1.819-.247-.546-.306-1.026-.732-1.557-1.08-.531-.347-1.166-.594-1.79-.482-.339.077-.663.211-.956.398-.605.318-1.157.727-1.637 1.211-.331.36-.62.792-1.079.956-.285.089-.594.063-.86-.072s-.469-.367-.564-.648c-.096-.333-.031-.69-.071-1.033-.047-.393-.245-.54-.545-.735-.3-.194-.35-.448-.48-.785-.017-.043-.035-.09-.05-.135-.03.067-.049.14-.056.212 0 .16.037.318.106.463.13.337.182.587.48.785.298.198.491.342.545.735.04.343-.025.7.071 1.033.095.28.298.513.564.648.266.135.575.16.86.072.459-.164.748-.6 1.079-.956.48-.484 1.032-.893 1.637-1.211.293-.187.617-.321.956-.398.624-.112 1.257.142 1.79.482.533.34 1.004.769 1.557 1.08.553.312 1.231.476 1.819.247l.203 1.196c.011.13.057.254.133.36zM115.029 58.397c-.344.108-.755.034-1.039.252-.283.218-.312.654-.489.978-.144.245-.378.427-.652.509-.275.081-.571.056-.828-.07-.016-.166.006-.333.063-.49-.195.052-.402.038-.59-.037-.187-.076-.345-.21-.448-.382-.042-.074-.073-.154-.093-.236-.065.261-.032.537.093.776.103.172.261.306.448.382.188.075.395.089.59.038-.057.156-.079.323-.063.49.257.126.553.15.828.069.274-.082.508-.264.652-.51.182-.323.195-.75.489-.977.295-.227.695-.144 1.039-.252.606-.19.869-.922.766-1.55-.073.457-.331.873-.766 1.01z" opacity=".1"/>
        </g>
        <path fill="#2E6EED" d="M101.31 45.672c-.209.481-.477.935-.797 1.352-.069.008-.138.02-.207.036-.193.054-.38.124-.56.21.176-.621.405-1.227.686-1.81.2.064.543.12.878.212zM113.521 49.294c-.151-.13-.311-.252-.467-.376-.091-.36-.182-.79-.242-1.174.122.003.244-.007.364-.029.201.504.318 1.038.345 1.58z"/>
        <path fill="url(#paint1_linear)" d="M176.123 75.191c.056-.027.111-.054.165-.085-.111-.021-.222-.046-.331-.073-.078.021-.158.037-.238.055-1.524-.432-2.904-1.256-4.001-2.389-1.11-1.157-1.886-2.673-1.87-4.249.013-1.148.438-2.268.426-3.42-.013-1.153-.69-2.45-1.875-2.58-.413-.045-.826.061-1.243.075-.416.015-.88-.093-1.091-.433-.182-.294-.135-.676-.018-1.002.316-.88 1.027-1.591 1.333-2.475.181-.526.209-1.09.082-1.631-.106-.45-.348-.9-.771-1.118-.702-.36-1.537.057-2.317.203-1.335.252-2.69-.322-3.84-1.024-1.149-.702-2.226-1.556-3.519-1.968-.848-.246-1.729-.359-2.612-.335-.545 0-1.137.043-1.538.394-.02.018-.035.038-.055.056.039-.111.092-.217.158-.315-.06.036-.117.078-.169.124-.835.73-.251 2.121-.742 3.097-.055.108-.122.21-.2.303.117-.089.225-.188.324-.296-.019.044-.035.087-.057.13-.282.562-.878.9-1.455 1.177-.576.278-1.204.531-1.62 1.008-.011.011-.018.022-.029.035.071-.173.169-.333.291-.476-.119.091-.23.193-.33.305-.456.524-.491.96-.287 1.294.146.384.589.655 1.108.798-.026.113-.049.227-.069.342-.046.286-.069.575-.069.864 0 2.657 1.931 4.88 4.517 5.444 0 .116-.014.233-.029.36-.087.818-.342 1.704-1.009 1.92-.624-.211-1.874.72-2.154.99-.28.27-1.273.029-2.182.06-.909.03-1.217-.24-1.217-.24-.082.485-.093.98-.033 1.469.095.9-.654.93-.654.93s.156 1.292-.182 1.95c-.203.379-.29.807-.249 1.234 0 0 1.06-.09.965.27-.006.042-.004.085.007.126.011.04.029.08.055.113l-.011.344-.143 4.757-.28 2.835c-.071.021-.136.057-.19.107-.054.05-.096.11-.123.178-.253.569-.661 1.327-.981 1.906-1.3.78-3.253 2.226-2.7 3.616.811 2.041 1.966 1.771 2.651 1.53.686-.241 1.912-2.13 1.912-2.13s.405-.75.716-.75c.167-.008.333-.025.497-.053v.052s-.655 2.551-.437 3.182c.219.63.031 1.44.031 1.44s-.182 1.86.062 2.461c.244.601-.338 2.216-.338 2.216s.167.05.456.12c-.021.103-.047.217-.074.343-.382 1.788-1.068 5.869-.288 9.229 0 0 .437 1.8.499 2.283.062.482.436.9.182 1.98-.255 1.08.498 3.062.498 3.062s.375 1.891.156 2.76c-.218.87 2.277 10.623 2.277 10.623l.408-.058.091.348.405 1.548.044.169c-.286.069-.542.228-.727.454 0 0-1.092 2.461-2.465 3.15-.364.18-.809.422-1.238.683-1.226.742-2.277 1.635-.491 1.658 1.957.025 5.172.128 6.325.166.246.131.659.207 1.301.194 3.211-.059 7.767-.391 7.862-.69.045-.145-.145-.455-.353-.734-.207-.279-.46-.556-.46-.556l-.093-2.732s-.262-.234-.667-.556l-.015-.191-.203-2.634-.028-.36c.137-.029.267-.084.382-.164l.22-2.727s1.341-4.561-.374-9.033c0 0-1.497-3.089-1.092-4.2l.064-2.371s.717-2.792 1.06-3.541c.473-1.156.832-2.355 1.07-3.58 1.231-1.933 1.029-4.5 1.029-4.5l.873-2.701 1.217-3.45s.344-2.1.469-2.52c.126-.42 0-2.7 0-2.7s1.055-8.319.173-11.568v-.124h.009v-.18c.015-.017.96-.992.527-1.26-.363-.224-1.016-1.221-1.515-1.817-.067-.078-.129-.148-.181-.21.596-.456 1.105-1.015 1.5-1.65.153-.247.34-.54.638-.553.16.004.315.055.446.146 2.286 1.356 2.654 4.746 5.063 5.886.507.233 1.062.346 1.62.33.559-.016 1.106-.16 1.598-.422l-.24-.058zm-18.29 54.217l-.02.18c-.08.027-.156.065-.227.111 0 0-.313 1.59-.5 1.711-.098.121-.176.257-.231.403l-.046-.081c-.014.032-.031.065-.045.099l-.084-.151-.023-.18-.521-3.981c-.043-.581-.17-2.508.015-3.52.218-1.2.182-5.401-1.217-7.081 0 0-.654-1.53-.062-2.52l.093-6.244.218-.21.031 5.761c.105 1.219.597 2.375 1.404 3.302l.221 3.03s.181 3.3.747 5.131v2.821s.151.025.393.059l-.038.36-.108 1z"/>
        <path fill="#CF6F80" d="M161.533 69.217l-1.304 2.881-.482.28-3.247 1.88s-4.092-.39-4.212-.45c-.12-.059-.313-3.5.746-4.223.058-.042.122-.074.191-.096.649-.216.896-1.102.982-1.919.013-.12.022-.238.027-.36.026-.382.026-.766 0-1.149 0 0 .993-.983 2.183-2 2.108-1.8 4.834-3.7 3.788-.46-.193.583-.335 1.181-.426 1.789-.021.142-.036.28-.047.412-.127 1.595.377 2.456.884 2.913.055.05.111.094.166.135.221.174.477.299.751.367zM156.682 131.871l-.455.208-3.061-.689-.272-1.073-.395-1.548-.273-1.07h3.927l.505 3.984.024.188z"/>
        <path fill="#000" d="M156.227 132.079l-3.061-.689-.272-1.08c1.16-.344 2.85.623 2.85.623-.111.381.76.691.909.743l.024.18-.45.223zM157.682 133.55l-2.195 2.13-.775.751-.42-.014c-.791-.44.235-1.507.921-2.1.134-.117.256-.214.349-.286.491-.38.951-1.462 1.246-2.108l.874 1.627z" opacity=".1"/>
        <path fill="#000" d="M156.808 131.923l.874 1.62-2.195 2.13-.775.758-.42-.014c-.791-.44.235-1.507.921-2.1.134-.117.256-.214.349-.286.491-.38.951-1.462 1.246-2.108zM161.715 132.079l-4.033-1.35.12-1.139c1.052-.361 2.88.948 3.856 1.742l.057.747z" opacity=".1"/>
        <path fill="#3F3D56" d="M157.682 133.73l-2.195 2.13-.775.751s-4.214-.149-6.56-.18c-1.735-.023-.715-.916.477-1.658.418-.261.856-.502 1.204-.683 1.333-.689 2.393-3.15 2.393-3.15 1-1.26 3.518.18 3.518.18-.122.419.938.751.938.751l1 1.859z"/>
        <path fill="#000" d="M155.487 135.86l-.775.751s-4.214-.149-6.56-.18c-1.735-.023-.715-.916.477-1.658.642.144 1.287.45 1.506 1.08l5.352.007z" opacity=".1"/>
        <path fill="#CF6F80" d="M161.715 132.079l-4.033-1.35.12-1.139.104-.996.14-1.345h3.305l.109 1.449.198 2.634.057.747z"/>
        <path fill="#3F3D56" d="M163.2 136.102c-.09.298-4.517.63-7.638.689-2.71.052-1.242-1.523-.349-2.294.134-.117.256-.214.349-.286.696-.54 1.333-2.492 1.515-2.61.182-.119.485-1.711.485-1.711 1.364-.961 4.758 2.19 4.758 2.19l.091 2.731s.233.261.448.556c.214.295.385.589.341.735z"/>
        <path fill="#000" d="M163.201 136.101c-.091.299-4.518.631-7.639.69-2.71.052-1.242-1.523-.349-2.294.687.288 1.281.76 1.713 1.363h3.485s1.68-.241 2.448-.493c.2.279.385.589.342.734zM156.129 127.699c.02.33.038.54.038.54l-3.668.53-.273-1.07h3.903zM161.46 128.698c-.897.247-2.779.009-3.554-.104l.14-1.345h3.305l.109 1.449z" opacity=".1"/>
        <path fill="#3F3D56" d="M161.655 116.416c1.665 4.472.363 9.033.363 9.033l-.213 2.731c-.758.599-4.243 0-4.243 0v-2.821c-.545-1.831-.727-5.131-.727-5.131l-.213-3.03c-.788-.936-1.264-2.089-1.364-3.302l-.031-5.762-.211.211-.091 6.242c-.576.99.06 2.521.06 2.521 1.364 1.679 1.395 5.88 1.182 7.08-.212 1.201 0 3.691 0 3.691l-4.152.6s-2.426-9.751-2.213-10.623c.213-.871-.151-2.759-.151-2.759s-.728-1.981-.486-3.061c.242-1.08-.122-1.5-.182-1.981-.06-.48-.485-2.281-.485-2.281-.757-3.359-.091-7.441.28-9.228.118-.575.205-.913.205-.913s11.277-3.24 13.186-.54c.226.326.4.685.517 1.064.933 2.918-.708 7.486-1.002 8.148-.333.749-1.03 3.54-1.03 3.54l-.062 2.371c-.392 1.111 1.063 4.2 1.063 4.2z"/>
        <path fill="#2E6EED" d="M158.743 121.009c.067 0 .122-.054.122-.121 0-.066-.055-.12-.122-.12-.068 0-.122.054-.122.12 0 .067.054.121.122.121zM152.708 124.019c.067 0 .122-.054.122-.12 0-.067-.055-.121-.122-.121s-.122.054-.122.121c0 .066.055.12.122.12zM152.286 122.12c.067 0 .122-.054.122-.121 0-.066-.055-.12-.122-.12s-.122.054-.122.12c0 .067.055.121.122.121zM153.119 122.269c.067 0 .122-.054.122-.12 0-.067-.055-.121-.122-.121s-.122.054-.122.121c0 .066.055.12.122.12zM152.763 123.286c.067 0 .122-.054.122-.12 0-.067-.055-.121-.122-.121-.068 0-.122.054-.122.121 0 .066.054.12.122.12zM158.228 122.989c.067 0 .122-.054.122-.12 0-.067-.055-.121-.122-.121s-.122.054-.122.121c0 .066.055.12.122.12zM160.774 123.679c.068 0 .122-.054.122-.121 0-.066-.054-.12-.122-.12-.067 0-.122.054-.122.12 0 .067.055.121.122.121zM161.593 122.869c.067 0 .122-.054.122-.121s-.055-.121-.122-.121c-.068 0-.122.054-.122.121s.054.121.122.121zM158.986 122.39c.068 0 .122-.054.122-.121 0-.066-.054-.12-.122-.12-.067 0-.121.054-.121.12 0 .067.054.121.121.121zM154.041 121.567c.068 0 .122-.054.122-.121 0-.066-.054-.12-.122-.12-.067 0-.122.054-.122.12 0 .067.055.121.122.121zM155.052 122.269c.068 0 .122-.054.122-.12 0-.067-.054-.121-.122-.121-.067 0-.121.054-.121.121 0 .066.054.12.121.12zM153.314 125.315c.067 0 .122-.054.122-.12 0-.067-.055-.121-.122-.121-.068 0-.122.054-.122.121 0 .066.054.12.122.12zM153.732 126.77c.067 0 .122-.054.122-.121 0-.066-.055-.12-.122-.12s-.122.054-.122.12c0 .067.055.121.122.121zM155.105 127.278c.068 0 .122-.054.122-.121 0-.066-.054-.12-.122-.12-.067 0-.122.054-.122.12 0 .067.055.121.122.121zM154.283 127.37c.067 0 .122-.054.122-.121s-.055-.121-.122-.121-.122.054-.122.121.055.121.122.121zM153.556 128.056c.067 0 .122-.054.122-.121s-.055-.121-.122-.121c-.068 0-.122.054-.122.121s.054.121.122.121zM154.163 123.166c.067 0 .122-.054.122-.121 0-.066-.055-.12-.122-.12s-.122.054-.122.12c0 .067.055.121.122.121zM154.163 124.64c.067 0 .122-.054.122-.12 0-.067-.055-.121-.122-.121s-.122.054-.122.121c0 .066.055.12.122.12zM154.932 125.611c.068 0 .122-.054.122-.121s-.054-.121-.122-.121c-.067 0-.121.054-.121.121s.054.121.121.121zM154.234 126.048c.067 0 .122-.054.122-.12 0-.067-.055-.121-.122-.121s-.122.054-.122.121c0 .066.055.12.122.12zM152.828 128.056c.067 0 .122-.054.122-.121s-.055-.121-.122-.121-.122.054-.122.121.055.121.122.121zM154.985 126.302c.068 0 .122-.054.122-.121 0-.066-.054-.12-.122-.12-.067 0-.122.054-.122.12 0 .067.055.121.122.121zM160.774 121.999c.068 0 .122-.054.122-.121 0-.066-.054-.12-.122-.12-.067 0-.122.054-.122.12 0 .067.055.121.122.121zM159.578 123.679c.067 0 .121-.054.121-.121 0-.066-.054-.12-.121-.12-.068 0-.122.054-.122.12 0 .067.054.121.122.121zM158.743 126.169c.067 0 .122-.054.122-.121 0-.066-.055-.12-.122-.12-.068 0-.122.054-.122.12 0 .067.054.121.122.121zM158.47 127.82c.067 0 .122-.054.122-.121s-.055-.121-.122-.121-.122.054-.122.121.055.121.122.121zM159.896 122.629c.067 0 .122-.054.122-.12 0-.067-.055-.121-.122-.121s-.122.054-.122.121c0 .066.055.12.122.12zM159.456 124.399c.067 0 .122-.054.122-.121 0-.066-.055-.12-.122-.12-.068 0-.122.054-.122.12 0 .067.054.121.122.121zM159.819 125.731c.068 0 .122-.054.122-.12 0-.067-.054-.121-.122-.121-.067 0-.121.054-.121.121 0 .066.054.12.121.12zM157.91 127.087c.067 0 .122-.054.122-.121 0-.066-.055-.12-.122-.12-.068 0-.122.054-.122.12 0 .067.054.121.122.121zM158.986 126.649c.068 0 .122-.054.122-.12 0-.067-.054-.121-.122-.121-.067 0-.121.054-.121.121 0 .066.054.12.121.12zM158.623 127.01c.067 0 .122-.054.122-.121s-.055-.121-.122-.121c-.068 0-.122.054-.122.121s.054.121.122.121zM160.774 126.486c.068 0 .122-.054.122-.121 0-.066-.054-.12-.122-.12-.067 0-.122.054-.122.12 0 .067.055.121.122.121zM160.774 126.891c.068 0 .122-.054.122-.121 0-.066-.054-.12-.122-.12-.067 0-.122.054-.122.12 0 .067.055.121.122.121zM159.578 127.82c.067 0 .121-.054.121-.121s-.054-.121-.121-.121c-.068 0-.122.054-.122.121s.054.121.122.121zM159.228 128.176c.068 0 .122-.054.122-.12 0-.067-.054-.121-.122-.121-.067 0-.122.054-.122.121 0 .066.055.12.122.12zM160.061 127.087c.068 0 .122-.054.122-.121 0-.066-.054-.12-.122-.12-.067 0-.122.054-.122.12 0 .067.055.121.122.121zM159.106 127.701c.068 0 .122-.054.122-.121 0-.066-.054-.12-.122-.12-.067 0-.121.054-.121.12 0 .067.054.121.121.121zM161.225 126.169c.068 0 .122-.054.122-.121 0-.066-.054-.12-.122-.12-.067 0-.122.054-.122.12 0 .067.055.121.122.121zM161.471 126.891c.067 0 .122-.054.122-.121 0-.066-.055-.12-.122-.12s-.122.054-.122.12c0 .067.055.121.122.121zM159.698 126.649c.067 0 .121-.054.121-.12 0-.067-.054-.121-.121-.121-.068 0-.122.054-.122.121 0 .066.054.12.122.12zM160.061 127.876c.068 0 .122-.054.122-.121s-.054-.121-.122-.121c-.067 0-.122.054-.122.121s.055.121.122.121zM160.774 127.701c.068 0 .122-.054.122-.121 0-.066-.054-.12-.122-.12-.067 0-.122.054-.122.12 0 .067.055.121.122.121zM160.652 128.176c.068 0 .122-.054.122-.12 0-.067-.054-.121-.122-.121-.067 0-.121.054-.121.121 0 .066.054.12.121.12zM160.061 128.297c.068 0 .122-.054.122-.121 0-.066-.054-.12-.122-.12-.067 0-.122.054-.122.12 0 .067.055.121.122.121zM160.652 125.243c.068 0 .122-.054.122-.12 0-.067-.054-.121-.122-.121-.067 0-.121.054-.121.121 0 .066.054.12.121.12zM152.299 126.181c.067 0 .122-.054.122-.12 0-.067-.055-.121-.122-.121s-.122.054-.122.121c0 .066.055.12.122.12zM152.299 126.586c.067 0 .122-.054.122-.12 0-.067-.055-.121-.122-.121s-.122.054-.122.121c0 .066.055.12.122.12zM152.75 125.866c.067 0 .122-.054.122-.12 0-.067-.055-.121-.122-.121s-.122.054-.122.121c0 .066.055.12.122.12zM153.117 127.278c.068 0 .122-.054.122-.121 0-.066-.054-.12-.122-.12-.067 0-.122.054-.122.12 0 .067.055.121.122.121zM152.995 126.586c.068 0 .122-.054.122-.12 0-.067-.054-.121-.122-.121-.067 0-.121.054-.121.121 0 .066.054.12.121.12zM152.299 127.397c.067 0 .122-.054.122-.121s-.055-.121-.122-.121-.122.054-.122.121.055.121.122.121zM152.177 124.941c.067 0 .122-.054.122-.121 0-.066-.055-.12-.122-.12s-.122.054-.122.12c0 .067.055.121.122.121z"/>
        <path fill="#000" d="M154.681 97.874l.304 9.182.333-.241.244-9.452-.881.511z" opacity=".1"/>
        <path fill="#CF6F80" d="M149.56 85.51s-2.092-1.95-2.546-.9c-.455 1.052-1.426 2.76-1.426 2.76l2.304 2.161s.395-.75.697-.75c.397-.037.792-.097 1.182-.18l-.211-3.09z"/>
        <path fill="#CF6F80" d="M150.984 77.41l-1.395 10.38-.524-.794-1.75-2.655.273-2.852.14-4.757.042-1.424 3.214 2.101z"/>
        <path fill="#000" d="M160.2 63.606c-.242.714-.4 1.452-.473 2.202-.529.598-1.181 1.078-1.912 1.407-.732.328-1.526.498-2.33.497-.428 0-.855-.048-1.273-.144.05-.499.056-1.001.018-1.501 0 0 7.606-7.533 5.97-2.461z" opacity=".1"/>
        <path fill="#CF6F80" d="M161.123 61.771c.003 1.329-.476 2.615-1.349 3.624-.523.605-1.169 1.093-1.897 1.431-.859.399-1.806.576-2.753.516-.947-.06-1.864-.356-2.664-.86-.801-.504-1.46-1.2-1.917-2.024-.457-.823-.696-1.748-.696-2.687 0-.29.023-.578.068-.864.218-1.39.959-2.646 2.073-3.518 1.114-.872 2.519-1.296 3.935-1.187 1.416.11 2.738.744 3.703 1.776.964 1.032 1.499 2.387 1.497 3.793z"/>
        <path fill="#000" d="M149.347 78.158c-.667-.562-1.415-1.064-1.619-1.426l.042-1.424 3.214 2.101-1.395 10.381-.515-.794c.029-.54.095-1.051.222-1.305.364-.72.091-1.831.091-2.191 0-.36.515-.931.484-1.17-.034-.503-.095-1.004-.182-1.5-.129-.57.477-1.98-.342-2.672zM162.686 98.157v.016s-3.972-.63-7.064.45c-2.536.886-5.766.198-6.844-.077.118-.575.205-.913.205-.913s11.277-3.24 13.186-.54c.226.326.401.685.517 1.064zM161.533 69.217l-1.304 2.881-3.729 2.16s-4.092-.39-4.212-.45c-.12-.059-.313-3.5.746-4.223-.299.832-.624 2.52 1.587 2.663 2.388-.351 4.539-1.618 5.99-3.528.259.241.577.412.922.497z" opacity=".1"/>
        <path fill="#2E6EED" d="M166.383 74.979l-.062 1.35-3.637 21.484s-3.97-.63-7.062.45-7.215-.18-7.215-.18.576-1.62.334-2.22c-.241-.6-.061-2.461-.061-2.461s.181-.81-.03-1.44c-.211-.63.424-3.182.424-3.182s-.151-2.729.213-3.45c.364-.72.091-1.83.091-2.19 0-.36.515-.931.484-1.17-.034-.503-.095-1.004-.182-1.5-.12-.57.485-1.98-.333-2.672-.818-.691-1.759-1.29-1.668-1.65.091-.36-.938-.27-.938-.27-.04-.424.044-.852.242-1.23.333-.66.182-1.95.182-1.95s.727-.031.636-.931c-.059-.489-.049-.983.031-1.47 0 0 .302.27 1.182.24.88-.03 1.848.21 2.121-.06.273-.27 1.486-1.2 2.091-.99-.047.092-1.496 2.942 1.397 3.119 1.229-.18 2.409-.606 3.467-1.251 1.057-.645 1.972-1.496 2.688-2.501 0 0 .333-.36 1.424.812 1.091 1.172 2.03.72 2.03.72l1.213.09s-.788.659-.304 1.109c.102.098.198.204.286.315.485.596 1.124 1.593 1.473 1.817.422.271-.517 1.262-.517 1.262z"/>
        <path fill="#CF6F80" d="M147.104 85.93s-4.455 2.16-3.668 4.2c.788 2.04 1.91 1.772 2.577 1.53.668-.24 1.879-2.129 1.879-2.129l-.788-3.6z"/>
        <path fill="#000" d="M159.668 73.855c0 .193-1.136 2.623 0 3.254 1.137.63 0-3.254 0-3.254zM150.711 73.013s-1.606 1.71-.94 1.89c.665.18.94-1.89.94-1.89z" opacity=".1"/>
        <path fill="#CF6F80" d="M161.533 76.358s.696 4.261.727 5.521c.031 1.26.213 3.3.213 3.3s.515 4.862-.273 6.842c-.787 1.98-.667 4.14-.667 4.14s-2.305 4.442-2.637 4.893c-.333.45.272 4.711 2.697 2.911 2.424-1.801 2.122-5.733 2.122-5.733l.85-2.7 1.182-3.45s.333-2.1.454-2.52c.122-.42 0-2.7 0-2.7s1.425-11.554-.485-12.755c-1.91-1.2-4.183 2.25-4.183 2.25z"/>
        <path fill="#000" d="M161.533 77.829s2.85-3.092 3.728-2.822c.879.27 1.122.152 1.122.152s.12-1.71-1.182-2.34c-1.302-.631-2.728-2.552-3.819-.27-1.092 2.28.151 5.28.151 5.28z" opacity=".1"/>
        <path fill="#2E6EED" d="M161.533 77.649s2.85-3.092 3.728-2.822c.879.27 1.122.152 1.122.152s.12-1.71-1.182-2.34c-1.302-.631-2.728-2.552-3.819-.271-1.092 2.281.151 5.28.151 5.28z"/>
        <path fill="#000" d="M165.425 71.902c-.208.178-.429.34-.66.488-.578.37-1.228.615-1.908.72-.574.084-1.16.052-1.721-.096-.499-.126-.97-.343-1.389-.639-.435-.302-.795-.698-1.053-1.157-.037-.065-.069-.13-.1-.195-.611-1.274-.448-2.792-.717-4.198-.02-.1-.042-.2-.065-.3-.213-.938-.7-1.794-1.401-2.46-.973-.931-2.284-1.496-3.637-2.199-.788-.41-1.455-.736-2.35-.851-.175-.022-.347-.059-.515-.11.135-.852.468-1.661.973-2.364.504-.704 1.166-1.281 1.934-1.689.768-.407 1.62-.633 2.491-.66.871-.025 1.736.148 2.528.509.791.36 1.487.897 2.034 1.569.547.671.929 1.459 1.116 2.301.187.842.175 1.716-.036 2.553-.211.836-.615 1.613-1.18 2.27-.022.142-.037.28-.048.412-.127 1.595.377 2.455.884 2.913.055.05.111.093.166.135 0 0 .333-.36 1.424.812 1.091 1.172 2.03.72 2.03.72l1.213.09s-.788.659-.304 1.109c.104.099.201.205.291.317z" opacity=".1"/>
        <path fill="#512E4E" d="M149.256 58.61c.406-.477 1.01-.733 1.575-1.009.566-.275 1.146-.615 1.419-1.177.476-.976-.091-2.368.727-3.099.391-.35.966-.394 1.493-.394.862-.023 1.721.09 2.547.335 1.255.412 2.302 1.26 3.419 1.968 1.117.707 2.432 1.276 3.73 1.024.759-.146 1.568-.561 2.252-.203.411.216.646.668.749 1.118.123.54.096 1.105-.08 1.631-.296.884-.989 1.595-1.295 2.475-.113.326-.165.708.017 1.002.212.34.665.448 1.069.433.404-.014.804-.12 1.206-.075 1.153.13 1.819 1.431 1.819 2.58 0 1.148-.402 2.268-.415 3.42-.016 1.576.74 3.09 1.819 4.248 1.203 1.287 2.778 2.175 4.51 2.543-.476.262-1.008.407-1.552.423-.544.016-1.084-.097-1.574-.33-2.341-1.14-2.699-4.529-4.911-5.884-.125-.092-.277-.143-.433-.146-.289.018-.471.306-.62.55-.835 1.382-2.235 2.473-3.843 2.712-1.608.24-3.379-.48-4.163-1.892-.784-1.412-.502-3.135-.882-4.692-.66-2.7-2.796-3.493-5.033-4.66-.787-.41-1.455-.736-2.35-.85-1.14-.147-2.202-.878-1.2-2.051z"/>
        <g opacity=".1">
            <path fill="#000" d="M152.543 55.927c.429-.879.014-2.094.52-2.86-.059.036-.114.077-.166.123-.809.73-.242 2.121-.718 3.097-.054.106-.12.205-.195.297.234-.174.425-.399.559-.657zM172.973 75.024c-2.343-1.14-2.701-4.528-4.922-5.886-.126-.091-.277-.142-.433-.146-.233.015-.394.204-.527.405.051-.025.107-.04.164-.044.155.003.307.054.432.145 2.221 1.358 2.579 4.746 4.922 5.886.49.233 1.03.346 1.574.33.543-.016 1.075-.16 1.551-.422-.108-.023-.217-.049-.324-.076-.809.236-1.677.168-2.437-.192zM163.155 72.257c-1.606.239-3.379-.483-4.161-1.893-.782-1.41-.502-3.136-.882-4.692-.662-2.7-2.798-3.492-5.035-4.659-.785-.412-1.455-.736-2.348-.852-1.091-.142-2.14-.851-1.226-1.992-.116.09-.222.192-.318.304-.996 1.174.066 1.905 1.181 2.049.893.115 1.562.439 2.348.851 2.237 1.167 4.365 1.952 5.034 4.66.38 1.555.102 3.289.882 4.691.78 1.403 2.555 2.132 4.161 1.893 1.19-.205 2.275-.803 3.078-1.696-.752.7-1.696 1.166-2.714 1.335z" opacity=".1"/>
        </g>
        <path fill="url(#paint2_linear)" d="M33.783 140.122c-1.124-.128-2.711-1.221-3.706-1.981.494-.286.822-.484.822-.484s-2.365-2.353-2.079-3.892c.285-1.54-.567-8.554-.567-8.554s-1.325-.996-.615-3.531c.71-2.534.71-3.168.71-3.168s-.426-3.214-.143-3.983c.284-.768.286-2.454.286-2.454l.565-5.813.306-2.175c.515 1.667 1.377 2.769 2.728 1.833 3.121-2.173.804-9.28.804-9.28s-.402-1.528-.684-2.806l.155-.407s-.095-1.582.709-2.126c.804-.544 0-12.266 0-12.266l-.267-7.108v-.21c-.041-1.14-.38-2.248-.984-3.219-.603-.97-1.45-1.769-2.46-2.318l-.192-.099-.033-.198c-.153-.922-.324-2.03-.436-3.129-.013-.119-.024-.236-.035-.36 3.243-.805 5.644-3.633 5.644-7.002 0-.643-.09-1.284-.266-1.903-.013-.046-.027-.093-.042-.138.433-.429.788-.553.82-.274.048.407.403-.113.426-.52.024-.407.118-.114.364-.114s.284-.43-.095-.655c-.378-.225.071-.475.182-.52.111-.045.118-.476 0-.476-.014-.001-.029-.006-.042-.012h-.012l-.06-.03-.075-.048-.02-.012-.082-.058c-.216-.153-.465-.36-.465-.36l.118-.09c.118-.09-.142-.317-.364-.339h-.045c-.222-.034-.577-.16-.351-.264.05-.024.072-.05.076-.08 0-.015-.004-.03-.01-.045-.008-.014-.018-.027-.03-.037-.033-.03-.07-.056-.109-.076l-.067-.03-.066-.022c-.023-.007-.047-.011-.07-.014h-.134c-.306-.077-.605-.182-.893-.314v-.475l-.398-.184-.33-.144.117-.437h-1.04l.142-.385-.478-.092-.113-.022v-.18l-.639-.248v-.272h-.767l.295-.227h-.591c-1.545-1.048-5.893-.972-7.627-.4-1.733.573-2.239.996-4.601 5.914-1.511 3.144.418 6.192 2.113 7.893.057.058.113.112.17.166l.023.023.151.143.015.012.162.146.018.014.142.123.02.016.152.124.139.107.023.018c.093.07.182.131.264.18l.025.016.11.07h.009c.036.023.072.043.107.063l.022.013.082.043h.018l.085.038h.015l.06.021h.016c.02.006.04.01.06.013h.064c.012-.003.023-.008.033-.015.22-.111.457-.187.702-.223l.182.144c.087.07.181.137.269.202.021.131.04.264.056.403.107.882.049 1.775-.17 2.636l-.06.2c-.81.247-1.507.773-1.963 1.481-2.034 3.124-2.932 4.98-2.932 4.98s-.3 2.109-.813 2.61c-.513.5.946 9.458.946 9.458s-1.75 3.439-.182 4.051c1.567.612-.142 1.11-.142 1.11s.473 1.04-.426 1.13c-.898.09-1.418 1.676-1.418 1.676l-2.788 2.987.702.237c-.06.094-.122.191-.182.301-.932 1.541-2.34 4.681-1.414 8.462 1.325 5.432 1.703 6.607 1.656 7.561-.048.955 1.511 4.708 1.133 5.567-.379.859-.59 3.848.06 4.618.649.771-.248 1.221-.248 1.221s.968 1.132.484 1.901c-.484.769.602 10.275.602 10.275s1.75 2.445 1.655 3.214c-.094.768-.898 1.177-.182 1.494.717.317.426.769.426.769l.182.014c-.162.144-.317.295-.459.448-.14.152-.27.313-.387.483-.06.09-.114.183-.16.281-.637 1.386 1.058 2.445 1.058 2.445h.579c1.646.064 6.298.18 8.492-.36l.04.025s8.32.443 9.974-.69c1.653-1.132-.806-1.827-2.556-2.025zm-8.52.398l-.06-.009-.095-.017h-.067l-.106-.016H24.892c-.079-.011-.157-.021-.233-.029-.374-.055-.736-.166-1.077-.327-.24-.106-.484-.234-.727-.371l.48-.011c.125 0 .249 0 .363-.013l.217-.01c.545 0 1.328.072 1.533.437-.075.114-.137.236-.186.364v.002z"/>
        <path fill="#FFCCD0" d="M29.764 68.422c-.136 0-10.867 2.025-8.184-1.576.509-.675.88-1.442 1.09-2.257.212-.858.267-1.745.164-2.622-.117-1.057-.419-2.087-.89-3.042 0 0 8.866-1.936 7.456-.45-.615.648-.598 2.626-.394 4.648.109 1.093.272 2.197.42 3.113.207 1.276.382 2.186.338 2.186z"/>
        <path fill="#3F3D56" d="M20.67 137.641s2.774 2.531 4.456 2.729c1.682.198 4.047.917 2.455 2.042-1.591 1.125-9.593.686-9.593.686s-1.854-1.199-.864-2.712c.989-1.512 3.546-2.745 3.546-2.745z"/>
        <path fill="#000" d="M27.581 142.412c-.305.187-.643.317-.996.383-2.665.629-8.598.303-8.598.303s-1.853-1.199-.863-2.712c.989-1.512 3.546-2.745 3.546-2.745s2.774 2.531 4.456 2.729l.238.031c1.655.234 3.734.938 2.217 2.011z" opacity=".1"/>
        <path fill="#000" d="M27.581 142.412c-.305.187-.643.317-.996.383l-.182-.009s-1.595-1.029-1.035-2.385c1.651.234 3.73.938 2.213 2.011z" opacity=".1"/>
        <path fill="#3F3D56" d="M29.446 137.331s2.773 2.521 4.456 2.728c1.682.207 4.046.918 2.455 2.043-1.591 1.125-9.594.684-9.594.684s-1.853-1.197-.864-2.7c.99-1.504 3.547-2.755 3.547-2.755z"/>
        <path fill="#000" d="M29.446 137.331s2.773 2.521 4.456 2.728c1.682.207 4.046.918 2.455 2.043-1.591 1.125-9.594.684-9.594.684s-1.853-1.197-.864-2.7c.99-1.504 3.547-2.755 3.547-2.755z" opacity=".1"/>
        <path fill="#3F3D56" d="M26.718 139.177c-.364.264-1.237.403-2.294.464h-.016l-.199.011c-.116 0-.236.011-.363.012-2.661.085-6.093-.217-6.093-.217s.273-.451-.41-.766c-.681-.315.092-.72.183-1.485.09-.765-1.585-3.196-1.585-3.196s-1.045-9.452-.58-10.217c.466-.765-.465-1.89-.465-1.89s.863-.45.238-1.215c-.626-.766-.42-3.736-.056-4.591.363-.856-1.137-4.591-1.092-5.537.046-.945-.318-2.115-1.591-7.516-.89-3.78.464-6.888 1.358-8.422.204-.36.434-.704.688-1.03h8.684l.22 2.024.012.111.261 2.458c1.213 11.418 4.156 40.244 3.1 41.002z"/>
        <path fill="#000" d="M26.718 139.177c-.395.282-1.355.421-2.509.475-.303-.018-.607-.014-.909.012 0 0-.136-.307-1.773-1.44-1.637-1.132 0-3.691 0-3.691l-1.703-6.886s-.427-1.838-.063-2.919c.364-1.08-.784-1.35-.784-1.35s1.148-.72 0-1.665c-1.148-.945-1.308-4.411-1.308-4.411s-1.637-2.161-.91-2.881c.728-.72-.454-2.43-.454-2.43s-1.728-2.701-1.546-3.601c.182-.9 2.637-.585 1.91-3.466-.728-2.88 3.756 1.081 3.756 1.081l2.931-10.288c.952 8.901 4.505 42.639 3.361 43.46z" opacity=".1"/>
        <path fill="#3F3D56" d="M31.128 137.601s-4.91 3.061-5.229 2.476c-.198-.36-.942-.434-1.475-.436h-.016c-.317 0-.555.023-.555.023s-.136-.307-1.773-1.44c-1.637-1.132 0-3.691 0-3.691l-1.703-6.886s-.434-1.838-.07-2.919c.363-1.08-.784-1.35-.784-1.35s1.147-.72 0-1.665c-1.148-.945-1.308-4.411-1.308-4.411s-1.637-2.161-.91-2.881c.728-.72-.454-2.43-.454-2.43s-1.728-2.701-1.546-3.601c.182-.9 0-.72-.728-3.601-.545-2.171.866-7.052 1.597-9.324.238-.743.404-1.208.404-1.208l6.768 1.349 6.782 1.352.182 2.385-.051.378-.91 6.662-.545 5.781s0 1.665-.273 2.43c-.273.765.136 3.961.136 3.961s0 .63-.682 3.151c-.682 2.52.591 3.51.591 3.51s.819 6.977.546 8.507c-.273 1.531 2.006 3.878 2.006 3.878z"/>
        <path fill="#000" d="M21.148 120.858c.683.113 4.205.18 3.274.608-.931.429-3.274-.608-3.274-.608zM20.761 123.132c.273-.024 1.524-.564 1.864-.519.34.045.797-.095 1.206 0 .41.096 1.175.36.746.52-.43.161-1.328.022-1.844.18-.517.159-1.972-.181-1.972-.181zM17.033 122.186c.181-.023 1.591-.383 1.478 0-.113.384-1.478 0-1.478 0zM14.783 110.889c.136.18.931 1.98 1.318 1.98.388 0-1.318-1.98-1.318-1.98zM29.4 58.474c-.615.649-.598 2.627-.394 4.65-.611.16-1.24.24-1.872.24-1.613 0-1.74-2.014-2.946-2.891-.191-1.755-2.245-1.548-2.245-1.548s8.867-1.936 7.457-.45z" opacity=".1"/>
        <path fill="#FFCCD0" d="M34.409 55.803c0 1.827-.703 3.585-1.965 4.919-1.262 1.334-2.989 2.143-4.83 2.263-1.842.12-3.662-.457-5.09-1.614-1.428-1.158-2.358-2.81-2.601-4.621-.244-1.811.217-3.646 1.289-5.134 1.072-1.487 2.675-2.515 4.485-2.876 1.809-.361 3.69-.028 5.26.932 1.57.96 2.713 2.475 3.197 4.239.17.616.255 1.253.255 1.892z"/>
        <path fill="#000" d="M29.764 68.422c-.136 0-10.867 2.025-8.184-1.576.509-.675.88-1.442 1.09-2.257 2.17-.686 4.83.457 4.83.457l1.227.9c.244.075.481.172.708.29.198 1.276.373 2.186.329 2.186zM30.31 99.343l-.051.378c-.29.097-1.62.463-4.798-.828-.511-.207-1.142-.452-1.843-.72-2.257-.855-5.254-1.932-7.444-2.7-1.05-.373-1.913-.678-2.42-.854.203-.36.433-.704.687-1.03h8.684l.22 2.024 6.783 1.345.181 2.385z" opacity=".1"/>
        <path fill="#2E6EED" d="M27.49 65.226s-4.82-2.07-6.774 1.035c-1.956 3.106-2.82 4.951-2.82 4.951s-.272 2.07-.772 2.566c-.5.495.909 9.407.909 9.407s-1.682 3.42-.182 4.027c1.5.607-.136 1.104-.136 1.104s.454 1.035-.41 1.125c-.863.09-1.364 1.665-1.364 1.665l-2.682 2.971s8.76 3.06 12.202 4.456c3.44 1.395 4.712.855 4.849.81.136-.045 2.228-5.716 2.228-5.716s-.091-1.575.682-2.115c.773-.54 0-12.198 0-12.198l-.266-7.279c-.033-1.12-.354-2.215-.934-3.178-.58-.963-1.398-1.764-2.378-2.326-.292-.168-.602-.304-.924-.405l-1.227-.9z"/>
        <path fill="#2E6EED" d="M32.265 77.649l.955 1.665s-7.64 2.16-7.94.09c-.045-.302 2.983-2.7 2.983-2.7l4.002.945z"/>
        <path fill="#000" d="M32.265 77.649l.955 1.665s-7.64 2.16-7.94.09c-.045-.302 2.983-2.7 2.983-2.7l4.002.945zM19.26 86.65s3.638-1.17 2.865-.225c-.773.946-2.864.225-2.864.225zM23.411 86.913s1.86 2.301 2.306 1.44c.446-.86-2.306-1.44-2.306-1.44zM34.154 53.91c-.242.245-.457.515-.64.805-.636.99-1.113 1.014-1.113 1.014s0 2.142-.295 2.366c-.294.223-1.978-.95-2-1.24-.022-.292-2.079-3.466-2.972.56l-.167 3.265s-2.947.36-4.454.686c-.884-.72-1.584-1.636-2.044-2.673-.459-1.038-.664-2.168-.599-3.3.065-1.13.4-2.23.974-3.21.576-.979 1.377-1.81 2.337-2.426.961-.615 2.055-.997 3.194-1.115 1.138-.119 2.288.03 3.357.435 1.069.405 2.026 1.053 2.794 1.893.769.84 1.326 1.848 1.627 2.94h.001z" opacity=".1"/>
        <path fill="#3F3D56" d="M29.491 46.75h.57l-.286.225h.74v.27l.613.247v.18l.57.114-.137.381h1l-.114.434.682.31v.472s.682.315.909.315c.227 0 .604.203.364.315-.24.111.182.248.38.27.198.021.455.248.34.338l-.113.09s.613.517.728.517c.114 0 .112.428 0 .474-.113.044-.546.291-.182.516.364.225.318.654.09.654-.227 0-.318-.294-.341.111-.024.406-.364.924-.41.519-.045-.405-.749.045-1.385 1.035-.637.99-1.115 1.012-1.115 1.012s0 2.142-.295 2.366c-.294.223-1.979-.947-2-1.24-.022-.294-2.08-3.467-2.972.563L26.96 60.5s-4.91.608-5.298.945c-.387.337-6.215-4.32-3.941-9.212 2.273-4.892 2.759-5.311 4.427-5.88 1.668-.57 5.856-.647 7.342.398z"/>
        <path fill="#FFCCD0" d="M25.672 78.414s-.046 3.645-.364 4.546c-.318.9 2.183 9.317 2.183 9.317s2 4.438 1.636 5.806c-.363 1.368.137 10.127 3.138 7.967 3-2.161.773-9.227.773-9.227s-.955-3.936-.955-4.42c0-.485-1-7.778-1-7.778s-.773-2.385-.546-3.826c.227-1.44.318-4.096.318-4.096l-5.183 1.71z"/>
        <path fill="#000" d="M28.718 71.572s-3.648 1.17-3.801 4.366c-.153 3.196 0 3.466 0 3.466s5.438-2.7 7.939-.09l-.257-7.067-3.88-.675z" opacity=".1"/>
        <path fill="#2E6EED" d="M29.082 71.572s-3.649 1.17-3.801 4.366c-.153 3.196 0 3.466 0 3.466s5.438-2.7 7.938-.09l-.256-7.067-3.881-.675z"/>
        <g opacity=".1">
            <path fill="#000" d="M33.987 49.694c-.082.1.256.209.438.229.019.002.037.006.055.012.013-.11-.26-.237-.442-.237l-.05-.004zM32.765 49.023s.167.077.364.154v-.266l-.364-.166v.278zM34.745 50.283l-.092.074s.209.18.407.324l.07-.054c.114-.09-.137-.315-.34-.339l-.044-.005zM32.083 48.243l.41.184.066-.26h-.456l-.02.076zM26.77 56.878l-.165 3.262s-4.91.608-5.298.945c-.12.106-.773-.277-1.544-1.003.92.956 1.767 1.486 1.907 1.363.388-.337 5.298-.945 5.298-.945l.166-3.262c.522-2.362 1.455-2.249 2.124-1.693-.669-.78-1.858-1.481-2.488 1.333zM35.562 52.218c-.364-.225.067-.471.182-.517.115-.044.113-.473 0-.473-.103-.036-.198-.092-.28-.164 0 .119-.024.252-.084.278-.114.044-.545.291-.182.516.364.225.319.654.091.654-.227 0-.318-.294-.342.111-.023.405-.363.924-.409.519-.045-.405-.75.045-1.386 1.035-.636.99-1.115 1.012-1.115 1.012s0 2.142-.294 2.366c-.206.153-1.068-.36-1.592-.782.268.393 1.684 1.345 1.955 1.142.271-.204.295-2.366.295-2.366s.478-.022 1.115-1.012 1.34-1.44 1.386-1.035c.045.405.387-.114.41-.519.02-.405.114-.111.341-.111.227 0 .273-.429-.09-.654zM31.195 47.808h.493l.007-.022-.458-.092-.042.114zM30.514 47.032v-.056h-.14l.14.056z" opacity=".1"/>
        </g>
        <path stroke="#2E6EED" stroke-miterlimit="10" stroke-width="4" d="M35.158 102.505s14.976-22.516 32.618-9.733c17.642 12.782 21.976 20.884 36.724 16.383 14.748-4.501 14.201-13.348 25.841-10.094 11.64 3.253 15.672-7.4 15.672-7.4"/>
        <path fill="#2E6EED" d="M147.437 87.392h-.002c-.814-.348-1.759.024-2.11.83l-1.572 3.61c-.351.805.025 1.74.839 2.088l.002.001c.814.348 1.759-.024 2.11-.83l1.572-3.61c.351-.806-.024-1.741-.839-2.089z"/>
    </g>
    <defs>
        <linearGradient id="paint0_linear" x1="103.664" x2="103.664" y1="102.526" y2="36" gradientUnits="userSpaceOnUse">
            <stop stop-color="gray" stop-opacity=".25"/>
            <stop offset=".54" stop-color="gray" stop-opacity=".12"/>
            <stop offset="1" stop-color="gray" stop-opacity=".1"/>
        </linearGradient>
        <linearGradient id="paint1_linear" x1="31300.2" x2="31300.2" y1="65264.3" y2="26194.4" gradientUnits="userSpaceOnUse">
            <stop stop-color="gray" stop-opacity=".25"/>
            <stop offset=".54" stop-color="gray" stop-opacity=".12"/>
            <stop offset="1" stop-color="gray" stop-opacity=".1"/>
        </linearGradient>
        <linearGradient id="paint2_linear" x1="4835.32" x2="4835.32" y1="79654.8" y2="26563.3" gradientUnits="userSpaceOnUse">
            <stop stop-color="gray" stop-opacity=".25"/>
            <stop offset=".54" stop-color="gray" stop-opacity=".12"/>
            <stop offset="1" stop-color="gray" stop-opacity=".1"/>
        </linearGradient>
        <clipPath id="clip0">
            <path fill="#fff" d="M0 0H202V146H0z"/>
        </clipPath>
    </defs>
</svg>
