<svg xmlns="http://www.w3.org/2000/svg" width="225" height="146" fill="none" viewBox="0 0 225 146">
    <path fill="#2E6EED" d="M178.175 145.343h-4.318c-.504 0-.987-.201-1.344-.556-.356-.356-.557-.839-.557-1.342v-35.92c0-.503.201-.986.557-1.342.357-.355.84-.555 1.344-.556h4.318c.504.001.987.201 1.344.556.356.356.556.839.557 1.342v35.92c-.001.503-.201.986-.557 1.342-.357.355-.84.556-1.344.556zM166.417 145.343H162.1c-.505 0-.988-.201-1.344-.556-.357-.356-.557-.839-.558-1.342v-35.92c.001-.503.201-.986.558-1.342.356-.355.839-.555 1.344-.556h4.317c.504.001.988.201 1.344.556.357.356.557.839.558 1.342v35.92c-.001.503-.201.986-.558 1.342-.356.355-.84.556-1.344.556z"/>
    <path fill="#2F2E41" d="M168.243 136.802h-8.483c-.349 0-.684-.139-.931-.385-.246-.247-.385-.581-.385-.929v-29.492c0-.348.139-.682.385-.929.247-.246.582-.384.931-.385h8.483c.349.001.684.139.931.385.246.247.385.581.386.929v29.492c-.001.348-.14.682-.386.929-.247.246-.582.385-.931.385zM180.237 136.802h-8.483c-.349 0-.684-.139-.931-.385-.247-.247-.385-.581-.386-.929v-29.492c.001-.348.139-.682.386-.929.247-.246.582-.384.931-.385h8.483c.349.001.684.139.93.385.247.247.386.581.386.929v29.492c0 .348-.139.682-.386.929-.246.246-.581.385-.93.385z"/>
    <path fill="#2E6EED" d="M165.764 85.7c-.121.082-.246.159-.375.228l-29.726 16.115c-.219.119-.46.193-.708.219-.249.027-.5.004-.739-.067-.239-.071-.463-.188-.657-.345-.194-.157-.355-.35-.474-.569l-2.061-3.788.129-.07-.129.07c-.24-.442-.294-.962-.151-1.444.143-.483.472-.889.915-1.13l29.726-16.114c.913-.494 1.981-.62 2.984-.353 1.004.267 1.867.908 2.411 1.791.544.883.729 1.941.516 2.956-.213 1.015-.808 1.91-1.661 2.5zM170.447 68.14c8.239 0 14.919-6.667 14.919-14.892s-6.68-14.892-14.919-14.892c-8.24 0-14.919 6.667-14.919 14.892s6.679 14.892 14.919 14.892z"/>
    <path fill="#2F2E41" d="M172.191 59.5c-.967-.027-2.171-.06-3.098-.737-.276-.21-.503-.477-.664-.783-.162-.306-.255-.644-.272-.99-.017-.246.024-.492.118-.72.095-.227.24-.43.426-.592.485-.408 1.192-.504 1.954-.28l-.79-5.76.58-.08.928 6.772-.484-.222c-.561-.257-1.331-.388-1.81.016-.118.105-.209.237-.268.383-.058.147-.082.305-.069.462.014.258.083.51.204.737.12.228.288.428.492.586.722.526 1.681.594 2.769.624l-.016.584zM166.999 50.134h-3.151v.584h3.151v-.584zM176.945 50.134h-3.151v.584h3.151v-.584z"/>
    <path fill="#2F2E41" d="M171.491 38.312c.109-1.76.597-3.476 1.429-5.032.832-1.556 1.989-2.916 3.394-3.986 1.45-1.073 3.125-1.805 4.898-2.143 1.773-.337 3.6-.271 5.344.193 1.734.45 3.342 1.286 4.704 2.446 1.362 1.16 2.443 2.614 3.16 4.252.723 1.625 1.083 3.388 1.057 5.166-.08 1.934-.561 3.83-1.414 5.568-.879 1.913-1.989 3.708-2.952 5.578-.95 1.844-1.768 3.752-2.451 5.71-1.389 3.99-2.208 8.156-2.434 12.374-.358 6.649.279 16.356 7.799 18.908 1.912.649 3.975.77 5.979.764 2.112.026 4.218-.22 6.267-.733 3.55-.946 6.919-3.168 8.432-6.62.349-.797.582-1.64.694-2.502.032-.236-.224-.436-.438-.438-.116.003-.226.05-.308.131-.081.082-.129.192-.131.307-.49 3.679-3.561 6.5-6.895 7.768-1.948.705-3.995 1.1-6.066 1.171-2.061.104-4.201.088-6.22-.385-1.796-.388-3.431-1.316-4.684-2.658-1.117-1.284-1.951-2.789-2.446-4.416-1.186-3.617-1.311-7.593-1.102-11.362.236-4.204 1.073-8.353 2.486-12.32.713-2.004 1.574-3.952 2.575-5.828.978-1.836 2.063-3.62 2.887-5.533.804-1.758 1.246-3.66 1.3-5.593.007-1.784-.349-3.552-1.046-5.195-.684-1.65-1.711-3.137-3.012-4.363-1.302-1.226-2.848-2.163-4.538-2.75-1.719-.598-3.545-.83-5.359-.682-1.814.149-3.578.674-5.177 1.543-1.521.873-2.853 2.038-3.921 3.428-1.067 1.39-1.847 2.977-2.296 4.67-.219.838-.35 1.697-.393 2.562-.029.564.849.562.878 0z"/>
    <path fill="#2F2E41" d="M174.408 38.62c.24-1.625 1.055-3.11 2.299-4.186 1.321-1.105 3.015-1.667 4.737-1.57.565.029.563-.847 0-.875-1.871-.085-3.708.52-5.162 1.7-1.453 1.18-2.421 2.852-2.72 4.698-.084.551.761.789.846.233z"/>
    <path fill="#2F2E41" d="M174.723 39.773c-.171 0-.341-.028-.503-.081l-4.167-1.374c-.201-.066-.386-.17-.546-.308-.16-.138-.292-.306-.387-.494-.095-.189-.151-.394-.167-.604-.016-.21.01-.422.077-.622.066-.2.171-.386.309-.545.138-.16.306-.291.495-.386.189-.095.394-.152.605-.167.211-.016.422.01.623.077l4.167 1.373c.363.12.671.364.87.69.199.327.274.713.214 1.09-.061.377-.255.72-.546.968-.291.247-.661.383-1.044.383zM175.384 73.876h-.719c.008-.048.012-.097.014-.146 0-1.21-1.834-2.19-4.095-2.19-2.262 0-4.096.98-4.096 2.19.002.049.006.098.014.146h-.719c-5.588 0-10.119 5.18-10.119 11.57V109.5c0 .31.124.607.343.826.22.219.517.342.828.342h27.497c.311 0 .608-.123.828-.342.219-.219.343-.516.343-.826V85.446c0-6.39-4.531-11.57-10.119-11.57z"/>
    <path fill="#2E6EED" d="M52.287 52.886c-.833.001-1.643-.268-2.31-.767l-.041-.03-8.698-6.642c-.811-.624-1.34-1.543-1.474-2.556-.132-1.013.143-2.037.765-2.848.623-.81 1.543-1.342 2.557-1.477 1.015-.135 2.041.137 2.855.756l5.634 4.313L64.89 26.297c.309-.402.694-.739 1.133-.992.44-.254.924-.418 1.428-.485.503-.066 1.014-.033 1.504.098s.95.357 1.352.665l.002.001-.083.114.085-.114c.812.623 1.344 1.543 1.478 2.557.134 1.014-.14 2.04-.763 2.852l-15.66 20.383c-.363.47-.828.85-1.362 1.111-.533.26-1.12.396-1.713.394l-.003.005z"/>
    <path fill="#3F3D56" d="M101.108 77.672H.293c-.078 0-.152-.03-.207-.085C.03 77.531 0 77.457 0 77.38V.292C0 .215.03.14.086.086.14.03.215 0 .293 0H50.7c.078 0 .152.03.207.086.055.054.086.129.086.206 0 .077-.031.152-.086.206-.055.055-.13.086-.207.086H.585v76.504h100.23V38.836c0-.077.031-.152.086-.206.054-.055.129-.086.207-.086.077 0 .151.03.206.086.055.054.086.129.086.206V77.38c0 .077-.031.152-.086.207-.055.054-.129.085-.206.085z"/>
    <path fill="#2F2E41" d="M142.921 100.261c-.115-.001-.231-.016-.343-.046-.167-.044-.323-.121-.461-.226-.137-.105-.252-.236-.338-.386l-4.68-8.092c-.087-.15-.143-.315-.165-.486-.023-.17-.012-.345.033-.511.045-.167.122-.323.227-.46.106-.137.237-.252.386-.338l20.268-11.68c1.377-.794 3.014-1.009 4.55-.598 1.536.41 2.846 1.414 3.641 2.789.796 1.375 1.011 3.009.6 4.542-.412 1.534-1.417 2.841-2.794 3.635l-20.268 11.68c-.199.115-.425.176-.656.177z"/>
    <path fill="#3F3D56" d="M224.707 146H113.253c-.077 0-.152-.031-.207-.086-.054-.054-.085-.129-.085-.206 0-.077.031-.152.085-.206.055-.055.13-.086.207-.086h111.454c.078 0 .152.031.207.086.055.054.086.129.086.206 0 .077-.031.152-.086.206-.055.055-.129.086-.207.086z"/>
    <path fill="#2E6EED" d="M183.786 117.501c-.163.328-.417.602-.732.79-.315.187-.678.28-1.044.267l-4.315-.158c-.504-.019-.979-.237-1.323-.606-.343-.369-.525-.858-.507-1.361l1.242-33.742c.02-.532.144-1.055.366-1.539s.538-.92.928-1.282c.391-.362.849-.644 1.349-.83.5-.185 1.031-.27 1.564-.25.533.019 1.057.143 1.541.365.485.221.921.536 1.284.926s.646.847.832 1.346c.185.499.271 1.03.251 1.561l-1.242 33.743c-.01.267-.076.53-.194.77z"/>
    <path fill="#2F2E41" d="M185.21 106.726h-9.361c-.349 0-.684-.139-.93-.385-.247-.247-.386-.581-.386-.929v-23.36c0-1.588.631-3.11 1.756-4.233 1.125-1.122 2.65-1.753 4.241-1.753 1.59 0 3.115.63 4.24 1.753 1.125 1.123 1.756 2.645 1.756 4.233v23.36c0 .348-.139.682-.386.929-.246.246-.581.385-.93.385z"/>
</svg>
