<svg width="20" height="20" viewBox="0 0 20 20" fill="none" xmlns="http://www.w3.org/2000/svg">
<path d="M15.7271 15.7272V9.99996C15.7271 6.84189 13.1574 4.27271 9.99979 4.27271C6.84213 4.27271 4.27249 6.84189 4.27249 9.99996V15.7272C3.3704 15.7272 2.63611 16.4611 2.63611 17.3636V18.5909C2.63611 18.817 2.81909 19 3.04521 19H16.9543C17.1805 19 17.3634 18.817 17.3634 18.5909V17.3636C17.3634 16.4611 16.6291 15.7272 15.7271 15.7272ZM5.09069 9.99996C5.09069 7.29295 7.29277 5.09087 9.99979 5.09087C12.7068 5.09087 14.9089 7.29295 14.9089 9.99996V15.7272H5.09069V9.99996V9.99996ZM16.5452 18.1818H3.45432V17.3636C3.45432 16.9126 3.82104 16.5454 4.27249 16.5454H15.7271C16.1785 16.5454 16.5452 16.9126 16.5452 17.3636V18.1818V18.1818Z" fill="black" stroke="black" stroke-width="0.5"/>
<path d="M9.99992 3.45455C10.226 3.45455 10.409 3.27157 10.409 3.04544V1.4091C10.409 1.18298 10.226 1 9.99992 1C9.77384 1 9.59082 1.18298 9.59082 1.4091V3.04548C9.59082 3.27157 9.7738 3.45455 9.99992 3.45455Z" fill="black" stroke="black" stroke-width="0.5"/>
<path d="M14.0903 3.86357C14.195 3.86357 14.2997 3.82361 14.3796 3.74372L15.6077 2.51644C15.7675 2.35705 15.7675 2.09775 15.6077 1.93798C15.4479 1.77816 15.189 1.77816 15.0292 1.93798L13.8011 3.16525C13.6413 3.32464 13.6413 3.58394 13.8011 3.74372C13.881 3.82361 13.9856 3.86357 14.0903 3.86357Z" fill="black" stroke="black" stroke-width="0.5"/>
<path d="M5.61912 3.74372C5.699 3.82361 5.8037 3.86357 5.90837 3.86357C6.01303 3.86357 6.11769 3.82361 6.19762 3.74372C6.35743 3.58433 6.35743 3.32503 6.19762 3.16525L4.97115 1.93798C4.81134 1.77816 4.55246 1.77816 4.39269 1.93798C4.23287 2.09737 4.23287 2.35667 4.39269 2.51644L5.61912 3.74372Z" fill="black" stroke="black" stroke-width="0.5"/>
<path d="M18.9568 5.72624C18.8553 5.52408 18.6109 5.44339 18.4079 5.54326L16.7715 6.36143C16.5694 6.46249 16.4879 6.70821 16.5885 6.91036C16.6604 7.0538 16.8051 7.13649 16.9545 7.13649C17.016 7.13649 17.0783 7.12249 17.1375 7.09334L18.7738 6.27517C18.976 6.17408 19.0575 5.92839 18.9568 5.72624Z" fill="black" stroke="black" stroke-width="0.5"/>
<path d="M3.04546 7.13639C3.19488 7.13639 3.3395 7.0537 3.41141 6.91026C3.51209 6.70811 3.43059 6.46242 3.22844 6.36132L1.59206 5.54315C1.38991 5.44409 1.14461 5.52397 1.04313 5.72613C0.942451 5.92829 1.02395 6.17397 1.2261 6.27507L2.86248 7.09324C2.92162 7.12239 2.98394 7.13639 3.04546 7.13639Z" fill="black" stroke="black" stroke-width="0.5"/>
<path d="M10.4909 6.3999C8.23534 6.3999 6.40002 8.23521 6.40002 10.4908C6.40002 10.717 6.583 10.8999 6.80913 10.8999C7.03525 10.8999 7.21823 10.717 7.21823 10.4908C7.21823 8.68627 8.68601 7.21811 10.4909 7.21811C10.7171 7.21811 10.9001 7.03513 10.9001 6.80901C10.9001 6.58288 10.717 6.3999 10.4909 6.3999Z" fill="black" stroke="black" stroke-width="0.5"/>
</svg>
