<svg width="20" height="20" viewBox="0 0 20 20" fill="none" xmlns="http://www.w3.org/2000/svg">
<path d="M1.66831 8.02509C1.64914 8.36759 1.84081 8.68676 2.15247 8.83009L8.40581 11.6984L11.2741 17.9509C11.4108 18.2476 11.7075 18.4368 12.0316 18.4368C12.0475 18.4368 12.0625 18.4359 12.0791 18.4351C12.4208 18.4168 12.7166 18.1893 12.8241 17.8634L17.4866 3.67009C17.5841 3.37176 17.5058 3.04259 17.2841 2.82009C17.0625 2.59759 16.7341 2.52176 16.4341 2.61759L2.23997 7.28009C1.91414 7.38759 1.68664 7.68342 1.66831 8.02509ZM15.3883 4.71592L11.9033 15.3243L9.79164 10.7226C9.70747 10.5409 9.56331 10.3951 9.38164 10.3126L4.77831 8.20092L15.3883 4.71592Z" fill="black"/>
</svg>
