<svg width="20" height="20" viewBox="0 0 20 20" fill="none" xmlns="http://www.w3.org/2000/svg">
<path d="M15.7272 15.7272V9.99996C15.7272 6.84189 13.1576 4.27271 9.99991 4.27271C6.84225 4.27271 4.27261 6.84189 4.27261 9.99996V15.7272C3.37052 15.7272 2.63623 16.4611 2.63623 17.3636V18.5909C2.63623 18.817 2.81921 19 3.04533 19H16.9544C17.1806 19 17.3636 18.817 17.3636 18.5909V17.3636C17.3636 16.4611 16.6293 15.7272 15.7272 15.7272ZM5.09082 9.99996C5.09082 7.29295 7.29289 5.09087 9.99991 5.09087C12.7069 5.09087 14.909 7.29295 14.909 9.99996V15.7272H5.09082V9.99996V9.99996ZM16.5453 18.1818H3.45444V17.3636C3.45444 16.9126 3.82116 16.5454 4.27261 16.5454H15.7272C16.1786 16.5454 16.5453 16.9126 16.5453 17.3636V18.1818V18.1818Z" fill="#2E6EED" stroke="#2E6EED" stroke-width="0.5"/>
<path d="M9.99992 3.45455C10.226 3.45455 10.409 3.27157 10.409 3.04544V1.4091C10.409 1.18298 10.226 1 9.99992 1C9.77384 1 9.59082 1.18298 9.59082 1.4091V3.04548C9.59082 3.27157 9.7738 3.45455 9.99992 3.45455Z" fill="#2E6EED" stroke="#2E6EED" stroke-width="0.5"/>
<path d="M14.0902 3.86357C14.1949 3.86357 14.2995 3.82361 14.3795 3.74372L15.6075 2.51644C15.7674 2.35705 15.7674 2.09775 15.6075 1.93798C15.4477 1.77816 15.1889 1.77816 15.0291 1.93798L13.801 3.16525C13.6412 3.32464 13.6412 3.58394 13.801 3.74372C13.8809 3.82361 13.9855 3.86357 14.0902 3.86357Z" fill="#2E6EED" stroke="#2E6EED" stroke-width="0.5"/>
<path d="M5.61924 3.74372C5.69913 3.82361 5.80383 3.86357 5.90849 3.86357C6.01315 3.86357 6.11782 3.82361 6.19774 3.74372C6.35756 3.58433 6.35756 3.32503 6.19774 3.16525L4.97128 1.93798C4.81146 1.77816 4.55258 1.77816 4.39281 1.93798C4.233 2.09737 4.233 2.35667 4.39281 2.51644L5.61924 3.74372Z" fill="#2E6EED" stroke="#2E6EED" stroke-width="0.5"/>
<path d="M18.9568 5.72624C18.8553 5.52408 18.6109 5.44339 18.4079 5.54326L16.7715 6.36143C16.5694 6.46249 16.4879 6.70821 16.5885 6.91036C16.6604 7.0538 16.8051 7.13649 16.9545 7.13649C17.016 7.13649 17.0783 7.12249 17.1375 7.09334L18.7738 6.27517C18.976 6.17408 19.0575 5.92839 18.9568 5.72624Z" fill="#2E6EED" stroke="#2E6EED" stroke-width="0.5"/>
<path d="M3.04546 7.13639C3.19488 7.13639 3.3395 7.0537 3.41141 6.91026C3.51209 6.70811 3.43059 6.46242 3.22844 6.36132L1.59206 5.54315C1.38991 5.44409 1.14461 5.52397 1.04313 5.72613C0.942451 5.92829 1.02395 6.17397 1.2261 6.27507L2.86248 7.09324C2.92162 7.12239 2.98394 7.13639 3.04546 7.13639Z" fill="#2E6EED" stroke="#2E6EED" stroke-width="0.5"/>
<path d="M10.4911 6.3999C8.23546 6.3999 6.40015 8.23521 6.40015 10.4908C6.40015 10.717 6.58313 10.8999 6.80925 10.8999C7.03538 10.8999 7.21835 10.717 7.21835 10.4908C7.21835 8.68627 8.68614 7.21811 10.4911 7.21811C10.7172 7.21811 10.9002 7.03513 10.9002 6.80901C10.9002 6.58288 10.7172 6.3999 10.4911 6.3999Z" fill="#2E6EED" stroke="#2E6EED" stroke-width="0.5"/>
</svg>
