<svg width="372" height="60" viewBox="0 0 372 60" fill="none" xmlns="http://www.w3.org/2000/svg">
<path fill-rule="evenodd" clip-rule="evenodd" d="M6.10352 29.7021V30.2969V30.2938C6.10352 30.1955 6.10657 30.0972 6.1086 30C6.10657 29.9017 6.10352 29.8034 6.10352 29.7052V29.7021ZM8.58029 29.4289C8.50604 29.1465 8.35142 28.8993 8.13271 28.7214C7.91502 28.5434 7.64952 28.4483 7.37486 28.4483C7.10123 28.4483 6.83471 28.5434 6.61702 28.7214C6.39831 28.8993 6.24369 29.1465 6.16943 29.4289C6.13383 29.5634 6.11857 29.6989 6.11043 29.8365C6.10738 29.8914 6.10942 29.9452 6.1084 30C6.10942 30.0538 6.10738 30.1086 6.11043 30.1624C6.11857 30.301 6.13383 30.4355 6.16943 30.57C6.24369 30.8524 6.39831 31.0996 6.61702 31.2776C6.83471 31.4555 7.10123 31.5517 7.37486 31.5517C7.64952 31.5517 7.91502 31.4555 8.13271 31.2776C8.35142 31.0996 8.50604 30.8524 8.58029 30.57C8.6159 30.4355 8.63116 30.301 8.63929 30.1624C8.64235 30.1086 8.64031 30.0538 8.64133 30C8.64031 29.9452 8.64235 29.8914 8.63929 29.8365C8.63116 29.6989 8.6159 29.5634 8.58029 29.4289ZM8.6416 30C8.64364 30.0972 8.64669 30.1955 8.64669 30.2938V30.2969V29.7021V29.7052C8.64669 29.8034 8.64364 29.9017 8.6416 30ZM14.6838 29.4289C14.6096 29.1465 14.4549 28.8993 14.2362 28.7214C14.0185 28.5434 13.753 28.4483 13.4784 28.4483C13.2047 28.4483 12.9382 28.5434 12.7205 28.7214C12.5018 28.8993 12.3472 29.1465 12.2729 29.4289C12.2373 29.5634 12.2221 29.6989 12.2139 29.8365C12.2109 29.8914 12.2129 29.9452 12.2119 30C12.2129 30.0538 12.2109 30.1086 12.2139 30.1624C12.2221 30.301 12.2373 30.4355 12.2729 30.57C12.3472 30.8524 12.5018 31.0996 12.7205 31.2776C12.9382 31.4555 13.2047 31.5517 13.4784 31.5517C13.753 31.5517 14.0185 31.4555 14.2362 31.2776C14.4549 31.0996 14.6096 30.8524 14.6838 30.57C14.7194 30.4355 14.7347 30.301 14.7428 30.1624C14.7459 30.1086 14.7438 30.0538 14.7448 30C14.7438 29.9452 14.7459 29.8914 14.7428 29.8365C14.7347 29.6989 14.7194 29.5634 14.6838 29.4289ZM14.7502 30.2938V29.7052C14.7502 29.8034 14.7472 29.9017 14.7451 30C14.7472 30.0972 14.7502 30.1955 14.7502 30.2938ZM12.2068 29.7021V30.2969V30.2938C12.2068 30.1955 12.2098 30.0972 12.2119 30C12.2098 29.9017 12.2068 29.8034 12.2068 29.7052V29.7021ZM20.8463 28.8021C20.8381 28.6645 20.8229 28.529 20.7873 28.3945C20.713 28.1121 20.5584 27.8648 20.3397 27.6869C20.122 27.509 19.8565 27.4138 19.5819 27.4138C19.3082 27.4138 19.0417 27.509 18.824 27.6869C18.6053 27.8648 18.4507 28.1121 18.3764 28.3945C18.3408 28.529 18.3256 28.6645 18.3174 28.8021C18.3103 28.9552 18.3103 29.1073 18.3103 29.2593V29.2624V30.7366V30.7397C18.3103 30.8917 18.3103 31.0438 18.3174 31.1969C18.3256 31.3355 18.3408 31.47 18.3764 31.6045C18.4507 31.8869 18.6053 32.1342 18.824 32.3121C19.0417 32.49 19.3082 32.5862 19.5819 32.5862C19.8565 32.5862 20.122 32.49 20.3397 32.3121C20.5584 32.1342 20.713 31.8869 20.7873 31.6045C20.8229 31.47 20.8381 31.3355 20.8463 31.1969C20.8534 31.0438 20.8534 30.8917 20.8534 30.7397V30.7366V29.2624V29.2593C20.8534 29.1073 20.8534 28.9552 20.8463 28.8021ZM24.4138 29.1879V30.811C24.4138 30.6589 24.4138 30.5068 24.4209 30.3537C24.4281 30.2337 24.4454 30.1168 24.4718 30C24.4454 29.882 24.4281 29.7651 24.4209 29.6451C24.4138 29.492 24.4138 29.34 24.4138 29.1879ZM26.4431 29.2387C26.2254 29.0607 25.9599 28.9655 25.6852 28.9655C25.4116 28.9655 25.1451 29.0607 24.9274 29.2387C24.7087 29.4166 24.5541 29.6638 24.4798 29.9462C24.4757 29.9638 24.4757 29.9824 24.4717 30C24.4757 30.0176 24.4757 30.0352 24.4798 30.0528C24.5541 30.3352 24.7087 30.5824 24.9274 30.7604C25.1451 30.9383 25.4116 31.0345 25.6852 31.0345C25.9599 31.0345 26.2254 30.9383 26.4431 30.7604C26.6618 30.5824 26.8164 30.3352 26.8907 30.0528C26.8947 30.0352 26.8947 30.0176 26.8988 30C26.8947 29.9824 26.8947 29.9638 26.8907 29.9462C26.8164 29.6638 26.6618 29.4166 26.4431 29.2387ZM26.8989 30C26.9254 30.1168 26.9427 30.2337 26.9498 30.3537C26.9569 30.5068 26.9569 30.6589 26.9569 30.811V29.1879C26.9569 29.34 26.9569 29.492 26.9498 29.6451C26.9427 29.7651 26.9254 29.882 26.8989 30ZM32.4855 28.3945C32.4113 28.1121 32.2566 27.8648 32.0379 27.6869C31.8203 27.509 31.5548 27.4138 31.2801 27.4138C31.0065 27.4138 30.7399 27.509 30.5223 27.6869C30.3035 27.8648 30.1489 28.1121 30.0747 28.3945C30.0391 28.529 30.0238 28.6645 30.0157 28.8021C30.0085 28.9552 30.0085 29.1073 30.0085 29.2593V30.7397C30.0085 30.8917 30.0085 31.0438 30.0157 31.1969C30.0238 31.3355 30.0391 31.47 30.0747 31.6045C30.1489 31.8869 30.3035 32.1342 30.5223 32.3121C30.7399 32.49 31.0065 32.5862 31.2801 32.5862C31.5548 32.5862 31.8203 32.49 32.0379 32.3121C32.2566 32.1342 32.4113 31.8869 32.4855 31.6045C32.5211 31.47 32.5364 31.3355 32.5445 31.1969C32.5516 31.0438 32.5516 30.8917 32.5516 30.7397V29.2593C32.5516 29.1073 32.5516 28.9552 32.5445 28.8021C32.5364 28.6645 32.5211 28.529 32.4855 28.3945ZM38.648 28.2848C38.6399 28.1472 38.6246 28.0117 38.589 27.8772C38.5148 27.5948 38.3602 27.3476 38.1415 27.1696C37.9238 26.9917 37.6583 26.8965 37.3836 26.8965C37.11 26.8965 36.8435 26.9917 36.6258 27.1696C36.4071 27.3476 36.2524 27.5948 36.1782 27.8772C36.1426 28.0117 36.1273 28.1472 36.1192 28.2848C36.1121 28.4379 36.1121 28.59 36.1121 28.742V28.7451V31.2538V31.2569C36.1121 31.4089 36.1121 31.561 36.1192 31.7141C36.1273 31.8527 36.1426 31.9872 36.1782 32.1217C36.2524 32.4041 36.4071 32.6513 36.6258 32.8293C36.8435 33.0072 37.11 33.1034 37.3836 33.1034C37.6583 33.1034 37.9238 33.0072 38.1415 32.8293C38.3602 32.6513 38.5148 32.4041 38.589 32.1217C38.6246 31.9872 38.6399 31.8527 38.648 31.7141C38.6552 31.561 38.6552 31.4089 38.6552 31.2569V31.2538V28.7451V28.742C38.6552 28.59 38.6552 28.4379 38.648 28.2848ZM44.6926 22.1875C44.6183 21.9051 44.4637 21.6579 44.245 21.4799C44.0273 21.302 43.7618 21.2068 43.4871 21.2068C43.2135 21.2068 42.947 21.302 42.7293 21.4799C42.5106 21.6579 42.356 21.9051 42.2817 22.1875C42.2461 22.322 42.2308 22.4575 42.2227 22.5951C42.2156 22.7482 42.2156 22.9003 42.2156 23.0524V36.9465C42.2156 37.0986 42.2156 37.2506 42.2227 37.4037C42.2308 37.5424 42.2461 37.6768 42.2817 37.8103C42.356 38.0937 42.5106 38.341 42.7293 38.5189C42.947 38.6968 43.2135 38.793 43.4871 38.793C43.7618 38.793 44.0273 38.6968 44.245 38.5189C44.4637 38.341 44.6183 38.0937 44.6926 37.8103C44.7282 37.6768 44.7434 37.5424 44.7516 37.4037C44.7587 37.2506 44.7587 37.0986 44.7587 36.9465V23.0524C44.7587 22.9003 44.7587 22.7482 44.7516 22.5951C44.7434 22.4575 44.7282 22.322 44.6926 22.1875ZM50.8548 27.2503C50.8467 27.1128 50.8314 26.9772 50.7958 26.8428C50.7216 26.5603 50.567 26.3131 50.3482 26.1352C50.1306 25.9572 49.8651 25.8621 49.5904 25.8621C49.3168 25.8621 49.0502 25.9572 48.8326 26.1352C48.6138 26.3131 48.4592 26.5603 48.385 26.8428C48.3494 26.9772 48.3341 27.1128 48.326 27.2503C48.3188 27.4034 48.3188 27.5555 48.3188 27.7076V27.7107V31.771V31.7741C48.3188 31.9262 48.3188 32.5955 48.326 32.7486C48.3341 32.8872 48.3494 33.0217 48.385 33.1562C48.4592 33.4386 48.6138 33.6859 48.8326 33.8638C49.0502 34.0417 49.3168 34.1379 49.5904 34.1379C49.8651 34.1379 50.1306 34.0417 50.3482 33.8638C50.567 33.6859 50.7216 33.4386 50.7958 33.1562C50.8314 33.0217 50.8467 32.8872 50.8548 32.7486C50.8619 32.5955 50.8619 31.9262 50.8619 31.7741V31.771V27.7107V27.7076C50.8619 27.5555 50.8619 27.4034 50.8548 27.2503ZM56.9583 21.0435C56.9502 20.9059 56.9349 20.7704 56.8993 20.6359C56.8251 20.3535 56.6705 20.1063 56.4518 19.9283C56.2341 19.7504 55.9686 19.6552 55.6939 19.6552C55.4203 19.6552 55.1538 19.7504 54.9361 19.9283C54.7174 20.1063 54.5627 20.3535 54.4885 20.6359C54.4529 20.7704 54.4376 20.9059 54.4295 21.0435C54.4224 21.1966 54.4224 21.3487 54.4224 21.5007V21.5038V38.4952V38.4983C54.4224 38.6514 54.4224 38.8025 54.4295 38.9556C54.4376 39.0942 54.4529 39.2287 54.4885 39.3621C54.5627 39.6456 54.7174 39.8928 54.9361 40.0707C55.1538 40.2487 55.4203 40.3449 55.6939 40.3449C55.9686 40.3449 56.2341 40.2487 56.4518 40.0707C56.6705 39.8928 56.8251 39.6456 56.8993 39.3621C56.9349 39.2287 56.9502 39.0942 56.9583 38.9556C56.9655 38.8025 56.9655 38.6514 56.9655 38.4983V38.4952V21.5038V21.5007C56.9655 21.3487 56.9655 21.1966 56.9583 21.0435ZM63.0619 19.4918C63.0537 19.3542 63.0385 19.2187 63.0029 19.0842C62.9286 18.8018 62.774 18.5545 62.5553 18.3766C62.3376 18.1987 62.0721 18.1035 61.7974 18.1035C61.5238 18.1035 61.2573 18.1987 61.0396 18.3766C60.8209 18.5545 60.6663 18.8018 60.592 19.0842C60.5564 19.2187 60.5411 19.3542 60.533 19.4918C60.5259 19.6449 60.5259 19.7969 60.5259 19.949V19.9521V40.0469V40.05C60.5259 40.2031 60.5259 40.3542 60.533 40.5073C60.5411 40.6459 60.5564 40.7804 60.592 40.9138C60.6663 41.1973 60.8209 41.4445 61.0396 41.6224C61.2573 41.8004 61.5238 41.8966 61.7974 41.8966C62.0721 41.8966 62.3376 41.8004 62.5553 41.6224C62.774 41.4445 62.9286 41.1973 63.0029 40.9138C63.0385 40.7804 63.0537 40.6459 63.0619 40.5073C63.069 40.3542 63.069 40.2031 63.069 40.05V40.0469V19.9521V19.949C63.069 19.7969 63.069 19.6449 63.0619 19.4918ZM69.1654 27.2503C69.1572 27.1128 69.142 26.9772 69.1064 26.8428C69.0321 26.5603 68.8775 26.3131 68.6588 26.1352C68.4411 25.9572 68.1756 25.8621 67.9009 25.8621C67.6273 25.8621 67.3608 25.9572 67.1431 26.1352C66.9244 26.3131 66.7698 26.5603 66.6955 26.8428C66.6599 26.9772 66.6447 27.1128 66.6365 27.2503C66.6294 27.4034 66.6294 27.5555 66.6294 27.7076V27.7107V32.2883V32.2914C66.6294 32.4434 66.6294 32.5955 66.6365 32.7486C66.6447 32.8872 66.6599 33.0217 66.6955 33.1562C66.7698 33.4386 66.9244 33.6859 67.1431 33.8638C67.3608 34.0417 67.6273 34.1379 67.9009 34.1379C68.1756 34.1379 68.4411 34.0417 68.6588 33.8638C68.8775 33.6859 69.0321 33.4386 69.1064 33.1562C69.142 33.0217 69.1572 32.8872 69.1654 32.7486C69.1725 32.5955 69.1725 32.4434 69.1725 32.2914V32.2883V27.7107V27.7076C69.1725 27.5555 69.1725 27.4034 69.1654 27.2503ZM75.2096 14.9462C75.1354 14.6638 74.9808 14.4166 74.7621 14.2387C74.5444 14.0607 74.2789 13.9655 74.0042 13.9655C73.7306 13.9655 73.4641 14.0607 73.2464 14.2387C73.0277 14.4166 72.873 14.6638 72.7988 14.9462C72.7632 15.0807 72.7479 15.2162 72.7398 15.3538C72.7327 15.5069 72.7327 15.659 72.7327 15.8111V44.188C72.7327 44.3411 72.7327 44.4921 72.7398 44.6452C72.7479 44.7838 72.7632 44.9183 72.7988 45.0518C72.873 45.3352 73.0277 45.5824 73.2464 45.7604C73.4641 45.9383 73.7306 46.0345 74.0042 46.0345C74.2789 46.0345 74.5444 45.9383 74.7621 45.7604C74.9808 45.5824 75.1354 45.3352 75.2096 45.0518C75.2453 44.9183 75.2605 44.7838 75.2686 44.6452C75.2758 44.4921 75.2758 44.3411 75.2758 44.188V15.8111C75.2758 15.659 75.2758 15.5069 75.2686 15.3538C75.2605 15.2162 75.2453 15.0807 75.2096 14.9462ZM81.3722 25.1814C81.364 25.0438 81.3488 24.9083 81.3132 24.7738C81.2389 24.4914 81.0843 24.2442 80.8656 24.0663C80.6479 23.8883 80.3824 23.7932 80.1077 23.7932C79.8341 23.7932 79.5676 23.8883 79.3499 24.0663C79.1312 24.2442 78.9766 24.4914 78.9023 24.7738C78.8667 24.9083 78.8514 25.0438 78.8433 25.1814C78.8362 25.3345 78.8362 25.4866 78.8362 25.6387V25.6418V34.3573V34.3604C78.8362 34.5125 78.8362 34.6645 78.8433 34.8176C78.8514 34.9563 78.8667 35.0907 78.9023 35.2252C78.9766 35.5076 79.1312 35.7549 79.3499 35.9328C79.5676 36.1107 79.8341 36.207 80.1077 36.207C80.3824 36.207 80.6479 36.1107 80.8656 35.9328C81.0843 35.7549 81.2389 35.5076 81.3132 35.2252C81.3488 35.0907 81.364 34.9563 81.3722 34.8176C81.3793 34.6645 81.3793 34.5125 81.3793 34.3604V34.3573V25.6418V25.6387C81.3793 25.4866 81.3793 25.3345 81.3722 25.1814ZM87.4167 21.1531C87.3424 20.8707 87.1878 20.6234 86.9691 20.4455C86.7514 20.2676 86.4859 20.1724 86.2113 20.1724C85.9376 20.1724 85.6711 20.2676 85.4534 20.4455C85.2347 20.6234 85.0801 20.8707 85.0058 21.1531C84.9702 21.2876 84.955 21.4231 84.9468 21.5607C84.9397 21.7138 84.9397 21.8658 84.9397 22.0179V37.981C84.9397 38.1341 84.9397 38.2851 84.9468 38.4383C84.955 38.5769 84.9702 38.7114 85.0058 38.8448C85.0801 39.1283 85.2347 39.3755 85.4534 39.5534C85.6711 39.7314 85.9376 39.8276 86.2113 39.8276C86.4859 39.8276 86.7514 39.7314 86.9691 39.5534C87.1878 39.3755 87.3424 39.1283 87.4167 38.8448C87.4523 38.7114 87.4675 38.5769 87.4757 38.4383C87.4828 38.2851 87.4828 38.1341 87.4828 37.981V22.0179C87.4828 21.8658 87.4828 21.7138 87.4757 21.5607C87.4675 21.4231 87.4523 21.2876 87.4167 21.1531ZM93.0114 28.9118C92.9371 28.6294 92.7825 28.3821 92.5638 28.2042C92.3461 28.0263 92.0806 27.9311 91.806 27.9311C91.5323 27.9311 91.2658 28.0263 91.0481 28.2042C90.8294 28.3821 90.6748 28.6294 90.6005 28.9118C90.5649 29.0463 90.5497 29.1818 90.5415 29.3194C90.5344 29.4725 90.5344 29.6245 90.5344 29.7766V30.2225C90.5344 30.3745 90.5344 30.5266 90.5415 30.6797C90.5497 30.8183 90.5649 30.9528 90.6005 31.0873C90.6748 31.3697 90.8294 31.617 91.0481 31.7949C91.2658 31.9728 91.5323 32.069 91.806 32.069C92.0806 32.069 92.3461 31.9728 92.5638 31.7949C92.7825 31.617 92.9371 31.3697 93.0114 31.0873C93.047 30.9528 93.0623 30.8183 93.0704 30.6797C93.0775 30.5266 93.0775 30.3745 93.0775 30.2225V29.7766C93.0775 29.6245 93.0775 29.4725 93.0704 29.3194C93.0623 29.1818 93.047 29.0463 93.0114 28.9118ZM99.1739 16.9056C99.1658 16.768 99.1505 16.6325 99.1149 16.498C99.0407 16.2156 98.886 15.9683 98.6673 15.7904C98.4496 15.6125 98.1841 15.5173 97.9095 15.5173C97.6359 15.5173 97.3693 15.6125 97.1516 15.7904C96.9329 15.9683 96.7783 16.2156 96.7041 16.498C96.6685 16.6325 96.6532 16.768 96.6451 16.9056C96.6379 17.0587 96.6379 17.2107 96.6379 17.3628V17.3659V42.6332V42.6363C96.6379 42.7894 96.6379 42.9404 96.6451 43.0935C96.6532 43.2321 96.6685 43.3666 96.7041 43.5C96.7783 43.7835 96.9329 44.0307 97.1516 44.2087C97.3693 44.3866 97.6359 44.4828 97.9095 44.4828C98.1841 44.4828 98.4496 44.3866 98.6673 44.2087C98.886 44.0307 99.0407 43.7835 99.1149 43.5C99.1505 43.3666 99.1658 43.2321 99.1739 43.0935C99.181 42.9404 99.181 42.7894 99.181 42.6363V42.6332V17.3659V17.3628C99.181 17.2107 99.181 17.0587 99.1739 16.9056ZM105.218 10.291C105.144 10.0086 104.99 9.76136 104.771 9.58343C104.553 9.4055 104.288 9.31032 104.013 9.31032C103.739 9.31032 103.473 9.4055 103.255 9.58343C103.036 9.76136 102.882 10.0086 102.808 10.291C102.772 10.4255 102.757 10.561 102.749 10.6986C102.741 10.8517 102.741 11.0038 102.741 11.1558V11.1589V48.84V48.8431C102.741 48.9962 102.741 49.1472 102.749 49.3003C102.757 49.4389 102.772 49.5734 102.808 49.7069C102.882 49.9903 103.036 50.2376 103.255 50.4155C103.473 50.5934 103.739 50.6896 104.013 50.6896C104.288 50.6896 104.553 50.5934 104.771 50.4155C104.99 50.2376 105.144 49.9903 105.218 49.7069C105.254 49.5734 105.269 49.4389 105.277 49.3003C105.285 49.1472 105.285 48.9962 105.285 48.8431V11.1558C105.285 11.0038 105.285 10.8517 105.277 10.6986C105.269 10.561 105.254 10.4255 105.218 10.291ZM111.381 13.8021C111.373 13.6645 111.357 13.529 111.322 13.3945C111.247 13.1121 111.093 12.8648 110.874 12.6869C110.656 12.509 110.391 12.4138 110.116 12.4138C109.843 12.4138 109.576 12.509 109.358 12.6869C109.14 12.8648 108.985 13.1121 108.911 13.3945C108.875 13.529 108.86 13.6645 108.852 13.8021C108.845 13.9552 108.845 14.1073 108.845 14.2593V14.2624V45.7366V45.7397C108.845 45.8928 108.845 46.0438 108.852 46.1969C108.86 46.3355 108.875 46.47 108.911 46.6035C108.985 46.8869 109.14 47.1342 109.358 47.3121C109.576 47.49 109.843 47.5862 110.116 47.5862C110.391 47.5862 110.656 47.49 110.874 47.3121C111.093 47.1342 111.247 46.8869 111.322 46.6035C111.357 46.47 111.373 46.3355 111.381 46.1969C111.388 46.0438 111.388 45.8928 111.388 45.7397V45.7366V14.2624V14.2593C111.388 14.1073 111.388 13.9552 111.381 13.8021ZM117.484 21.0435C117.476 20.9059 117.461 20.7704 117.425 20.6359C117.351 20.3535 117.196 20.1063 116.978 19.9283C116.76 19.7504 116.494 19.6552 116.22 19.6552C115.946 19.6552 115.68 19.7504 115.462 19.9283C115.243 20.1063 115.089 20.3535 115.014 20.6359C114.979 20.7704 114.964 20.9059 114.955 21.0435C114.948 21.1966 114.948 21.3487 114.948 21.5007V21.5038V38.4952V38.4983C114.948 38.6514 114.948 38.8025 114.955 38.9556C114.964 39.0942 114.979 39.2287 115.014 39.3621C115.089 39.6456 115.243 39.8928 115.462 40.0707C115.68 40.2487 115.946 40.3449 116.22 40.3449C116.494 40.3449 116.76 40.2487 116.978 40.0707C117.196 39.8928 117.351 39.6456 117.425 39.3621C117.461 39.2287 117.476 39.0942 117.484 38.9556C117.491 38.8025 117.491 38.6514 117.491 38.4983V38.4952V21.5038V21.5007C117.491 21.3487 117.491 21.1966 117.484 21.0435ZM123.529 13.3945C123.454 13.1121 123.3 12.8648 123.081 12.6869C122.863 12.509 122.598 12.4138 122.323 12.4138C122.05 12.4138 121.783 12.509 121.565 12.6869C121.347 12.8648 121.192 13.1121 121.118 13.3945C121.082 13.529 121.067 13.6645 121.059 13.8021C121.052 13.9552 121.052 14.1073 121.052 14.2593V14.2624V45.7366V45.7397C121.052 45.8928 121.052 46.0438 121.059 46.1969C121.067 46.3355 121.082 46.47 121.118 46.6035C121.192 46.8869 121.347 47.1342 121.565 47.3121C121.783 47.49 122.05 47.5862 122.323 47.5862C122.598 47.5862 122.863 47.49 123.081 47.3121C123.3 47.1342 123.454 46.8869 123.529 46.6035C123.564 46.47 123.58 46.3355 123.588 46.1969C123.595 46.0438 123.595 45.8928 123.595 45.7397V14.2593C123.595 14.1073 123.595 13.9552 123.588 13.8021C123.58 13.6645 123.564 13.529 123.529 13.3945ZM129.691 15.871C129.683 15.7334 129.668 15.5979 129.632 15.4634C129.558 15.181 129.403 14.9337 129.185 14.7558C128.967 14.5779 128.701 14.4827 128.427 14.4827C128.153 14.4827 127.887 14.5779 127.669 14.7558C127.45 14.9337 127.296 15.181 127.221 15.4634C127.186 15.5979 127.171 15.7334 127.162 15.871C127.155 16.0241 127.155 16.1762 127.155 16.3282V16.3313V43.6675V43.6706C127.155 43.8237 127.155 43.9748 127.162 44.1279C127.171 44.2665 127.186 44.401 127.221 44.5344C127.296 44.8179 127.45 45.0651 127.669 45.2431C127.887 45.421 128.153 45.5172 128.427 45.5172C128.701 45.5172 128.967 45.421 129.185 45.2431C129.403 45.0651 129.558 44.8179 129.632 44.5344C129.668 44.401 129.683 44.2665 129.691 44.1279C129.698 43.9748 129.698 43.8237 129.698 43.6706V43.6675V16.3313V16.3282C129.698 16.1762 129.698 16.0241 129.691 15.871ZM135.736 24.7738C135.661 24.4914 135.507 24.2442 135.288 24.0663C135.07 23.8883 134.805 23.7932 134.53 23.7932C134.256 23.7932 133.99 23.8883 133.772 24.0663C133.554 24.2442 133.399 24.4914 133.325 24.7738C133.289 24.9083 133.274 25.0438 133.266 25.1814C133.259 25.3345 133.259 25.4866 133.259 25.6387V34.3604C133.259 34.5125 133.259 34.6645 133.266 34.8176C133.274 34.9563 133.289 35.0907 133.325 35.2252C133.399 35.5076 133.554 35.7549 133.772 35.9328C133.99 36.1107 134.256 36.207 134.53 36.207C134.805 36.207 135.07 36.1107 135.288 35.9328C135.507 35.7549 135.661 35.5076 135.736 35.2252C135.771 35.0907 135.786 34.9563 135.795 34.8176C135.802 34.6645 135.802 34.5125 135.802 34.3604V25.6387C135.802 25.4866 135.802 25.3345 135.795 25.1814C135.786 25.0438 135.771 24.9083 135.736 24.7738ZM141.898 23.1124C141.89 22.9748 141.875 22.8393 141.839 22.7048C141.765 22.4224 141.61 22.1752 141.391 21.9972C141.174 21.8193 140.908 21.7241 140.634 21.7241C140.36 21.7241 140.093 21.8193 139.876 21.9972C139.657 22.1752 139.502 22.4224 139.428 22.7048C139.393 22.8393 139.377 22.9748 139.369 23.1124C139.362 23.2655 139.362 23.4176 139.362 23.5696V23.5728V36.4262V36.4293C139.362 36.5814 139.362 36.7334 139.369 36.8865C139.377 37.0252 139.393 37.1596 139.428 37.2931C139.502 37.5765 139.657 37.8238 139.876 38.0017C140.093 38.1796 140.36 38.2759 140.634 38.2759C140.908 38.2759 141.174 38.1796 141.391 38.0017C141.61 37.8238 141.765 37.5765 141.839 37.2931C141.875 37.1596 141.89 37.0252 141.898 36.8865C141.905 36.7334 141.905 36.5814 141.905 36.4293V36.4262V23.5728V23.5696C141.905 23.4176 141.905 23.2655 141.898 23.1124ZM147.943 25.8083C147.868 25.5259 147.714 25.2786 147.495 25.1007C147.277 24.9228 147.012 24.8276 146.737 24.8276C146.463 24.8276 146.197 24.9228 145.979 25.1007C145.761 25.2786 145.606 25.5259 145.532 25.8083C145.496 25.9428 145.481 26.0783 145.473 26.2159C145.466 26.369 145.466 26.5211 145.466 26.6731V33.3259C145.466 33.478 145.466 33.63 145.473 33.7831C145.481 33.9217 145.496 34.0562 145.532 34.1907C145.606 34.4731 145.761 34.7204 145.979 34.8983C146.197 35.0762 146.463 35.1724 146.737 35.1724C147.012 35.1724 147.277 35.0762 147.495 34.8983C147.714 34.7204 147.868 34.4731 147.943 34.1907C147.978 34.0562 147.993 33.9217 148.002 33.7831C148.009 33.63 148.009 33.478 148.009 33.3259V26.6731C148.009 26.5211 148.009 26.369 148.002 26.2159C147.993 26.0783 147.978 25.9428 147.943 25.8083ZM154.105 28.2848C154.097 28.1472 154.081 28.0117 154.046 27.8772C153.972 27.5948 153.817 27.3476 153.598 27.1696C153.381 26.9917 153.115 26.8965 152.84 26.8965C152.567 26.8965 152.3 26.9917 152.083 27.1696C151.864 27.3476 151.709 27.5948 151.635 27.8772C151.599 28.0117 151.584 28.1472 151.576 28.2848C151.569 28.4379 151.569 28.59 151.569 28.742V28.7451V31.2538V31.2569C151.569 31.4089 151.569 31.561 151.576 31.7141C151.584 31.8527 151.599 31.9872 151.635 32.1217C151.709 32.4041 151.864 32.6513 152.083 32.8293C152.3 33.0072 152.567 33.1034 152.84 33.1034C153.115 33.1034 153.381 33.0072 153.598 32.8293C153.817 32.6513 153.972 32.4041 154.046 32.1217C154.081 31.9872 154.097 31.8527 154.105 31.7141C154.112 31.561 154.112 31.4089 154.112 31.2569V31.2538V28.7451V28.742C154.112 28.59 154.112 28.4379 154.105 28.2848ZM159.7 10.6986C159.692 10.561 159.676 10.4255 159.641 10.291C159.567 10.0086 159.412 9.76136 159.193 9.58343C158.976 9.4055 158.71 9.31032 158.435 9.31032C158.162 9.31032 157.895 9.4055 157.678 9.58343C157.459 9.76136 157.304 10.0086 157.23 10.291C157.194 10.4255 157.179 10.561 157.171 10.6986C157.164 10.8517 157.164 11.0038 157.164 11.1558V11.1589V48.84V48.8431C157.164 48.9962 157.164 49.1472 157.171 49.3003C157.179 49.4389 157.194 49.5734 157.23 49.7069C157.304 49.9903 157.459 50.2376 157.678 50.4155C157.895 50.5934 158.162 50.6896 158.435 50.6896C158.71 50.6896 158.976 50.5934 159.193 50.4155C159.412 50.2376 159.567 49.9903 159.641 49.7069C159.676 49.5734 159.692 49.4389 159.7 49.3003C159.707 49.1472 159.707 48.9962 159.707 48.8431V48.84V11.1589V11.1558C159.707 11.0038 159.707 10.8517 159.7 10.6986ZM165.803 3.45718C165.795 3.3196 165.78 3.18408 165.744 3.0496C165.67 2.76718 165.515 2.51994 165.297 2.34201C165.079 2.16408 164.814 2.06891 164.539 2.06891C164.265 2.06891 163.999 2.16408 163.781 2.34201C163.562 2.51994 163.408 2.76718 163.333 3.0496C163.298 3.18408 163.283 3.3196 163.274 3.45718C163.267 3.61028 163.267 3.76235 163.267 3.91442V3.91753V56.0813V56.0844C163.267 56.2375 163.267 56.3886 163.274 56.5417C163.283 56.6803 163.298 56.8148 163.333 56.9482C163.408 57.2317 163.562 57.4789 163.781 57.6568C163.999 57.8348 164.265 57.931 164.539 57.931C164.814 57.931 165.079 57.8348 165.297 57.6568C165.515 57.4789 165.67 57.2317 165.744 56.9482C165.78 56.8148 165.795 56.6803 165.803 56.5417C165.81 56.3886 165.81 56.2375 165.81 56.0844V56.0813V3.91753V3.91442C165.81 3.76235 165.81 3.61028 165.803 3.45718ZM171.848 12.8772C171.773 12.5948 171.619 12.3476 171.4 12.1696C171.182 11.9917 170.917 11.8965 170.642 11.8965C170.369 11.8965 170.102 11.9917 169.884 12.1696C169.666 12.3476 169.511 12.5948 169.437 12.8772C169.401 13.0117 169.386 13.1472 169.378 13.2848C169.371 13.4379 169.371 13.59 169.371 13.742V13.7451V46.2538V46.2569C169.371 46.41 169.371 46.561 169.378 46.7141C169.386 46.8527 169.401 46.9872 169.437 47.1207C169.511 47.4041 169.666 47.6513 169.884 47.8293C170.102 48.0072 170.369 48.1034 170.642 48.1034C170.917 48.1034 171.182 48.0072 171.4 47.8293C171.619 47.6513 171.773 47.4041 171.848 47.1207C171.883 46.9872 171.898 46.8527 171.907 46.7141C171.914 46.561 171.914 46.41 171.914 46.2569V13.742C171.914 13.59 171.914 13.4379 171.907 13.2848C171.898 13.1472 171.883 13.0117 171.848 12.8772ZM178.01 16.3883C178.002 16.2507 177.987 16.1152 177.951 15.9807C177.877 15.6983 177.722 15.451 177.504 15.2731C177.286 15.0952 177.02 15 176.746 15C176.472 15 176.206 15.0952 175.988 15.2731C175.769 15.451 175.615 15.6983 175.54 15.9807C175.505 16.1152 175.489 16.2507 175.481 16.3883C175.474 16.5414 175.474 16.6934 175.474 16.8455V16.8486V43.1503V43.1534C175.474 43.3065 175.474 43.4576 175.481 43.6107C175.489 43.7493 175.505 43.8838 175.54 44.0172C175.615 44.3007 175.769 44.5479 175.988 44.7259C176.206 44.9038 176.472 45 176.746 45C177.02 45 177.286 44.9038 177.504 44.7259C177.722 44.5479 177.877 44.3007 177.951 44.0172C177.987 43.8838 178.002 43.7493 178.01 43.6107C178.017 43.4576 178.017 43.3065 178.017 43.1534V43.1503V16.8486V16.8455C178.017 16.6934 178.017 16.5414 178.01 16.3883ZM184.055 4.08417C183.98 3.80176 183.826 3.55452 183.607 3.37659C183.389 3.19865 183.124 3.10348 182.849 3.10348C182.576 3.10348 182.309 3.19865 182.091 3.37659C181.873 3.55452 181.718 3.80176 181.644 4.08417C181.608 4.21866 181.593 4.35417 181.585 4.49176C181.578 4.64486 181.578 4.79693 181.578 4.949V55.05C181.578 55.2031 181.578 55.3542 181.585 55.5073C181.593 55.6459 181.608 55.7804 181.644 55.9138C181.718 56.1973 181.873 56.4445 182.091 56.6225C182.309 56.8004 182.576 56.8966 182.849 56.8966C183.124 56.8966 183.389 56.8004 183.607 56.6225C183.826 56.4445 183.98 56.1973 184.055 55.9138C184.09 55.7804 184.105 55.6459 184.114 55.5073C184.121 55.3542 184.121 55.2031 184.121 55.05V4.949C184.121 4.79693 184.121 4.64486 184.114 4.49176C184.105 4.35417 184.09 4.21866 184.055 4.08417ZM190.217 3.45718C190.209 3.3196 190.194 3.18408 190.158 3.0496C190.084 2.76718 189.929 2.51994 189.711 2.34201C189.493 2.16408 189.227 2.06891 188.953 2.06891C188.679 2.06891 188.413 2.16408 188.195 2.34201C187.976 2.51994 187.822 2.76718 187.747 3.0496C187.712 3.18408 187.696 3.3196 187.688 3.45718C187.681 3.61028 187.681 3.76235 187.681 3.91442V3.91753V56.0813V56.0844C187.681 56.2375 187.681 56.3886 187.688 56.5417C187.696 56.6803 187.712 56.8148 187.747 56.9482C187.822 57.2317 187.976 57.4789 188.195 57.6568C188.413 57.8348 188.679 57.931 188.953 57.931C189.227 57.931 189.493 57.8348 189.711 57.6568C189.929 57.4789 190.084 57.2317 190.158 56.9482C190.194 56.8148 190.209 56.6803 190.217 56.5417C190.224 56.3886 190.224 56.2375 190.224 56.0844V56.0813V3.91753V3.91442C190.224 3.76235 190.224 3.61028 190.217 3.45718ZM196.261 22.1875C196.187 21.9051 196.033 21.6579 195.814 21.4799C195.596 21.302 195.331 21.2068 195.056 21.2068C194.782 21.2068 194.516 21.302 194.298 21.4799C194.079 21.6579 193.925 21.9051 193.851 22.1875C193.815 22.322 193.8 22.4575 193.792 22.5951C193.784 22.7482 193.784 22.9003 193.784 23.0524V36.9465C193.784 37.0986 193.784 37.2506 193.792 37.4037C193.8 37.5424 193.815 37.6768 193.851 37.8103C193.925 38.0937 194.079 38.341 194.298 38.5189C194.516 38.6968 194.782 38.793 195.056 38.793C195.331 38.793 195.596 38.6968 195.814 38.5189C196.033 38.341 196.187 38.0937 196.261 37.8103C196.297 37.6768 196.312 37.5424 196.32 37.4037C196.328 37.2506 196.328 37.0986 196.328 36.9465V23.0524C196.328 22.9003 196.328 22.7482 196.32 22.5951C196.312 22.4575 196.297 22.322 196.261 22.1875ZM202.424 7.07795C202.416 6.94037 202.401 6.80485 202.365 6.67037C202.291 6.38795 202.136 6.14071 201.917 5.96278C201.7 5.78485 201.434 5.68968 201.159 5.68968C200.886 5.68968 200.619 5.78485 200.402 5.96278C200.183 6.14071 200.028 6.38795 199.954 6.67037C199.918 6.80485 199.903 6.94037 199.895 7.07795C199.888 7.23106 199.888 7.38312 199.888 7.53519V7.5383V52.4607V52.4638C199.888 52.6169 199.888 52.768 199.895 52.9211C199.903 53.0597 199.918 53.1942 199.954 53.3276C200.028 53.6111 200.183 53.8583 200.402 54.0362C200.619 54.2142 200.886 54.3104 201.159 54.3104C201.434 54.3104 201.7 54.2142 201.917 54.0362C202.136 53.8583 202.291 53.6111 202.365 53.3276C202.401 53.1942 202.416 53.0597 202.424 52.9211C202.431 52.768 202.431 52.6169 202.431 52.4638V52.4607V7.5383V7.53519C202.431 7.38312 202.431 7.23106 202.424 7.07795ZM208.468 20.1186C208.394 19.8362 208.24 19.589 208.021 19.411C207.803 19.2331 207.538 19.1379 207.263 19.1379C206.989 19.1379 206.723 19.2331 206.505 19.411C206.286 19.589 206.132 19.8362 206.058 20.1186C206.022 20.2531 206.007 20.3886 205.999 20.5262C205.991 20.6793 205.991 20.8314 205.991 20.9835V39.0155C205.991 39.1686 205.991 39.3197 205.999 39.4728C206.007 39.6114 206.022 39.7459 206.058 39.8793C206.132 40.1628 206.286 40.41 206.505 40.5879C206.723 40.7659 206.989 40.8621 207.263 40.8621C207.538 40.8621 207.803 40.7659 208.021 40.5879C208.24 40.41 208.394 40.1628 208.468 39.8793C208.504 39.7459 208.519 39.6114 208.527 39.4728C208.535 39.3197 208.535 39.1686 208.535 39.0155V20.9835C208.535 20.8314 208.535 20.6793 208.527 20.5262C208.519 20.3886 208.504 20.2531 208.468 20.1186ZM214.631 22.078C214.623 21.9404 214.607 21.8048 214.572 21.6704C214.497 21.388 214.343 21.1407 214.124 20.9628C213.906 20.7848 213.641 20.6897 213.366 20.6897C213.093 20.6897 212.826 20.7848 212.608 20.9628C212.39 21.1407 212.235 21.388 212.161 21.6704C212.125 21.8048 212.11 21.9404 212.102 22.078C212.095 22.2311 212.095 22.3831 212.095 22.5352V22.5383V37.4607V37.4638C212.095 37.6169 212.095 37.768 212.102 37.9211C212.11 38.0597 212.125 38.1942 212.161 38.3276C212.235 38.6111 212.39 38.8583 212.608 39.0362C212.826 39.2142 213.093 39.3104 213.366 39.3104C213.641 39.3104 213.906 39.2142 214.124 39.0362C214.343 38.8583 214.497 38.6111 214.572 38.3276C214.607 38.1942 214.623 38.0597 214.631 37.9211C214.638 37.768 214.638 37.6169 214.638 37.4638V37.4607V22.5383V22.5352C214.638 22.3831 214.638 22.2311 214.631 22.078ZM220.226 12.7676C220.218 12.63 220.202 12.4945 220.167 12.36C220.092 12.0776 219.938 11.8304 219.719 11.6525C219.501 11.4745 219.236 11.3794 218.961 11.3794C218.688 11.3794 218.421 11.4745 218.203 11.6525C217.985 11.8304 217.83 12.0776 217.756 12.36C217.72 12.4945 217.705 12.63 217.697 12.7676C217.69 12.9207 217.69 13.0728 217.69 13.2249V13.228V46.7711V46.7742C217.69 46.9273 217.69 47.0783 217.697 47.2314C217.705 47.37 217.72 47.5045 217.756 47.638C217.83 47.9214 217.985 48.1687 218.203 48.3466C218.421 48.5245 218.688 48.6207 218.961 48.6207C219.236 48.6207 219.501 48.5245 219.719 48.3466C219.938 48.1687 220.092 47.9214 220.167 47.638C220.202 47.5045 220.218 47.37 220.226 47.2314C220.233 47.0783 220.233 46.9273 220.233 46.7742V46.7711V13.228V13.2249C220.233 13.0728 220.233 12.9207 220.226 12.7676ZM226.329 13.8021C226.321 13.6645 226.306 13.529 226.27 13.3945C226.196 13.1121 226.041 12.8648 225.823 12.6869C225.605 12.509 225.339 12.4138 225.065 12.4138C224.791 12.4138 224.525 12.509 224.307 12.6869C224.088 12.8648 223.934 13.1121 223.859 13.3945C223.824 13.529 223.808 13.6645 223.8 13.8021C223.793 13.9552 223.793 14.1073 223.793 14.2593V14.2624V45.7366V45.7397C223.793 45.8928 223.793 46.0438 223.8 46.1969C223.808 46.3355 223.824 46.47 223.859 46.6035C223.934 46.8869 224.088 47.1342 224.307 47.3121C224.525 47.49 224.791 47.5862 225.065 47.5862C225.339 47.5862 225.605 47.49 225.823 47.3121C226.041 47.1342 226.196 46.8869 226.27 46.6035C226.306 46.47 226.321 46.3355 226.329 46.1969C226.336 46.0438 226.336 45.8928 226.336 45.7397V45.7366V14.2624V14.2593C226.336 14.1073 226.336 13.9552 226.329 13.8021ZM232.373 20.6359C232.299 20.3535 232.145 20.1063 231.926 19.9283C231.708 19.7504 231.443 19.6552 231.168 19.6552C230.894 19.6552 230.628 19.7504 230.41 19.9283C230.191 20.1063 230.037 20.3535 229.963 20.6359C229.927 20.7704 229.912 20.9059 229.904 21.0435C229.896 21.1966 229.896 21.3487 229.896 21.5007V38.4983C229.896 38.6514 229.896 38.8025 229.904 38.9556C229.912 39.0942 229.927 39.2287 229.963 39.3621C230.037 39.6456 230.191 39.8928 230.41 40.0707C230.628 40.2487 230.894 40.3449 231.168 40.3449C231.443 40.3449 231.708 40.2487 231.926 40.0707C232.145 39.8928 232.299 39.6456 232.373 39.3621C232.409 39.2287 232.424 39.0942 232.432 38.9556C232.44 38.8025 232.44 38.6514 232.44 38.4983V21.5007C232.44 21.3487 232.44 21.1966 232.432 21.0435C232.424 20.9059 232.409 20.7704 232.373 20.6359ZM238.536 14.8365C238.528 14.6989 238.513 14.5634 238.477 14.4289C238.403 14.1465 238.248 13.8993 238.029 13.7214C237.812 13.5434 237.546 13.4483 237.272 13.4483C236.998 13.4483 236.731 13.5434 236.514 13.7214C236.295 13.8993 236.14 14.1465 236.066 14.4289C236.031 14.5634 236.015 14.6989 236.007 14.8365C236 14.9896 236 15.1417 236 15.2938V15.2969V44.702V44.7052C236 44.8583 236 45.0093 236.007 45.1624C236.015 45.301 236.031 45.4355 236.066 45.5689C236.14 45.8524 236.295 46.0996 236.514 46.2776C236.731 46.4555 236.998 46.5517 237.272 46.5517C237.546 46.5517 237.812 46.4555 238.029 46.2776C238.248 46.0996 238.403 45.8524 238.477 45.5689C238.513 45.4355 238.528 45.301 238.536 45.1624C238.543 45.0093 238.543 44.8583 238.543 44.7052V44.702V15.2969V15.2938C238.543 15.1417 238.543 14.9896 238.536 14.8365ZM244.58 0.98069C244.506 0.698276 244.352 0.451034 244.133 0.273103C243.915 0.0951724 243.65 0 243.375 0C243.101 0 242.835 0.0951724 242.617 0.273103C242.398 0.451034 242.244 0.698276 242.17 0.98069C242.134 1.11517 242.119 1.25069 242.111 1.38828C242.103 1.54138 242.103 1.69345 242.103 1.84552V58.1534C242.103 58.3065 242.103 58.4576 242.111 58.6107C242.119 58.7493 242.134 58.8838 242.17 59.0172C242.244 59.3007 242.398 59.5479 242.617 59.7259C242.835 59.9038 243.101 60 243.375 60C243.65 60 243.915 59.9038 244.133 59.7259C244.352 59.5479 244.506 59.3007 244.58 59.0172C244.616 58.8838 244.631 58.7493 244.639 58.6107C244.647 58.4576 244.647 58.3065 244.647 58.1534V1.84552C244.647 1.69345 244.647 1.54138 244.639 1.38828C244.631 1.25069 244.616 1.11517 244.58 0.98069ZM250.743 20.0089C250.735 19.8713 250.719 19.7358 250.684 19.6013C250.61 19.3189 250.455 19.0717 250.236 18.8938C250.018 18.7158 249.753 18.6206 249.478 18.6206C249.205 18.6206 248.938 18.7158 248.72 18.8938C248.502 19.0717 248.347 19.3189 248.273 19.6013C248.237 19.7358 248.222 19.8713 248.214 20.0089C248.207 20.162 248.207 20.3141 248.207 20.4662V20.4693V39.5296V39.5327C248.207 39.6858 248.207 39.8369 248.214 39.99C248.222 40.1286 248.237 40.2631 248.273 40.3965C248.347 40.68 248.502 40.9272 248.72 41.1051C248.938 41.2831 249.205 41.3793 249.478 41.3793C249.753 41.3793 250.018 41.2831 250.236 41.1051C250.455 40.9272 250.61 40.68 250.684 40.3965C250.719 40.2631 250.735 40.1286 250.743 39.99C250.75 39.8369 250.75 39.6858 250.75 39.5327V39.5296V20.4693V20.4662C250.75 20.3141 250.75 20.162 250.743 20.0089ZM256.787 22.7048C256.713 22.4224 256.558 22.1752 256.34 21.9972C256.122 21.8193 255.857 21.7241 255.582 21.7241C255.308 21.7241 255.042 21.8193 254.824 21.9972C254.605 22.1752 254.451 22.4224 254.376 22.7048C254.341 22.8393 254.326 22.9748 254.317 23.1124C254.31 23.2655 254.31 23.4176 254.31 23.5696V36.4293C254.31 36.5814 254.31 36.7334 254.317 36.8865C254.326 37.0252 254.341 37.1596 254.376 37.2931C254.451 37.5765 254.605 37.8238 254.824 38.0017C255.042 38.1796 255.308 38.2759 255.582 38.2759C255.857 38.2759 256.122 38.1796 256.34 38.0017C256.558 37.8238 256.713 37.5765 256.787 37.2931C256.823 37.1596 256.838 37.0252 256.846 36.8865C256.853 36.7334 256.853 36.5814 256.853 36.4293V23.5696C256.853 23.4176 256.853 23.2655 256.846 23.1124C256.838 22.9748 256.823 22.8393 256.787 22.7048ZM262.95 20.0089C262.942 19.8713 262.926 19.7358 262.891 19.6013C262.817 19.3189 262.662 19.0717 262.443 18.8938C262.226 18.7158 261.96 18.6206 261.685 18.6206C261.412 18.6206 261.145 18.7158 260.928 18.8938C260.709 19.0717 260.554 19.3189 260.48 19.6013C260.444 19.7358 260.429 19.8713 260.421 20.0089C260.414 20.162 260.414 20.3141 260.414 20.4662V20.4693V39.5296V39.5327C260.414 39.6858 260.414 39.8369 260.421 39.99C260.429 40.1286 260.444 40.2631 260.48 40.3965C260.554 40.68 260.709 40.9272 260.928 41.1051C261.145 41.2831 261.412 41.3793 261.685 41.3793C261.96 41.3793 262.226 41.2831 262.443 41.1051C262.662 40.9272 262.817 40.68 262.891 40.3965C262.926 40.2631 262.942 40.1286 262.95 39.99C262.957 39.8369 262.957 39.6858 262.957 39.5327V39.5296V20.4693V20.4662C262.957 20.3141 262.957 20.162 262.95 20.0089ZM268.994 24.7738C268.92 24.4914 268.765 24.2442 268.547 24.0663C268.329 23.8883 268.064 23.7932 267.789 23.7932C267.515 23.7932 267.249 23.8883 267.031 24.0663C266.812 24.2442 266.658 24.4914 266.583 24.7738C266.548 24.9083 266.533 25.0438 266.524 25.1814C266.517 25.3345 266.517 25.4866 266.517 25.6387V34.3604C266.517 34.5125 266.517 34.6645 266.524 34.8176C266.533 34.9563 266.548 35.0907 266.583 35.2252C266.658 35.5076 266.812 35.7549 267.031 35.9328C267.249 36.1107 267.515 36.207 267.789 36.207C268.064 36.207 268.329 36.1107 268.547 35.9328C268.765 35.7549 268.92 35.5076 268.994 35.2252C269.03 35.0907 269.045 34.9563 269.053 34.8176C269.06 34.6645 269.06 34.5125 269.06 34.3604V25.6387C269.06 25.4866 269.06 25.3345 269.053 25.1814C269.045 25.0438 269.03 24.9083 268.994 24.7738ZM275.157 5.52621C275.148 5.38862 275.133 5.25311 275.098 5.11862C275.023 4.83621 274.869 4.58897 274.65 4.41104C274.432 4.23311 274.167 4.13794 273.892 4.13794C273.619 4.13794 273.352 4.23311 273.134 4.41104C272.916 4.58897 272.761 4.83621 272.687 5.11862C272.651 5.25311 272.636 5.38862 272.628 5.52621C272.621 5.67931 272.621 5.83138 272.621 5.98345V5.98656V54.0124V54.0155C272.621 54.1686 272.621 54.3197 272.628 54.4728C272.636 54.6114 272.651 54.7459 272.687 54.8793C272.761 55.1628 272.916 55.41 273.134 55.5879C273.352 55.7659 273.619 55.8621 273.892 55.8621C274.167 55.8621 274.432 55.7659 274.65 55.5879C274.869 55.41 275.023 55.1628 275.098 54.8793C275.133 54.7459 275.148 54.6114 275.157 54.4728C275.164 54.3197 275.164 54.1686 275.164 54.0155V54.0124V5.98656V5.98345C275.164 5.83138 275.164 5.67931 275.157 5.52621ZM281.201 18.0496C281.127 17.7672 280.972 17.5199 280.754 17.342C280.536 17.1641 280.27 17.0689 279.996 17.0689C279.722 17.0689 279.456 17.1641 279.238 17.342C279.019 17.5199 278.865 17.7672 278.79 18.0496C278.755 18.1841 278.739 18.3196 278.731 18.4572C278.724 18.6103 278.724 18.7624 278.724 18.9144V18.9175V41.0813V41.0844C278.724 41.2375 278.724 41.3886 278.731 41.5417C278.739 41.6803 278.755 41.8148 278.79 41.9482C278.865 42.2317 279.019 42.4789 279.238 42.6568C279.456 42.8348 279.722 42.931 279.996 42.931C280.27 42.931 280.536 42.8348 280.754 42.6568C280.972 42.4789 281.127 42.2317 281.201 41.9482C281.237 41.8148 281.252 41.6803 281.26 41.5417C281.267 41.3886 281.267 41.2375 281.267 41.0844V18.9144C281.267 18.7624 281.267 18.6103 281.26 18.4572C281.252 18.3196 281.237 18.1841 281.201 18.0496ZM287.364 26.2159C287.355 26.0783 287.34 25.9428 287.305 25.8083C287.23 25.5259 287.076 25.2786 286.857 25.1007C286.639 24.9228 286.374 24.8276 286.099 24.8276C285.826 24.8276 285.559 24.9228 285.341 25.1007C285.123 25.2786 284.968 25.5259 284.894 25.8083C284.858 25.9428 284.843 26.0783 284.835 26.2159C284.828 26.369 284.828 26.5211 284.828 26.6731V26.6762V33.3228V33.3259C284.828 33.478 284.828 33.63 284.835 33.7831C284.843 33.9217 284.858 34.0562 284.894 34.1907C284.968 34.4731 285.123 34.7204 285.341 34.8983C285.559 35.0762 285.826 35.1724 286.099 35.1724C286.374 35.1724 286.639 35.0762 286.857 34.8983C287.076 34.7204 287.23 34.4731 287.305 34.1907C287.34 34.0562 287.355 33.9217 287.364 33.7831C287.371 33.63 287.371 33.478 287.371 33.3259V33.3228V26.6762V26.6731C287.371 26.5211 287.371 26.369 287.364 26.2159ZM292.899 26.8428C292.825 26.5603 292.67 26.3131 292.452 26.1352C292.234 25.9572 291.969 25.8621 291.694 25.8621C291.42 25.8621 291.154 25.9572 290.936 26.1352C290.717 26.3131 290.563 26.5603 290.488 26.8428C290.453 26.9772 290.438 27.1128 290.429 27.2503C290.422 27.4034 290.422 27.5555 290.422 27.7076V32.2914C290.422 32.4434 290.422 32.5955 290.429 32.7486C290.438 32.8872 290.453 33.0217 290.488 33.1562C290.563 33.4386 290.717 33.6859 290.936 33.8638C291.154 34.0417 291.42 34.1379 291.694 34.1379C291.969 34.1379 292.234 34.0417 292.452 33.8638C292.67 33.6859 292.825 33.4386 292.899 33.1562C292.935 33.0217 292.95 32.8872 292.958 32.7486C292.965 32.5955 292.965 32.4434 292.965 32.2914V27.7076C292.965 27.5555 292.965 27.4034 292.958 27.2503C292.95 27.1128 292.935 26.9772 292.899 26.8428ZM299.062 17.94C299.054 17.8024 299.038 17.6669 299.003 17.5324C298.929 17.25 298.774 17.0028 298.555 16.8248C298.338 16.6469 298.072 16.5517 297.797 16.5517C297.524 16.5517 297.257 16.6469 297.04 16.8248C296.821 17.0028 296.666 17.25 296.592 17.5324C296.556 17.6669 296.541 17.8024 296.533 17.94C296.526 18.0931 296.526 18.2452 296.526 18.3973V18.4004V41.5986V41.6017C296.526 41.7548 296.526 41.9059 296.533 42.059C296.541 42.1976 296.556 42.3321 296.592 42.4655C296.666 42.749 296.821 42.9962 297.04 43.1742C297.257 43.3521 297.524 43.4483 297.797 43.4483C298.072 43.4483 298.338 43.3521 298.555 43.1742C298.774 42.9962 298.929 42.749 299.003 42.4655C299.038 42.3321 299.054 42.1976 299.062 42.059C299.069 41.9059 299.069 41.7548 299.069 41.6017V41.5986V18.4004V18.3973C299.069 18.2452 299.069 18.0931 299.062 17.94ZM305.106 19.6013C305.032 19.3189 304.878 19.0717 304.659 18.8938C304.441 18.7158 304.176 18.6206 303.901 18.6206C303.627 18.6206 303.361 18.7158 303.143 18.8938C302.924 19.0717 302.77 19.3189 302.696 19.6013C302.66 19.7358 302.645 19.8713 302.637 20.0089C302.629 20.162 302.629 20.3141 302.629 20.4662V39.5327C302.629 39.6858 302.629 39.8369 302.637 39.99C302.645 40.1286 302.66 40.2631 302.696 40.3965C302.77 40.68 302.924 40.9272 303.143 41.1051C303.361 41.2831 303.627 41.3793 303.901 41.3793C304.176 41.3793 304.441 41.2831 304.659 41.1051C304.878 40.9272 305.032 40.68 305.106 40.3965C305.142 40.2631 305.157 40.1286 305.165 39.99C305.172 39.8369 305.172 39.6858 305.172 39.5327V20.4662C305.172 20.3141 305.172 20.162 305.165 20.0089C305.157 19.8713 305.142 19.7358 305.106 19.6013ZM311.269 21.0435C311.26 20.9059 311.245 20.7704 311.21 20.6359C311.135 20.3535 310.981 20.1063 310.762 19.9283C310.544 19.7504 310.279 19.6552 310.004 19.6552C309.731 19.6552 309.464 19.7504 309.246 19.9283C309.028 20.1063 308.873 20.3535 308.799 20.6359C308.763 20.7704 308.748 20.9059 308.74 21.0435C308.733 21.1966 308.733 21.3487 308.733 21.5007V21.5038V38.4952V38.4983C308.733 38.6514 308.733 38.8025 308.74 38.9556C308.748 39.0942 308.763 39.2287 308.799 39.3621C308.873 39.6456 309.028 39.8928 309.246 40.0707C309.464 40.2487 309.731 40.3449 310.004 40.3449C310.279 40.3449 310.544 40.2487 310.762 40.0707C310.981 39.8928 311.135 39.6456 311.21 39.3621C311.245 39.2287 311.26 39.0942 311.269 38.9556C311.276 38.8025 311.276 38.6514 311.276 38.4983V38.4952V21.5038V21.5007C311.276 21.3487 311.276 21.1966 311.269 21.0435ZM317.313 23.2221C317.239 22.9397 317.084 22.6925 316.866 22.5145C316.648 22.3366 316.382 22.2414 316.108 22.2414C315.834 22.2414 315.568 22.3366 315.35 22.5145C315.131 22.6925 314.977 22.9397 314.902 23.2221C314.867 23.3566 314.851 23.4921 314.843 23.6297C314.836 23.7828 314.836 23.9349 314.836 24.0869V35.9121C314.836 36.0642 314.836 36.2162 314.843 36.3693C314.851 36.508 314.867 36.6425 314.902 36.7769C314.977 37.0593 315.131 37.3066 315.35 37.4845C315.568 37.6624 315.834 37.7587 316.108 37.7587C316.382 37.7587 316.648 37.6624 316.866 37.4845C317.084 37.3066 317.239 37.0593 317.313 36.7769C317.349 36.6425 317.364 36.508 317.372 36.3693C317.379 36.2162 317.379 36.0642 317.379 35.9121V24.0869C317.379 23.9349 317.379 23.7828 317.372 23.6297C317.364 23.4921 317.349 23.3566 317.313 23.2221ZM323.475 25.1814C323.468 25.0438 323.452 24.9083 323.418 24.7738C323.342 24.4914 323.189 24.2442 322.969 24.0663C322.751 23.8883 322.486 23.7932 322.211 23.7932C321.937 23.7932 321.671 23.8883 321.453 24.0663C321.235 24.2442 321.08 24.4914 321.006 24.7738C320.97 24.9083 320.955 25.0438 320.947 25.1814C320.94 25.3345 320.94 25.4866 320.94 25.6387V25.6418V34.3573V34.3604C320.94 34.5125 320.94 34.6645 320.947 34.8176C320.955 34.9563 320.97 35.0907 321.006 35.2252C321.08 35.5076 321.235 35.7549 321.453 35.9328C321.671 36.1107 321.937 36.207 322.211 36.207C322.486 36.207 322.751 36.1107 322.969 35.9328C323.189 35.7549 323.342 35.5076 323.418 35.2252C323.452 35.0907 323.468 34.9563 323.475 34.8176C323.484 34.6645 323.483 34.5125 323.483 34.3604V34.3573V25.6418V25.6387C323.483 25.4866 323.484 25.3345 323.475 25.1814ZM329.521 28.9118C329.446 28.6294 329.292 28.3821 329.072 28.2042C328.855 28.0263 328.589 27.9311 328.315 27.9311C328.04 27.9311 327.774 28.0263 327.557 28.2042C327.337 28.3821 327.183 28.6294 327.108 28.9118C327.074 29.0463 327.058 29.1818 327.051 29.3194C327.042 29.4725 327.043 29.6245 327.043 29.7766V29.7797V30.2194V30.2225C327.043 30.3745 327.042 30.5266 327.051 30.6797C327.058 30.8183 327.074 30.9528 327.108 31.0873C327.183 31.3697 327.337 31.617 327.557 31.7949C327.774 31.9728 328.04 32.069 328.315 32.069C328.589 32.069 328.855 31.9728 329.072 31.7949C329.292 31.617 329.446 31.3697 329.521 31.0873C329.556 30.9528 329.571 30.8183 329.578 30.6797C329.587 30.5266 329.586 30.3745 329.586 30.2225V29.7766C329.586 29.6245 329.587 29.4725 329.578 29.3194C329.571 29.1818 329.556 29.0463 329.521 28.9118ZM335.681 27.2503C335.674 27.1128 335.659 26.9772 335.625 26.8428C335.549 26.5603 335.396 26.3131 335.176 26.1352C334.958 25.9572 334.693 25.8621 334.418 25.8621C334.143 25.8621 333.878 25.9572 333.66 26.1352C333.44 26.3131 333.287 26.5603 333.212 26.8428C333.177 26.9772 333.162 27.1128 333.155 27.2503C333.146 27.4034 333.147 27.5555 333.147 27.7076V27.7107V32.2883V32.2914C333.147 32.4434 333.146 32.5955 333.155 32.7486C333.162 32.8872 333.177 33.0217 333.212 33.1562C333.287 33.4386 333.44 33.6859 333.66 33.8638C333.878 34.0417 334.143 34.1379 334.418 34.1379C334.693 34.1379 334.958 34.0417 335.176 33.8638C335.396 33.6859 335.549 33.4386 335.625 33.1562C335.659 33.0217 335.674 32.8872 335.681 32.7486C335.691 32.5955 335.69 32.4434 335.69 32.2914V32.2883V27.7107V27.7076C335.69 27.5555 335.691 27.4034 335.681 27.2503ZM341.785 27.2503C341.778 27.1128 341.763 26.9772 341.728 26.8428C341.653 26.5603 341.499 26.3131 341.279 26.1352C341.062 25.9572 340.796 25.8621 340.522 25.8621C340.247 25.8621 339.981 25.9572 339.764 26.1352C339.544 26.3131 339.39 26.5603 339.315 26.8428C339.281 26.9772 339.265 27.1128 339.258 27.2503C339.249 27.4034 339.25 27.5555 339.25 27.7076V27.7107V32.2883V32.2914C339.25 32.4434 339.249 32.5955 339.258 32.7486C339.265 32.8872 339.281 33.0217 339.315 33.1562C339.39 33.4386 339.544 33.6859 339.764 33.8638C339.981 34.0417 340.247 34.1379 340.522 34.1379C340.796 34.1379 341.062 34.0417 341.279 33.8638C341.499 33.6859 341.653 33.4386 341.728 33.1562C341.763 33.0217 341.778 32.8872 341.785 32.7486C341.794 32.5955 341.793 32.4434 341.793 32.2914V32.2883V27.7107V27.7076C341.793 27.5555 341.794 27.4034 341.785 27.2503ZM347.832 28.3945C347.756 28.1121 347.603 27.8648 347.383 27.6869C347.165 27.509 346.9 27.4138 346.625 27.4138C346.35 27.4138 346.085 27.509 345.867 27.6869C345.648 27.8648 345.494 28.1121 345.419 28.3945C345.384 28.529 345.369 28.6645 345.362 28.8021C345.353 28.9552 345.354 29.1073 345.354 29.2593V29.2624V30.7366V30.7397C345.354 30.8917 345.353 31.0438 345.362 31.1969C345.369 31.3355 345.384 31.47 345.419 31.6045C345.494 31.8869 345.648 32.1342 345.867 32.3121C346.085 32.49 346.35 32.5862 346.625 32.5862C346.9 32.5862 347.165 32.49 347.383 32.3121C347.603 32.1342 347.756 31.8869 347.832 31.6045C347.866 31.47 347.881 31.3355 347.889 31.1969C347.898 31.0438 347.897 30.8917 347.897 30.7397V29.2593C347.897 29.1073 347.898 28.9552 347.889 28.8021C347.881 28.6645 347.866 28.529 347.832 28.3945ZM353.426 28.9118C353.351 28.6294 353.197 28.3821 352.978 28.2042C352.76 28.0263 352.494 27.9311 352.22 27.9311C351.945 27.9311 351.68 28.0263 351.462 28.2042C351.242 28.3821 351.089 28.6294 351.013 28.9118C350.979 29.0463 350.964 29.1818 350.956 29.3194C350.947 29.4725 350.948 29.6245 350.948 29.7766V30.2225C350.948 30.3745 350.947 30.5266 350.956 30.6797C350.964 30.8183 350.979 30.9528 351.013 31.0873C351.089 31.3697 351.242 31.617 351.462 31.7949C351.68 31.9728 351.945 32.069 352.22 32.069C352.494 32.069 352.76 31.9728 352.978 31.7949C353.197 31.617 353.351 31.3697 353.426 31.0873C353.461 30.9528 353.476 30.8183 353.483 30.6797C353.492 30.5266 353.491 30.3745 353.491 30.2225V29.7766C353.491 29.6245 353.492 29.4725 353.483 29.3194C353.476 29.1818 353.461 29.0463 353.426 28.9118ZM359.081 29.2387C358.864 29.0607 358.598 28.9655 358.323 28.9655C358.049 28.9655 357.783 29.0607 357.566 29.2387C357.346 29.4166 357.192 29.6638 357.117 29.9462C357.114 29.9638 357.115 29.9824 357.111 30C357.115 30.0176 357.114 30.0352 357.117 30.0528C357.192 30.3352 357.346 30.5824 357.566 30.7604C357.783 30.9383 358.049 31.0345 358.323 31.0345C358.598 31.0345 358.864 30.9383 359.081 30.7604C359.301 30.5824 359.455 30.3352 359.53 30.0528C359.533 30.0352 359.532 30.0176 359.536 30C359.532 29.9824 359.533 29.9638 359.53 29.9462C359.455 29.6638 359.301 29.4166 359.081 29.2387ZM357.052 29.188V29.1849V30.8142V30.8111C357.052 30.659 357.051 30.507 357.06 30.3539C357.066 30.2339 357.083 30.117 357.111 30.0001C357.083 29.8821 357.066 29.7652 357.06 29.6452C357.051 29.4921 357.052 29.3401 357.052 29.188ZM359.587 29.6452C359.58 29.7652 359.563 29.8821 359.536 30.0001C359.563 30.117 359.58 30.2339 359.587 30.3539C359.596 30.507 359.595 30.659 359.595 30.8111V30.8142V29.1849V29.188C359.595 29.3401 359.596 29.4921 359.587 29.6452ZM365.185 29.2387C364.967 29.0607 364.702 28.9655 364.427 28.9655C364.152 28.9655 363.887 29.0607 363.669 29.2387C363.449 29.4166 363.296 29.6638 363.22 29.9462C363.217 29.9638 363.218 29.9824 363.214 30C363.218 30.0176 363.217 30.0352 363.22 30.0528C363.296 30.3352 363.449 30.5824 363.669 30.7604C363.887 30.9383 364.152 31.0345 364.427 31.0345C364.702 31.0345 364.967 30.9383 365.185 30.7604C365.404 30.5824 365.558 30.3352 365.633 30.0528C365.636 30.0352 365.635 30.0176 365.639 30C365.635 29.9824 365.636 29.9638 365.633 29.9462C365.558 29.6638 365.404 29.4166 365.185 29.2387ZM365.639 30C365.667 30.1168 365.684 30.2337 365.69 30.3537C365.699 30.5068 365.698 30.6589 365.698 30.811V29.1879C365.698 29.34 365.699 29.492 365.69 29.6451C365.684 29.7651 365.667 29.882 365.639 30ZM363.155 29.1879V30.811C363.155 30.6589 363.154 30.5068 363.163 30.3537C363.17 30.2337 363.187 30.1168 363.214 30C363.187 29.882 363.17 29.7651 363.163 29.6451C363.154 29.492 363.155 29.34 363.155 29.1879ZM371.288 29.2387C371.07 29.0607 370.805 28.9655 370.53 28.9655C370.256 28.9655 369.99 29.0607 369.772 29.2387C369.553 29.4166 369.399 29.6638 369.324 29.9462C369.321 29.9638 369.322 29.9824 369.318 30C369.322 30.0176 369.321 30.0352 369.324 30.0528C369.399 30.3352 369.553 30.5824 369.772 30.7604C369.99 30.9383 370.256 31.0345 370.53 31.0345C370.805 31.0345 371.07 30.9383 371.288 30.7604C371.508 30.5824 371.661 30.3352 371.737 30.0528C371.74 30.0352 371.739 30.0176 371.743 30C371.739 29.9824 371.74 29.9638 371.737 29.9462C371.661 29.6638 371.508 29.4166 371.288 29.2387ZM369.259 29.188V29.1849V30.8142V30.8111C369.259 30.659 369.258 30.507 369.267 30.3539C369.273 30.2339 369.29 30.117 369.318 30.0001C369.29 29.8821 369.273 29.7652 369.267 29.6452C369.258 29.4921 369.259 29.3401 369.259 29.188ZM371.802 29.188C371.802 29.3401 371.803 29.4921 371.794 29.6452C371.787 29.7652 371.77 29.8821 371.743 30.0001C371.77 30.117 371.787 30.2339 371.794 30.3539C371.803 30.507 371.802 30.659 371.802 30.8111V30.8142V29.1849V29.188ZM2.53809 30C2.54012 30.0972 2.54317 30.1955 2.54317 30.2938V30.2969V29.7021V29.7052C2.54317 29.8034 2.54012 29.9017 2.53809 30ZM0 29.7021V30.2969V30.2938C0 30.1955 0.00305172 30.0972 0.00508621 30C0.00305172 29.9017 0 29.8034 0 29.7052V29.7021ZM2.47678 29.4289C2.40252 29.1465 2.2479 28.8993 2.02919 28.7214C1.8115 28.5434 1.546 28.4483 1.27135 28.4483C0.99771 28.4483 0.731193 28.5434 0.513503 28.7214C0.294797 28.8993 0.140176 29.1465 0.0659173 29.4289C0.0303138 29.5634 0.0150552 29.6989 0.0069173 29.8365C0.00386557 29.8914 0.00590005 29.9452 0.00488281 30C0.00590005 30.0538 0.00386557 30.1086 0.0069173 30.1624C0.0150552 30.301 0.0303138 30.4355 0.0659173 30.57C0.140176 30.8524 0.294797 31.0996 0.513503 31.2776C0.731193 31.4555 0.99771 31.5517 1.27135 31.5517C1.546 31.5517 1.8115 31.4555 2.02919 31.2776C2.2479 31.0996 2.40252 30.8524 2.47678 30.57C2.51238 30.4355 2.52764 30.301 2.53578 30.1624C2.53883 30.1086 2.5368 30.0538 2.53781 30C2.5368 29.9452 2.53883 29.8914 2.53578 29.8365C2.52764 29.6989 2.51238 29.5634 2.47678 29.4289Z" fill="white"/>
</svg>
